<?xml version="1.0" encoding="utf-8"?>
<!-- Generator: Adobe Illustrator 24.3.0, SVG Export Plug-In . SVG Version: 6.00 Build 0)  -->
<svg version="1.1" id="nicola-pernice-logo" xmlns="http://www.w3.org/2000/svg" xmlns:xlink="http://www.w3.org/1999/xlink"
	 x="0px" y="0px" viewBox="0 0 155 111.1" style="enable-background:new 0 0 155 111.1;" xml:space="preserve">
<style type="text/css">
	.st0{display:none;opacity:0;enable-background:new    ;}
	.st1{font-family:'SourceSansPro-Regular';}
	.st2{font-size:11px;}
	.st3{display:none;fill-opacity:0;}
	.st4{display:none;fill:none;stroke:#DD0084;stroke-width:4;stroke-miterlimit:10;}
	.st5{display:none;fill:none;stroke:#DD0084;stroke-width:3;stroke-miterlimit:10;}
</style>
<path id="s-06" d="M150.3,8.4c-8.6-5.8-18.8-8.7-29.3-7.3c-11.2,1.6-21,8.4-28.8,16.3c-2.6,2.6-4.7,5.2-6.6,8.2l-0.5,0.7
	c-3,4.8-5.4,10-7.3,15.4c-1.9,5.4-3.4,11.1-4.2,16.8c0,0.5-0.6,5.5-0.6,5.7c-0.1,2-0.1,3.5-0.1,5.4c0.1,4.9,0.7,11.7,4.3,15.5
	c0.8,0.9,2.2,2.2,2.4,1.7c0.2-0.4,0.3-0.9,0.4-1.4c-0.8-0.1-1.9-0.7-2.4-1.2h0c-1.6-2-2.3-5.2-2.6-7.7c-0.3-1.7-0.5-4.4-0.3-6.1
	c0.1-1,0.2-2.4,0.3-3.7c0.1-2.3,0.5-4.7,0.9-7c0.1-0.6,0.2-1.2,0.3-1.7c0.5-2.9,1.2-5.7,1.9-8.4c2.1-7.4,5.1-14.5,9.1-21l0.4-0.6
	c4.6-7.1,11-13.2,18.1-17.8c6.9-4.6,15-7.3,23.4-7.2c8.3,0,17.3,3.7,24.3,8.1C152.4,10,151.2,8.9,150.3,8.4z"/>
<path id="s-05" d="M75.1,66.7c-0.4-1.3-2.1-6.2-2.1-6.5c-0.1-0.5-0.3-1.3-0.4-1.6c-1.1-3.8-1.9-8.3-2.9-12.5c-0.3-1.4-0.7-2.5-1-2.4
	c-0.3,0.1-0.5,0.5-0.7,1c-0.4,1.4,0.7,0.6,1.1,2.5c0.8,3.8,1.5,7.6,2.5,11.5c0.1,0.4,2.4,9.5,3.4,11.6c1.8,3.9,4.4,15.6,2.7,14
	c-0.2,0.4-0.2,1,0.1,1.4c0.8,0.9,1.6,1.5,1.8,1.1C81.6,82.9,76.5,71.5,75.1,66.7z"/>
<path id="s-04" d="M71.4,38.9c-0.1-0.7-1.7-1.9-2.5-1.9c-0.6,0.1-1.3,0.3-1.4,1.2c0,0.1,0,0.3-0.1,0.4c0.7-1.3,1.7-0.9,2.5,0
	c1.2,1.2-3.3,9.8-4,11.5c-1.2,2.9-2.5,5.7-4,8.4c-0.2,0.4-0.4,0.7-0.6,1.1l-0.7,1.3c-1.1,1.8-2.3,3.7-4.2,6l-0.1,0.2
	c-2.5,3.2-6.3,7.3-12.6,13.5c-5.6,5.5-3.3,8.5,0.2,4.9c6.2-6.3,8.9-10.3,12.4-15.1l1.5-2.1l0.1-0.2c1.6-2.3,3.1-4.7,4.5-7.2l0.8-1.4
	c0.5-0.9,1-1.8,1.5-2.8c0.3-0.7,2.1-3.9,3-5.9c0.5-1.2,1-2.3,1.5-3.5c0,0,0.3-0.8,0.5-1.2c0.4-1,0.6-1.5,0.9-2.5
	C71.1,42.2,71.8,40.4,71.4,38.9z"/>
<path id="s-03" d="M65.9,60.8c0.1-0.6,0.2-1.1,0.3-1.4c0.5-2.9,1-5.8,1.5-8.6c0.4-2.9,0.5-6.3,1.1-11.2c0.1-1.9,0.3-2.3,1.5-2
	c-0.5-0.3-1-0.6-1.4-0.6c-0.6,0.1-1.3,0.3-1.4,1.2c-0.4,2.4-0.5,4.5-0.8,6.7c-0.3,1.7-0.5,3.5-0.8,5.2c-0.5,2.4-1.1,5.7-1.2,6.6
	c-0.1,0.9-0.7,4.2-0.7,4.2c-0.7,3.9-1.4,7.8-2,11.7c-0.1,0.3-0.4,3.4-0.4,3.4c-1.3,9.7-2.1,20.1,1,29.5c0.3,0.8,1.5,1.7,2.2,2
	c0.5,0.2,1-0.9,1.2-1.3c0,0,0,0,0-0.1c-0.5-0.8-0.9-1.7-1.2-2.6c0,0.1-0.1,0.3-0.1,0.4c-0.1,0.3-0.5,1.3-0.9,1.8
	c-0.3-1-0.4-2.2-0.6-2.9c-0.7-3.4-0.9-6.9-1-10.3c0-5.4,0.5-10.7,1.2-16c0.1-0.5,0.1-1.1,0.2-1.5c0.2-1.6,0.5-3.2,0.7-4.8
	C64.8,67,65.4,63.9,65.9,60.8z"/>
<path id="s-02" d="M63.6,75c-0.6-0.9-2-2.9-2.2-3.2c-1.1-1.4-2.3-2.6-3.5-3.7c-0.6-0.5-1.1-0.9-1.5-1.2c-4.1-3.5-8.9-5.2-15.7-6.3
	c-2.1-0.2-5.8-0.7-9.7-0.6c-1,0.1-1.8,0.9-1.1,0.8c9.3-0.5,21.8,2.3,26.4,6.3c0.3,0.3,0.9,0.7,1.2,1c0.2,0.1,0.4,0.3,0.5,0.5
	c0.8,0.9,1.7,2,2.7,3.2l1,1.6c0.1,0.2,1.1,1.9,1.7,3.1c0.3,0.7,0.6,1.5,0.9,2.3c2.8,7.6,3.2,17.4,0.4,25.1c-0.1,0.3-0.5,1.3-0.9,1.8
	c-0.2,0.3-0.7,0.2-1,0.2c0.5,0.7,1.4,1.3,2,1.6c0.5,0.2,1-0.9,1.2-1.3c1.4-2.8,1.8-6.3,2-9.5C68.6,89.3,67.4,81.4,63.6,75z"/>
<path id="s-01" d="M95.2,41.1c-1.3-4.9-4.2-9.3-7.6-13.1c-0.7-0.7-1.6-1.7-2.1-2.2c-4.9-4.6-18.8-17.5-47-13
	c-12.6,2-32.7,12.2-36.7,27c-2.6,9.4-0.2,21.3,6.9,28.3c0.5,0.5,1.2,0.8,1.7,1.3C3.9,63,1.6,52.7,2.9,44
	c2.2-14.4,21.5-26.5,38.2-29.6c18.2-3.4,37.4,5.2,43.8,11.7l0.2,0.2c0.7,0.6,1.6,1.7,2.1,2.3c3.5,4.1,6.4,9,6.8,14.3
	c0.6,7.4-6.5,11.1-12.4,13.4C79.8,57,78,57.5,76.2,58c-0.6,0.2-1.9,0.4-2.6,0.5c-0.6,0.1-1.1,0.2-1.9,0.3c-1.9,0.3-3.6,0.5-5.5,0.6
	c-0.8,0-3.2,0.2-4.9,0.2H55c-8-0.1-16.2-1-24.2,0.3c-1.1,0.3-1.6,1-0.9,0.9c6.7-0.2,9.6-0.1,10.8-0.2c6.3-0.2,12.7,0.3,19,0.3h0.9
	c0.6,0,1.2,0,1.8,0H64c0.5,0,1.4-0.1,1.9-0.1c2.1-0.1,4.1-0.3,6.2-0.5c0.3,0,2.9-0.4,3.8-0.6c4.4-0.9,8.7-2.3,12.6-4.5
	c2.8-1.6,5.6-3.6,6.7-6.6C96.1,46.2,95.8,43.5,95.2,41.1z"/>
<text transform="matrix(1 0 0 1 5.294 107.52)" class="st0 st1 st2">NICOLA</text>
<text transform="matrix(1 0 0 1 74.794 107.52)" class="st0 st1 st2">PERNICE</text>
<path id="dot" class="st3" d="M86.5,69.8c0,1.2-1,2.3-2.3,2.3s-2.3-1.1-2.3-2.3c0-1.3,1-2.3,2.3-2.3S86.5,68.5,86.5,69.8"/>
<path id="_x30_6" class="st4" d="M80.4,86.9c-2-0.9-4-2.4-4.7-3.7c-2.5-4.7-1.9-16-1.3-21.3c0.8-7.5,5.3-29.1,17.1-42.2
	c4-4.4,16.8-13.3,21.6-15.3c3.3-1.4,10.4-2.6,13.9-2.8c3-0.2,9,0.1,11.9,1.1c3.9,1.4,14.5,8.3,14.5,8.3"/>
<path id="_x30_5" class="st5" d="M67.3,42.7c0,0,5,18.6,7.3,25.3c1.3,4,5.1,13.3,4.8,18.1c-0.1,0.9-2.8-1.6-2.8-1.6"/>
<path id="_x30_4" class="st4" d="M67,38.5c0.8-1,2.7-3.7,3.2-2.9c3.8,5.3-5.4,21.1-8.7,26.8c-4.1,7.1-22,24.7-22,24.7"/>
<path id="_x30_3" class="st4" d="M67.2,103.6c-2.6,4.1-4.3,2.6-4.7,1.3c-3.7-10.7-0.7-30.3,1.5-41.2c1.3-6.7,5-27.6,5-27.6"/>
<path id="_x30_2" class="st4" d="M28.8,60c13-3.3,29,6.8,34.4,14.4c4.8,6.8,6.7,25.8,0.4,33.3"/>
<path id="_x30_1" class="st4" d="M11.4,71.2c0,0-8.5-11.1-9.8-16.4C0.4,49.6,2.1,38.1,9,30.3c8.5-9.7,26.1-19.3,44.5-17.6
	C68.3,14,95.8,24.7,95,46.2c-0.3,7.3-17.5,14.2-28.2,14.3c-11.3,0.1-22.3-1.8-38.2,0.5"/>
</svg>
