<svg width="677" height="387" viewBox="0 0 677 387" fill="none" xmlns="http://www.w3.org/2000/svg">
<circle cx="271" cy="129" r="128.5" stroke="white"/>
<circle cx="403" cy="129" r="128.5" stroke="white"/>
<circle cx="337" cy="258" r="128.5" stroke="white"/>
<path d="M4.94824 85H2.27637L2.29395 83.6201H4.94824C5.8623 83.6201 6.62402 83.4297 7.2334 83.0488C7.84277 82.6621 8.2998 82.123 8.60449 81.4316C8.91504 80.7344 9.07031 79.9199 9.07031 78.9883V78.2061C9.07031 77.4736 8.98242 76.8232 8.80664 76.2549C8.63086 75.6807 8.37305 75.1973 8.0332 74.8047C7.69336 74.4062 7.27734 74.1045 6.78516 73.8994C6.29883 73.6943 5.73926 73.5918 5.10645 73.5918H2.22363V72.2031H5.10645C5.94434 72.2031 6.70898 72.3438 7.40039 72.625C8.0918 72.9004 8.68652 73.3018 9.18457 73.8291C9.68848 74.3506 10.0752 74.9834 10.3447 75.7275C10.6143 76.4658 10.749 77.2979 10.749 78.2236V78.9883C10.749 79.9141 10.6143 80.749 10.3447 81.4932C10.0752 82.2314 9.68555 82.8613 9.17578 83.3828C8.67188 83.9043 8.0625 84.3057 7.34766 84.5869C6.63867 84.8623 5.83887 85 4.94824 85ZM3.18164 72.2031V85H1.48535V72.2031H3.18164ZM16.998 85.1758C16.3359 85.1758 15.7354 85.0645 15.1963 84.8418C14.6631 84.6133 14.2031 84.2939 13.8164 83.8838C13.4355 83.4736 13.1426 82.9873 12.9375 82.4248C12.7324 81.8623 12.6299 81.2471 12.6299 80.5791V80.21C12.6299 79.4365 12.7441 78.748 12.9727 78.1445C13.2012 77.5352 13.5117 77.0195 13.9043 76.5977C14.2969 76.1758 14.7422 75.8564 15.2402 75.6396C15.7383 75.4229 16.2539 75.3145 16.7871 75.3145C17.4668 75.3145 18.0527 75.4316 18.5449 75.666C19.043 75.9004 19.4502 76.2285 19.7666 76.6504C20.083 77.0664 20.3174 77.5586 20.4697 78.127C20.6221 78.6895 20.6982 79.3047 20.6982 79.9727V80.7021H13.5967V79.375H19.0723V79.252C19.0488 78.8301 18.9609 78.4199 18.8086 78.0215C18.6621 77.623 18.4277 77.2949 18.1055 77.0371C17.7832 76.7793 17.3438 76.6504 16.7871 76.6504C16.418 76.6504 16.0781 76.7295 15.7676 76.8877C15.457 77.04 15.1904 77.2686 14.9678 77.5732C14.7451 77.8779 14.5723 78.25 14.4492 78.6895C14.3262 79.1289 14.2646 79.6357 14.2646 80.21V80.5791C14.2646 81.0303 14.3262 81.4551 14.4492 81.8535C14.5781 82.2461 14.7627 82.5918 15.0029 82.8906C15.249 83.1895 15.5449 83.4238 15.8906 83.5938C16.2422 83.7637 16.6406 83.8486 17.0859 83.8486C17.6602 83.8486 18.1465 83.7314 18.5449 83.4971C18.9434 83.2627 19.292 82.9492 19.5908 82.5566L20.5752 83.3389C20.3701 83.6494 20.1094 83.9453 19.793 84.2266C19.4766 84.5078 19.0869 84.7363 18.624 84.9121C18.167 85.0879 17.625 85.1758 16.998 85.1758ZM28.1338 82.4775C28.1338 82.2432 28.0811 82.0264 27.9756 81.8271C27.876 81.6221 27.668 81.4375 27.3516 81.2734C27.041 81.1035 26.5723 80.957 25.9453 80.834C25.418 80.7227 24.9404 80.5908 24.5127 80.4385C24.0908 80.2861 23.7305 80.1016 23.4316 79.8848C23.1387 79.668 22.9131 79.4131 22.7549 79.1201C22.5967 78.8271 22.5176 78.4844 22.5176 78.0918C22.5176 77.7168 22.5996 77.3623 22.7637 77.0283C22.9336 76.6943 23.1709 76.3984 23.4756 76.1406C23.7861 75.8828 24.1582 75.6807 24.5918 75.5342C25.0254 75.3877 25.5088 75.3145 26.042 75.3145C26.8037 75.3145 27.4541 75.4492 27.9932 75.7188C28.5322 75.9883 28.9453 76.3486 29.2324 76.7998C29.5195 77.2451 29.6631 77.7402 29.6631 78.2852H28.0371C28.0371 78.0215 27.958 77.7666 27.7998 77.5205C27.6475 77.2686 27.4219 77.0605 27.123 76.8965C26.8301 76.7324 26.4697 76.6504 26.042 76.6504C25.5908 76.6504 25.2246 76.7207 24.9434 76.8613C24.668 76.9961 24.4658 77.1689 24.3369 77.3799C24.2139 77.5908 24.1523 77.8135 24.1523 78.0479C24.1523 78.2236 24.1816 78.3818 24.2402 78.5225C24.3047 78.6572 24.416 78.7832 24.5742 78.9004C24.7324 79.0117 24.9551 79.1172 25.2422 79.2168C25.5293 79.3164 25.8955 79.416 26.3408 79.5156C27.1201 79.6914 27.7617 79.9023 28.2656 80.1484C28.7695 80.3945 29.1445 80.6963 29.3906 81.0537C29.6367 81.4111 29.7598 81.8447 29.7598 82.3545C29.7598 82.7705 29.6719 83.1514 29.4961 83.4971C29.3262 83.8428 29.0771 84.1416 28.749 84.3936C28.4268 84.6396 28.04 84.833 27.5889 84.9736C27.1436 85.1084 26.6426 85.1758 26.0859 85.1758C25.248 85.1758 24.5391 85.0264 23.959 84.7275C23.3789 84.4287 22.9395 84.042 22.6406 83.5674C22.3418 83.0928 22.1924 82.5918 22.1924 82.0645H23.8271C23.8506 82.5098 23.9795 82.8643 24.2139 83.1279C24.4482 83.3857 24.7354 83.5703 25.0752 83.6816C25.415 83.7871 25.752 83.8398 26.0859 83.8398C26.5312 83.8398 26.9033 83.7812 27.2021 83.6641C27.5068 83.5469 27.7383 83.3857 27.8965 83.1807C28.0547 82.9756 28.1338 82.7412 28.1338 82.4775ZM33.6621 75.4902V85H32.0273V75.4902H33.6621ZM31.9043 72.9678C31.9043 72.7041 31.9834 72.4814 32.1416 72.2998C32.3057 72.1182 32.5459 72.0273 32.8623 72.0273C33.1729 72.0273 33.4102 72.1182 33.5742 72.2998C33.7441 72.4814 33.8291 72.7041 33.8291 72.9678C33.8291 73.2197 33.7441 73.4365 33.5742 73.6182C33.4102 73.7939 33.1729 73.8818 32.8623 73.8818C32.5459 73.8818 32.3057 73.7939 32.1416 73.6182C31.9834 73.4365 31.9043 73.2197 31.9043 72.9678ZM42.4336 75.4902H43.9102V84.7979C43.9102 85.6357 43.7402 86.3506 43.4004 86.9424C43.0605 87.5342 42.5859 87.9824 41.9766 88.2871C41.373 88.5977 40.6758 88.7529 39.8848 88.7529C39.5566 88.7529 39.1699 88.7002 38.7246 88.5947C38.2852 88.4951 37.8516 88.3223 37.4238 88.0762C37.002 87.8359 36.6475 87.5107 36.3604 87.1006L37.2129 86.1338C37.6113 86.6143 38.0273 86.9482 38.4609 87.1357C38.9004 87.3232 39.334 87.417 39.7617 87.417C40.2773 87.417 40.7227 87.3203 41.0977 87.127C41.4727 86.9336 41.7627 86.6465 41.9678 86.2656C42.1787 85.8906 42.2842 85.4277 42.2842 84.877V77.582L42.4336 75.4902ZM35.8857 80.3506V80.166C35.8857 79.4395 35.9707 78.7803 36.1406 78.1885C36.3164 77.5908 36.5654 77.0781 36.8877 76.6504C37.2158 76.2227 37.6113 75.8945 38.0742 75.666C38.5371 75.4316 39.0586 75.3145 39.6387 75.3145C40.2363 75.3145 40.7578 75.4199 41.2031 75.6309C41.6543 75.8359 42.0352 76.1377 42.3457 76.5361C42.6621 76.9287 42.9111 77.4033 43.0928 77.96C43.2744 78.5166 43.4004 79.1465 43.4707 79.8496V80.6582C43.4062 81.3555 43.2803 81.9824 43.0928 82.5391C42.9111 83.0957 42.6621 83.5703 42.3457 83.9629C42.0352 84.3555 41.6543 84.6572 41.2031 84.8682C40.752 85.0732 40.2246 85.1758 39.6211 85.1758C39.0527 85.1758 38.5371 85.0557 38.0742 84.8154C37.6172 84.5752 37.2246 84.2383 36.8965 83.8047C36.5684 83.3711 36.3164 82.8613 36.1406 82.2754C35.9707 81.6836 35.8857 81.042 35.8857 80.3506ZM37.5117 80.166V80.3506C37.5117 80.8252 37.5586 81.2705 37.6523 81.6865C37.752 82.1025 37.9014 82.4688 38.1006 82.7852C38.3057 83.1016 38.5664 83.3506 38.8828 83.5322C39.1992 83.708 39.5771 83.7959 40.0166 83.7959C40.5557 83.7959 41.001 83.6816 41.3525 83.4531C41.7041 83.2246 41.9824 82.9229 42.1875 82.5479C42.3984 82.1729 42.5625 81.7656 42.6797 81.3262V79.208C42.6152 78.8857 42.5156 78.5752 42.3809 78.2764C42.252 77.9717 42.082 77.7021 41.8711 77.4678C41.666 77.2275 41.4111 77.0371 41.1064 76.8965C40.8018 76.7559 40.4443 76.6855 40.0342 76.6855C39.5889 76.6855 39.2051 76.7793 38.8828 76.9668C38.5664 77.1484 38.3057 77.4004 38.1006 77.7227C37.9014 78.0391 37.752 78.4082 37.6523 78.8301C37.5586 79.2461 37.5117 79.6914 37.5117 80.166ZM48.0059 77.5205V85H46.3799V75.4902H47.918L48.0059 77.5205ZM47.6191 79.8848L46.9424 79.8584C46.9482 79.208 47.0449 78.6074 47.2324 78.0566C47.4199 77.5 47.6836 77.0166 48.0234 76.6064C48.3633 76.1963 48.7676 75.8799 49.2363 75.6572C49.7109 75.4287 50.2354 75.3145 50.8096 75.3145C51.2783 75.3145 51.7002 75.3789 52.0752 75.5078C52.4502 75.6309 52.7695 75.8301 53.0332 76.1055C53.3027 76.3809 53.5078 76.7383 53.6484 77.1777C53.7891 77.6113 53.8594 78.1416 53.8594 78.7686V85H52.2246V78.751C52.2246 78.2529 52.1514 77.8545 52.0049 77.5557C51.8584 77.251 51.6445 77.0312 51.3633 76.8965C51.082 76.7559 50.7363 76.6855 50.3262 76.6855C49.9219 76.6855 49.5527 76.7705 49.2188 76.9404C48.8906 77.1104 48.6064 77.3447 48.3662 77.6436C48.1318 77.9424 47.9473 78.2852 47.8125 78.6719C47.6836 79.0527 47.6191 79.457 47.6191 79.8848Z" fill="white"/>
<path d="M622.211 16.9307H623.898C623.811 17.7393 623.579 18.4629 623.204 19.1016C622.829 19.7402 622.299 20.2471 621.613 20.6221C620.928 20.9912 620.072 21.1758 619.047 21.1758C618.297 21.1758 617.614 21.0352 616.999 20.7539C616.39 20.4727 615.865 20.0742 615.426 19.5586C614.986 19.0371 614.646 18.4131 614.406 17.6865C614.172 16.9541 614.055 16.1396 614.055 15.2432V13.9688C614.055 13.0723 614.172 12.2607 614.406 11.5342C614.646 10.8018 614.989 10.1748 615.435 9.65332C615.886 9.13184 616.428 8.73047 617.061 8.44922C617.693 8.16797 618.405 8.02734 619.196 8.02734C620.163 8.02734 620.98 8.20898 621.648 8.57227C622.316 8.93555 622.835 9.43945 623.204 10.084C623.579 10.7227 623.811 11.4639 623.898 12.3076H622.211C622.129 11.71 621.977 11.1973 621.754 10.7695C621.531 10.3359 621.215 10.002 620.805 9.76758C620.395 9.5332 619.858 9.41602 619.196 9.41602C618.628 9.41602 618.127 9.52441 617.693 9.74121C617.266 9.95801 616.905 10.2656 616.612 10.6641C616.325 11.0625 616.108 11.54 615.962 12.0967C615.815 12.6533 615.742 13.2715 615.742 13.9512V15.2432C615.742 15.8701 615.807 16.459 615.936 17.0098C616.07 17.5605 616.272 18.0439 616.542 18.46C616.812 18.876 617.154 19.2041 617.57 19.4443C617.986 19.6787 618.479 19.7959 619.047 19.7959C619.768 19.7959 620.342 19.6816 620.77 19.4531C621.197 19.2246 621.52 18.8965 621.736 18.4688C621.959 18.041 622.117 17.5283 622.211 16.9307ZM625.533 16.3506V16.1484C625.533 15.4629 625.633 14.8271 625.832 14.2412C626.031 13.6494 626.318 13.1367 626.693 12.7031C627.068 12.2637 627.522 11.9238 628.056 11.6836C628.589 11.4375 629.187 11.3145 629.849 11.3145C630.517 11.3145 631.117 11.4375 631.65 11.6836C632.189 11.9238 632.646 12.2637 633.021 12.7031C633.402 13.1367 633.692 13.6494 633.892 14.2412C634.091 14.8271 634.19 15.4629 634.19 16.1484V16.3506C634.19 17.0361 634.091 17.6719 633.892 18.2578C633.692 18.8438 633.402 19.3564 633.021 19.7959C632.646 20.2295 632.192 20.5693 631.659 20.8154C631.132 21.0557 630.534 21.1758 629.866 21.1758C629.198 21.1758 628.598 21.0557 628.064 20.8154C627.531 20.5693 627.074 20.2295 626.693 19.7959C626.318 19.3564 626.031 18.8438 625.832 18.2578C625.633 17.6719 625.533 17.0361 625.533 16.3506ZM627.159 16.1484V16.3506C627.159 16.8252 627.215 17.2734 627.326 17.6953C627.438 18.1113 627.604 18.4805 627.827 18.8027C628.056 19.125 628.34 19.3799 628.68 19.5674C629.02 19.749 629.415 19.8398 629.866 19.8398C630.312 19.8398 630.701 19.749 631.035 19.5674C631.375 19.3799 631.656 19.125 631.879 18.8027C632.102 18.4805 632.269 18.1113 632.38 17.6953C632.497 17.2734 632.556 16.8252 632.556 16.3506V16.1484C632.556 15.6797 632.497 15.2373 632.38 14.8213C632.269 14.3994 632.099 14.0273 631.87 13.7051C631.647 13.377 631.366 13.1191 631.026 12.9316C630.692 12.7441 630.3 12.6504 629.849 12.6504C629.403 12.6504 629.011 12.7441 628.671 12.9316C628.337 13.1191 628.056 13.377 627.827 13.7051C627.604 14.0273 627.438 14.3994 627.326 14.8213C627.215 15.2373 627.159 15.6797 627.159 16.1484ZM637.855 13.5205V21H636.229V11.4902H637.768L637.855 13.5205ZM637.469 15.8848L636.792 15.8584C636.798 15.208 636.895 14.6074 637.082 14.0566C637.27 13.5 637.533 13.0166 637.873 12.6064C638.213 12.1963 638.617 11.8799 639.086 11.6572C639.561 11.4287 640.085 11.3145 640.659 11.3145C641.128 11.3145 641.55 11.3789 641.925 11.5078C642.3 11.6309 642.619 11.8301 642.883 12.1055C643.152 12.3809 643.357 12.7383 643.498 13.1777C643.639 13.6113 643.709 14.1416 643.709 14.7686V21H642.074V14.751C642.074 14.2529 642.001 13.8545 641.854 13.5557C641.708 13.251 641.494 13.0312 641.213 12.8965C640.932 12.7559 640.586 12.6855 640.176 12.6855C639.771 12.6855 639.402 12.7705 639.068 12.9404C638.74 13.1104 638.456 13.3447 638.216 13.6436C637.981 13.9424 637.797 14.2852 637.662 14.6719C637.533 15.0527 637.469 15.457 637.469 15.8848ZM650.16 11.4902V12.7383H645.019V11.4902H650.16ZM646.759 9.17871H648.385V18.6445C648.385 18.9668 648.435 19.21 648.534 19.374C648.634 19.5381 648.763 19.6465 648.921 19.6992C649.079 19.752 649.249 19.7783 649.431 19.7783C649.565 19.7783 649.706 19.7666 649.853 19.7432C650.005 19.7139 650.119 19.6904 650.195 19.6729L650.204 21C650.075 21.041 649.905 21.0791 649.694 21.1143C649.489 21.1553 649.24 21.1758 648.947 21.1758C648.549 21.1758 648.183 21.0967 647.849 20.9385C647.515 20.7803 647.248 20.5166 647.049 20.1475C646.855 19.7725 646.759 19.2686 646.759 18.6357V9.17871ZM656.014 21.1758C655.352 21.1758 654.751 21.0645 654.212 20.8418C653.679 20.6133 653.219 20.2939 652.832 19.8838C652.451 19.4736 652.158 18.9873 651.953 18.4248C651.748 17.8623 651.646 17.2471 651.646 16.5791V16.21C651.646 15.4365 651.76 14.748 651.988 14.1445C652.217 13.5352 652.527 13.0195 652.92 12.5977C653.312 12.1758 653.758 11.8564 654.256 11.6396C654.754 11.4229 655.27 11.3145 655.803 11.3145C656.482 11.3145 657.068 11.4316 657.561 11.666C658.059 11.9004 658.466 12.2285 658.782 12.6504C659.099 13.0664 659.333 13.5586 659.485 14.127C659.638 14.6895 659.714 15.3047 659.714 15.9727V16.7021H652.612V15.375H658.088V15.252C658.064 14.8301 657.977 14.4199 657.824 14.0215C657.678 13.623 657.443 13.2949 657.121 13.0371C656.799 12.7793 656.359 12.6504 655.803 12.6504C655.434 12.6504 655.094 12.7295 654.783 12.8877C654.473 13.04 654.206 13.2686 653.983 13.5732C653.761 13.8779 653.588 14.25 653.465 14.6895C653.342 15.1289 653.28 15.6357 653.28 16.21V16.5791C653.28 17.0303 653.342 17.4551 653.465 17.8535C653.594 18.2461 653.778 18.5918 654.019 18.8906C654.265 19.1895 654.561 19.4238 654.906 19.5938C655.258 19.7637 655.656 19.8486 656.102 19.8486C656.676 19.8486 657.162 19.7314 657.561 19.4971C657.959 19.2627 658.308 18.9492 658.606 18.5566L659.591 19.3389C659.386 19.6494 659.125 19.9453 658.809 20.2266C658.492 20.5078 658.103 20.7363 657.64 20.9121C657.183 21.0879 656.641 21.1758 656.014 21.1758ZM663.238 13.5205V21H661.612V11.4902H663.15L663.238 13.5205ZM662.852 15.8848L662.175 15.8584C662.181 15.208 662.277 14.6074 662.465 14.0566C662.652 13.5 662.916 13.0166 663.256 12.6064C663.596 12.1963 664 11.8799 664.469 11.6572C664.943 11.4287 665.468 11.3145 666.042 11.3145C666.511 11.3145 666.933 11.3789 667.308 11.5078C667.683 11.6309 668.002 11.8301 668.266 12.1055C668.535 12.3809 668.74 12.7383 668.881 13.1777C669.021 13.6113 669.092 14.1416 669.092 14.7686V21H667.457V14.751C667.457 14.2529 667.384 13.8545 667.237 13.5557C667.091 13.251 666.877 13.0312 666.596 12.8965C666.314 12.7559 665.969 12.6855 665.559 12.6855C665.154 12.6855 664.785 12.7705 664.451 12.9404C664.123 13.1104 663.839 13.3447 663.599 13.6436C663.364 13.9424 663.18 14.2852 663.045 14.6719C662.916 15.0527 662.852 15.457 662.852 15.8848ZM675.543 11.4902V12.7383H670.401V11.4902H675.543ZM672.142 9.17871H673.768V18.6445C673.768 18.9668 673.817 19.21 673.917 19.374C674.017 19.5381 674.146 19.6465 674.304 19.6992C674.462 19.752 674.632 19.7783 674.813 19.7783C674.948 19.7783 675.089 19.7666 675.235 19.7432C675.388 19.7139 675.502 19.6904 675.578 19.6729L675.587 21C675.458 21.041 675.288 21.0791 675.077 21.1143C674.872 21.1553 674.623 21.1758 674.33 21.1758C673.932 21.1758 673.565 21.0967 673.231 20.9385C672.897 20.7803 672.631 20.5166 672.432 20.1475C672.238 19.7725 672.142 19.2686 672.142 18.6357V9.17871Z" fill="white"/>
<path d="M564.214 281.203V294H562.544V281.203H564.214ZM568.327 281.203V282.592H558.439V281.203H568.327ZM573.047 294.176C572.385 294.176 571.784 294.064 571.245 293.842C570.712 293.613 570.252 293.294 569.865 292.884C569.484 292.474 569.191 291.987 568.986 291.425C568.781 290.862 568.679 290.247 568.679 289.579V289.21C568.679 288.437 568.793 287.748 569.021 287.145C569.25 286.535 569.561 286.02 569.953 285.598C570.346 285.176 570.791 284.856 571.289 284.64C571.787 284.423 572.303 284.314 572.836 284.314C573.516 284.314 574.102 284.432 574.594 284.666C575.092 284.9 575.499 285.229 575.815 285.65C576.132 286.066 576.366 286.559 576.519 287.127C576.671 287.689 576.747 288.305 576.747 288.973V289.702H569.646V288.375H575.121V288.252C575.098 287.83 575.01 287.42 574.857 287.021C574.711 286.623 574.477 286.295 574.154 286.037C573.832 285.779 573.393 285.65 572.836 285.65C572.467 285.65 572.127 285.729 571.816 285.888C571.506 286.04 571.239 286.269 571.017 286.573C570.794 286.878 570.621 287.25 570.498 287.689C570.375 288.129 570.313 288.636 570.313 289.21V289.579C570.313 290.03 570.375 290.455 570.498 290.854C570.627 291.246 570.812 291.592 571.052 291.891C571.298 292.189 571.594 292.424 571.939 292.594C572.291 292.764 572.689 292.849 573.135 292.849C573.709 292.849 574.195 292.731 574.594 292.497C574.992 292.263 575.341 291.949 575.64 291.557L576.624 292.339C576.419 292.649 576.158 292.945 575.842 293.227C575.525 293.508 575.136 293.736 574.673 293.912C574.216 294.088 573.674 294.176 573.047 294.176ZM582.451 292.84C582.838 292.84 583.195 292.761 583.523 292.603C583.852 292.444 584.121 292.228 584.332 291.952C584.543 291.671 584.663 291.352 584.692 290.994H586.239C586.21 291.557 586.02 292.081 585.668 292.567C585.322 293.048 584.868 293.438 584.306 293.736C583.743 294.029 583.125 294.176 582.451 294.176C581.736 294.176 581.112 294.05 580.579 293.798C580.052 293.546 579.612 293.2 579.261 292.761C578.915 292.321 578.654 291.817 578.479 291.249C578.309 290.675 578.224 290.068 578.224 289.43V289.061C578.224 288.422 578.309 287.818 578.479 287.25C578.654 286.676 578.915 286.169 579.261 285.729C579.612 285.29 580.052 284.944 580.579 284.692C581.112 284.44 581.736 284.314 582.451 284.314C583.195 284.314 583.846 284.467 584.402 284.771C584.959 285.07 585.396 285.48 585.712 286.002C586.034 286.518 586.21 287.104 586.239 287.76H584.692C584.663 287.367 584.552 287.013 584.358 286.696C584.171 286.38 583.913 286.128 583.585 285.94C583.263 285.747 582.885 285.65 582.451 285.65C581.953 285.65 581.534 285.75 581.194 285.949C580.86 286.143 580.594 286.406 580.395 286.74C580.201 287.068 580.061 287.435 579.973 287.839C579.891 288.237 579.85 288.645 579.85 289.061V289.43C579.85 289.846 579.891 290.256 579.973 290.66C580.055 291.064 580.192 291.431 580.386 291.759C580.585 292.087 580.852 292.351 581.186 292.55C581.525 292.743 581.947 292.84 582.451 292.84ZM589.693 280.5V294H588.067V280.5H589.693ZM589.307 288.885L588.63 288.858C588.636 288.208 588.732 287.607 588.92 287.057C589.107 286.5 589.371 286.017 589.711 285.606C590.051 285.196 590.455 284.88 590.924 284.657C591.398 284.429 591.923 284.314 592.497 284.314C592.966 284.314 593.388 284.379 593.763 284.508C594.138 284.631 594.457 284.83 594.721 285.105C594.99 285.381 595.195 285.738 595.336 286.178C595.477 286.611 595.547 287.142 595.547 287.769V294H593.912V287.751C593.912 287.253 593.839 286.854 593.692 286.556C593.546 286.251 593.332 286.031 593.051 285.896C592.77 285.756 592.424 285.686 592.014 285.686C591.609 285.686 591.24 285.771 590.906 285.94C590.578 286.11 590.294 286.345 590.054 286.644C589.819 286.942 589.635 287.285 589.5 287.672C589.371 288.053 589.307 288.457 589.307 288.885ZM599.607 286.521V294H597.981V284.49H599.52L599.607 286.521ZM599.221 288.885L598.544 288.858C598.55 288.208 598.646 287.607 598.834 287.057C599.021 286.5 599.285 286.017 599.625 285.606C599.965 285.196 600.369 284.88 600.838 284.657C601.312 284.429 601.837 284.314 602.411 284.314C602.88 284.314 603.302 284.379 603.677 284.508C604.052 284.631 604.371 284.83 604.635 285.105C604.904 285.381 605.109 285.738 605.25 286.178C605.391 286.611 605.461 287.142 605.461 287.769V294H603.826V287.751C603.826 287.253 603.753 286.854 603.606 286.556C603.46 286.251 603.246 286.031 602.965 285.896C602.684 285.756 602.338 285.686 601.928 285.686C601.523 285.686 601.154 285.771 600.82 285.94C600.492 286.11 600.208 286.345 599.968 286.644C599.733 286.942 599.549 287.285 599.414 287.672C599.285 288.053 599.221 288.457 599.221 288.885ZM609.697 284.49V294H608.062V284.49H609.697ZM607.939 281.968C607.939 281.704 608.019 281.481 608.177 281.3C608.341 281.118 608.581 281.027 608.897 281.027C609.208 281.027 609.445 281.118 609.609 281.3C609.779 281.481 609.864 281.704 609.864 281.968C609.864 282.22 609.779 282.437 609.609 282.618C609.445 282.794 609.208 282.882 608.897 282.882C608.581 282.882 608.341 282.794 608.177 282.618C608.019 282.437 607.939 282.22 607.939 281.968ZM616.113 292.84C616.5 292.84 616.857 292.761 617.186 292.603C617.514 292.444 617.783 292.228 617.994 291.952C618.205 291.671 618.325 291.352 618.354 290.994H619.901C619.872 291.557 619.682 292.081 619.33 292.567C618.984 293.048 618.53 293.438 617.968 293.736C617.405 294.029 616.787 294.176 616.113 294.176C615.398 294.176 614.774 294.05 614.241 293.798C613.714 293.546 613.274 293.2 612.923 292.761C612.577 292.321 612.316 291.817 612.141 291.249C611.971 290.675 611.886 290.068 611.886 289.43V289.061C611.886 288.422 611.971 287.818 612.141 287.25C612.316 286.676 612.577 286.169 612.923 285.729C613.274 285.29 613.714 284.944 614.241 284.692C614.774 284.44 615.398 284.314 616.113 284.314C616.857 284.314 617.508 284.467 618.064 284.771C618.621 285.07 619.058 285.48 619.374 286.002C619.696 286.518 619.872 287.104 619.901 287.76H618.354C618.325 287.367 618.214 287.013 618.021 286.696C617.833 286.38 617.575 286.128 617.247 285.94C616.925 285.747 616.547 285.65 616.113 285.65C615.615 285.65 615.196 285.75 614.856 285.949C614.522 286.143 614.256 286.406 614.057 286.74C613.863 287.068 613.723 287.435 613.635 287.839C613.553 288.237 613.512 288.645 613.512 289.061V289.43C613.512 289.846 613.553 290.256 613.635 290.66C613.717 291.064 613.854 291.431 614.048 291.759C614.247 292.087 614.514 292.351 614.848 292.55C615.188 292.743 615.609 292.84 616.113 292.84ZM627.337 292.374V287.479C627.337 287.104 627.261 286.778 627.108 286.503C626.962 286.222 626.739 286.005 626.44 285.853C626.142 285.7 625.772 285.624 625.333 285.624C624.923 285.624 624.562 285.694 624.252 285.835C623.947 285.976 623.707 286.16 623.531 286.389C623.361 286.617 623.276 286.863 623.276 287.127H621.65C621.65 286.787 621.738 286.45 621.914 286.116C622.09 285.782 622.342 285.48 622.67 285.211C623.004 284.936 623.402 284.719 623.865 284.561C624.334 284.396 624.855 284.314 625.43 284.314C626.121 284.314 626.73 284.432 627.258 284.666C627.791 284.9 628.207 285.255 628.506 285.729C628.811 286.198 628.963 286.787 628.963 287.496V291.926C628.963 292.242 628.989 292.579 629.042 292.937C629.101 293.294 629.186 293.602 629.297 293.859V294H627.601C627.519 293.812 627.454 293.563 627.407 293.253C627.36 292.937 627.337 292.644 627.337 292.374ZM627.618 288.234L627.636 289.377H625.992C625.529 289.377 625.116 289.415 624.753 289.491C624.39 289.562 624.085 289.67 623.839 289.816C623.593 289.963 623.405 290.147 623.276 290.37C623.147 290.587 623.083 290.842 623.083 291.135C623.083 291.434 623.15 291.706 623.285 291.952C623.42 292.198 623.622 292.395 623.892 292.541C624.167 292.682 624.504 292.752 624.902 292.752C625.4 292.752 625.84 292.646 626.221 292.436C626.602 292.225 626.903 291.967 627.126 291.662C627.354 291.357 627.478 291.062 627.495 290.774L628.189 291.557C628.148 291.803 628.037 292.075 627.855 292.374C627.674 292.673 627.431 292.96 627.126 293.235C626.827 293.505 626.47 293.73 626.054 293.912C625.644 294.088 625.181 294.176 624.665 294.176C624.021 294.176 623.455 294.05 622.969 293.798C622.488 293.546 622.113 293.209 621.844 292.787C621.58 292.359 621.448 291.882 621.448 291.354C621.448 290.845 621.548 290.396 621.747 290.01C621.946 289.617 622.233 289.292 622.608 289.034C622.983 288.771 623.435 288.571 623.962 288.437C624.489 288.302 625.078 288.234 625.729 288.234H627.618ZM633.287 280.5V294H631.652V280.5H633.287Z" fill="white"/>
<path d="M18 107.5H131H208.5" stroke="white"/>
<path d="M337 315H491.226H597" stroke="white"/>
<path d="M466 108L533 41H628.5" stroke="white"/>
<circle cx="207.5" cy="107.5" r="6.5" fill="white"/>
<circle cx="460.5" cy="112.5" r="6.5" fill="white"/>
<circle cx="336.5" cy="315.5" r="6.5" fill="white"/>
<circle cx="628.5" cy="41.5" r="6.5" fill="white"/>
<circle cx="596.5" cy="315.5" r="6.5" fill="white"/>
<circle cx="16.5" cy="107.5" r="6.5" fill="white"/>
</svg>
