<?xml version="1.0" encoding="utf-8"?>
<!-- Generator: Adobe Illustrator 20.0.0, SVG Export Plug-In . SVG Version: 6.00 Build 0)  -->
<svg version="1.1" id="Layer_1" xmlns="http://www.w3.org/2000/svg" xmlns:xlink="http://www.w3.org/1999/xlink" x="0px" y="0px"
	 viewBox="0 0 85.9 30.7" style="enable-background:new 0 0 85.9 30.7;" xml:space="preserve">
<style type="text/css">
	.st0{fill:#3C3C3B;}
</style>
<title>The Times symbol</title>
<g>
	<path class="st0" d="M65.3,26.5c-0.2,0.4-0.6,0.1-0.6,0.1l-0.5-2c0,0,0.3,0.1,0.5,0.2c0.2,0.1,0.5,0.4,0.6,0.7
		C65.4,25.7,65.5,26.1,65.3,26.5 M64.5,24.3c-0.4-0.1-1.6-0.4-1.6-0.4l0,0.1l0.1,0.2c0,0,0.4,0.1,0.4,0.2c0,0.1,0.4,1.7,0.5,1.9
		c0,0.1-0.4,0.1-0.4,0.1v0.2c0,0,1.1,0.3,1.5,0.4c0.4,0.1,1.3,0,1.3-0.6c0-0.5-0.3-1.3-0.5-1.4C65.4,24.7,64.9,24.4,64.5,24.3
		 M71.1,8.9c-0.2,0.4-0.3,0.6-0.7,0.6c-0.4,0-1.3,0-1.8,0c-0.4,0-1.1,0.2-1.1,0.2l0.3,1.1c0,0,0.5-0.1,1.1,0.1
		c0.6,0.1,0.4,0.2,0.7,0.4c0.3,0.2,0.7,0.4,1.3,0.3c0.6,0,0.8-0.4,1.2-0.6c0.4-0.2,1.2-0.2,1.2-0.2l-0.1-0.4c0,0-0.7-0.2-1.1-0.1
		c-0.4,0.1-0.8,0.8-1.3,0.8c-0.5,0-0.2-0.4-0.5-0.5c-0.3-0.1-1.5-0.5-1.5-0.5s1.7,0.3,2-0.2s0.4-1,0.7-1.1c0.4,0,1.4,0,1.4,0
		l-0.2-0.4c0,0-0.5-0.1-0.7-0.1C71.9,8.5,71.3,8.5,71.1,8.9 M71.8,27.8c-0.2,0-0.5-0.2-0.6-0.4c-0.1-0.2-0.4-1.1-0.4-1.4
		c-0.1-0.2,0-0.4,0.2-0.4c0,0,0.4,0.1,0.5,0.3c0.1,0.2,0.4,1.1,0.5,1.4C72.1,27.6,72,27.8,71.8,27.8 M72.1,25.9
		c-0.3-0.3-1-0.5-1.3-0.5c0,0-0.1,0-0.5,0c-0.4,0.1-0.5,0.5-0.5,0.8c0.1,0.2,0.3,1,0.5,1.3s0.9,0.7,1.6,0.7c0.8,0,0.9-0.7,0.8-1
		C72.6,26.9,72.4,26.2,72.1,25.9 M68.4,26.1c-0.3,0-0.7-0.1-0.7-0.1l-0.3-0.8c0,0,0.5,0.1,0.8,0.2S68.7,26.1,68.4,26.1 M70,27.8
		c-0.1-0.1-0.3-0.4-0.5-0.7c-0.2-0.3-0.6-0.6-0.6-0.6s0.6-0.2,0.5-0.5c0-0.3-0.8-0.8-1.3-0.9S66,24.6,66,24.6l0.1,0.3
		c0,0,0.3,0.1,0.4,0.3c0.1,0.3,0.6,1.5,0.7,1.7c0.1,0.2-0.2,0.2-0.3,0.2c-0.1,0,0,0.2,0,0.2l1.5,0.2l-0.1-0.3c0,0-0.3-0.1-0.3-0.2
		c0-0.1-0.2-0.6-0.2-0.7c0-0.1,0.3,0,0.5,0.1c0.2,0.2,0.5,0.5,0.5,0.6c0,0.1,0.6,0.7,0.8,0.7c0.3,0.1,0.5,0.2,0.6,0
		C70.3,28,70.1,28,70,27.8"/>
	<path class="st0" d="M72.6,11c-0.3,0.1-0.7,0.6-1,0.8c-0.3,0.2-1,0.3-1.6,0.2c-0.6-0.1-1.7,0.1-1.7,0.1l0,1.5c0,0,0.5,0.1,0.8,0.1
		c0.3,0.1,1.3,0.4,1.6,0.4c0.3,0,0.8-0.2,1.2-0.2c0.4,0,1.4,0.2,1.4,0.2h-0.7c-0.3,0-0.5,0-0.9,0.1s-0.8,0.3-1.4,0.4
		s-2.1-0.3-2.1-0.3S68,15.2,68,15.4c0,0.2-0.3,0.9-0.2,0.9c0.2,0,1.2,0.3,1.2,0.3l0.5-0.3c0,0-0.9-0.3-1.2-0.3
		c-0.3,0-0.4-0.2-0.2-0.2c0.2,0,0.8,0.1,1.2,0.2c0.4,0.1,0.9,0.5,1.1,0.4c0.2-0.1,1-0.6,1.4-0.6s0.7,0.1,0.7,0.1l0-0.4
		c0,0-0.7-0.1-1.1-0.1c-0.4,0-0.9,0.3-1.2,0.2s-1.5-0.3-1.5-0.3l-0.1-0.2c0,0,1.4,0.3,1.8,0.2c0.4-0.2,1.2-0.5,1.7-0.6
		c0.5-0.1,1.6-0.2,1.6-0.2L73.4,14c0,0-0.7-0.2-1.3-0.2s-1.2,0-1.2,0l0.8-0.2c0.3-0.1,0.7-0.4,1.1-0.6c0.4-0.1,1.2,0,1.2,0l-0.1-0.3
		c0,0-0.6-0.1-1-0.1c-0.4,0-1.4,0.6-1.7,0.7c-0.3,0.1-1,0-1.4,0s-1-0.3-1-0.3s0.3-0.1,0.7-0.2c0.4-0.1,1.2,0.1,1.8-0.1
		c0.6-0.2,1-0.7,1.4-1c0.4-0.3,1.2-0.1,1.2-0.1l-0.1-0.4C73.8,11.1,73,11,72.6,11 M62.2,23.9c0.1,0,0.2,0,0.2,0l-0.1-0.2l-0.7-0.2
		c-0.2-0.1-0.7-0.2-0.7-0.2l0.1,0.2c0,0,0.4,0.2,0.4,0.4l0.3,1.3l-1.5-2l-1.1-0.4l0.1,0.3c0,0,0.2,0,0.3,0.1
		c0.1,0.2,0.3,1.5,0.3,1.7c0,0.2-0.3,0.2-0.3,0.2l0,0.2l1.3,0.5l-0.1-0.3c0,0-0.4-0.3-0.4-0.4c0-0.2-0.1-0.9-0.1-0.9s1.7,1.9,1.8,2
		l0.1,0.1l0.5,0c0,0-0.5-2-0.5-2.2S62.1,23.9,62.2,23.9 M75,20.9l-0.2,0.2l0.3,0l0.1-0.2 M21.9,25.5l0.3,0.5l0.5-0.8l-0.3-0.5
		 M74.6,20.3l0.3,0l0.1-0.2 M75,20.8l0.3,0.1l0-0.3l-0.3,0 M75.2,21.3l0.3,0.1l0.1-0.3l-0.3,0 M75,21.9h0.3l0.2-0.4l-0.3,0
		 M23.1,23.8l-0.1,0.3l0.3,0c0.1,0,0.2,0.1,0.2,0.3c0,0.2-0.4,1.5-0.4,1.6c0,0.1-0.1,0.2-0.2,0.3c-0.1,0-0.3,0.1-0.3,0.1l-0.1,0.4
		c0,0,1.4-0.4,1.7-0.5c0.3-0.1,1.1-0.4,1.1-0.4l0.1-1c0,0-0.2,0-0.2,0c0,0-0.3,0.6-0.4,0.7c-0.1,0.1-0.7,0.2-0.7,0.3
		c-0.1,0-0.1,0-0.1-0.1c0-0.1,0.1-0.5,0.1-0.6s0-0.1,0.1-0.1s0.2,0,0.2,0c0,0,0.2,0.2,0.2,0.2l0.3-1.1l-0.5,0.5c0,0-0.1,0-0.2,0.1
		c-0.1,0,0-0.1,0-0.1c0,0,0.1-0.6,0.2-0.6c0-0.1,0.5-0.2,0.6-0.2c0.2,0,0.3,0.3,0.3,0.4c0,0.1,0.2,0,0.2,0l0.2-1l-1.4,0.5L23.1,23.8
		L23.1,23.8z M75.1,20.1L75,20.3l0.3,0.1v-0.3 M74.5,20.4l-0.1,0.3l0.3,0l0.1-0.3 M76.3,21l0.2,0.1l0.1-0.3l-0.3-0.1 M75.3,20.7
		l0.3,0.1l0.1-0.3l-0.4,0 M75.6,21.3l0.3,0.1l0.1-0.3L75.7,21 M76.1,21.4l0.3,0.1l0-0.3l-0.2-0.1 M75.4,20.1l0,0.2l0.3,0l0-0.3
		 M76.1,20.2c-0.1-0.1-0.2-0.1-0.2-0.1l-0.1,0.2l0.5,0.2C76.4,20.5,76.2,20.3,76.1,20.2 M75.8,20.8l0.3,0.1l0.1-0.3l-0.3,0
		 M4.5,19.5l-0.2,0.1c-0.1,0-0.3,0-0.3,0s0.1,0.1,0.2,0.1C4.5,19.6,4.5,19.5,4.5,19.5 M6.5,21.1l0-0.2l-0.2,0
		C6.3,21.1,6.5,21.1,6.5,21.1 M5.4,21.4c0.1-0.1,0.1-0.3,0.1-0.3H5.3l-0.1,0.1C5.2,21.3,5.2,21.3,5.4,21.4c-0.1,0-0.1,0-0.2,0
		c-0.1,0-0.1,0.2-0.2,0.2c0,0,0,0.1,0.1,0.1C5.2,21.7,5.3,21.5,5.4,21.4 M5.9,21.2c0-0.1,0-0.2-0.1-0.2c0,0-0.1,0-0.1,0.1
		c0,0.1,0,0.4,0,0.4S5.9,21.2,5.9,21.2 M7,20.9l-0.1-0.2c0-0.1-0.1-0.1-0.1-0.1c-0.1,0-0.1,0.1-0.1,0.2c0,0,0.1,0.1,0.2,0.2
		S7,20.8,7,20.9 M3.3,20.7c0,0,0.4-0.1,0.6-0.2c0.2-0.1,0.5-0.3,0.5-0.3s-0.5,0.1-0.6,0.1C3.8,20.4,3.4,20.5,3.3,20.7 M62.3,25.3
		l0.6,0.7l0.3-0.6l-0.5-0.7 M22,24.1l-1.3,0.5l-0.1,0.3c0,0,0.2-0.1,0.3-0.1c0.1,0,0.2,0.1,0.1,0.1c0,0.1-0.2,0.9-0.5,1.6
		c-0.2,0.7-1,0.5-0.9,0.1c0-0.2,0.2-1.2,0.3-1.3c0-0.2,0.1-0.3,0.1-0.3c0,0,0.1,0,0.1,0l0.1-0.4c0,0-0.6,0.1-0.8,0.2
		c-0.2,0-0.8,0.2-0.8,0.2l0,0.3c0,0,0.3-0.1,0.3-0.1s0.2,0,0.2,0.1s-0.2,0.5-0.3,1.1c-0.1,0.6,0.2,0.9,0.8,0.9
		c0.7,0,1.3-0.5,1.3-0.9c0.1-0.3,0.4-1.5,0.5-1.7c0.1-0.1,0.1-0.3,0.2-0.3c0.1,0,0.3-0.2,0.3-0.2L22,24.1L22,24.1z M4,19.9
		c0,0,0.2,0.1,0.3,0.1s0.2-0.1,0.2-0.1s-0.1,0-0.2,0C4.2,19.8,4,19.9,4,19.9 M74.7,24.5l0.3,0.4l0.1-0.1l-0.2-0.3 M15.7,25.5
		l-0.1,0.3c0,0,0.2,0,0.3,0c0.1,0,0.2,0.1,0.2,0.3c-0.1,0.2-0.5,1.1-0.5,1.2c-0.1,0.1-0.2,0.3-0.3,0.3c-0.1,0-0.3,0.1-0.3,0.1
		l-0.1,0.2c0,0,0.9,0,1.2,0c0.8,0,0.7,0,1.7-0.2l0.4-1c0,0-0.2,0-0.2,0c-0.1,0-0.3,0.3-0.5,0.5s-0.5,0.2-0.7,0.2s-0.2,0-0.2-0.1
		c0,0,0.2-0.6,0.2-0.7c0-0.1,0.1,0,0.1,0c0.1,0,0.3,0,0.4,0c0.1,0.1,0.2,0.3,0.2,0.2c0,0,0.3-0.9,0.3-0.9c-0.1,0-0.4,0.4-0.4,0.4
		c0,0-0.3,0-0.4,0c-0.1,0,0-0.1,0-0.1c0-0.1,0.2-0.4,0.2-0.5c0,0,0.1-0.1,0.1-0.1c0.1,0,0.5-0.1,0.6-0.1c0.1,0,0.3,0.4,0.4,0.4
		c0,0,0.3-0.9,0.3-0.9s-0.9,0.2-1.2,0.2L15.7,25.5 M75.1,24.3l0.2,0.3l0.1,0l-0.1-0.5 M11.9,27c-0.3,0.4-1,0.4-1.2,0.4
		c-0.1,0-0.2-0.1-0.2-0.1c0,0,0.8-1.5,0.8-1.5l0.1,0c0,0,0.2,0,0.5,0.1c0.2,0.1,0.3,0.3,0.3,0.4S12.2,26.6,11.9,27 M12.1,25.6
		c-0.8-0.1-1.9-0.1-1.9-0.1L10,25.7l0.3,0c0.1,0,0.1,0.1,0,0.2c-0.1,0.1-0.7,1.3-0.7,1.4c-0.1,0.1-0.1,0.1-0.2,0.1
		c-0.1,0-0.4,0-0.4,0l-0.2,0.3c0,0,2.3,0.1,2.7,0.1c0.4,0,1.4-0.5,1.5-1.2C13.1,26,12.9,25.7,12.1,25.6 M15.1,25.8
		c0.1,0,0.2,0,0.2,0l0.1-0.2l-1.6,0l-0.1,0.2c0,0,0.1,0,0.2,0c0.1,0,0.2,0.1,0.1,0.2c-0.1,0.2-0.5,1.2-0.5,1.4
		c0,0.1-0.2,0.2-0.3,0.2c-0.1,0-0.2,0-0.2,0l-0.1,0.3l1.7,0l0.1-0.2c0,0-0.2,0-0.2,0c-0.1,0-0.1-0.1-0.1-0.2s0.4-1.1,0.5-1.3
		C14.9,26,15,25.9,15.1,25.8 M56,22.6c0-0.1,0-0.3,0.1-0.2c0.1,0.1,0.3,0,0.3,0l-0.1-0.3c0,0-0.3-0.1-0.5-0.1c-0.3,0-0.6,0-0.6,0
		l-0.5,1.4L53.6,22l-0.7,0.2l-0.3,0.4c0,0,0.3-0.1,0.3,0c0,0.1,0.4,1.4,0.5,1.5c0,0.1,0.1,0.3,0,0.3c-0.1,0-0.2,0.1-0.2,0.1l0,0.2
		l0.8-0.3L54,24.3c0,0-0.3,0-0.3,0c0,0-0.3-0.9-0.3-0.9l1,1.1l0.3,0l0.4-1.2c0,0,0.2,0.7,0.2,0.8c0,0.1-0.1,0.2-0.1,0.2
		c-0.1,0-0.1,0-0.1,0l0,0.2c0,0,0.5,0,0.8,0.1c0.2,0,0.8,0.1,0.8,0.1l0-0.2c0,0-0.4-0.1-0.4-0.2C56.4,23.9,56,22.8,56,22.6
		 M57.8,24.4c-0.2-0.2-0.3-0.9-0.4-1.2c-0.1-0.3,0.1-0.6,0.4-0.6c0,0,0.3,0,0.3,0.2s0.4,1,0.4,1.6C58.6,24.9,57.9,24.6,57.8,24.4
		 M57.7,22.3c-0.5,0-0.9,0.5-0.9,0.8c0,0.2,0.1,0.8,0.2,1.1c0.1,0.3,0.6,0.8,1.4,0.9c0.8,0,0.7-1.1,0.6-1.6
		C58.8,23,58.3,22.3,57.7,22.3 M47.5,9.7l-0.1-0.4c0,0-0.3,0.1-0.4,0.1s0.1,0.4,0.1,0.4L47.5,9.7L47.5,9.7z M38.4,10.5
		c0.4,0,0.2,0.5-0.1,0.5s-0.6-0.2-0.6-0.2L37.6,11l0.6,0.7l0.3-0.2l-0.2-0.2c0,0,0.2,0.1,0.6-0.1c0.3-0.2,0.1-0.6,0-0.8
		c-0.1-0.2-0.7-0.2-1.1-0.2s-0.3-0.3,0-0.3c0.3-0.1,0.4,0.1,0.4,0.1l0.1-0.1l-0.4-0.6l-0.1,0.2l0.1,0.1c0,0-0.3,0-0.4,0.1
		c-0.3,0.2-0.3,0.4-0.2,0.8C37.2,10.8,38,10.5,38.4,10.5 M39.1,8.9c0.2-0.1,0.4,0,0.6,0.3c0.2,0.3,0.2,0.6,0,0.8
		c-0.2,0.2-0.5,0.1-0.7-0.2C38.8,9.5,38.8,9.1,39.1,8.9 M39.9,10.4c0.3-0.2,0.5-1,0-1.5c-0.5-0.4-0.9-0.4-1.1-0.2
		C38.5,9,38.4,9.6,38.6,10C38.9,10.4,39.6,10.6,39.9,10.4 M36.7,11.1l0.3,0.6l0.4-0.1L37.3,11"/>
	<path class="st0" d="M39.7,8.3l0.1,0.3l0.2,0l0.5,1.2l-0.2,0.1l0.1,0.3l0.7-0.2L41,9.6l-0.2,0.1l-0.4-1.2l0.1-0.1L40.4,8
		 M35.8,14.3c0.6,0,0.7,1.1-0.2,0.9C34.7,15,35.1,14.2,35.8,14.3 M35.5,15.4c1.1,0.2,1.1-0.3,1.2-0.6c0.1-0.3-0.2-0.6-0.8-0.8
		c-0.2-0.1-1.1,0-1.2,0.4C34.7,14.8,34.7,15.2,35.5,15.4 M35.8,11.5l0.3,0.1l0.1-0.2l1.1,0.7l-0.1,0.2l0.4,0.2l0.3-0.6l-0.2-0.1
		L37.5,12l-1.1-0.8l0.1-0.2l-0.3-0.1 M35.4,12.5l0.3,0.1l0.1-0.3l0.8,0.4l-1.3,0.4l-0.3,0.5l0.3,0.1l0-0.2l1.4,0.4l0,0.2l0.3,0.1
		l0.2-0.6l-0.3-0.2l-0.1,0.2l-0.9-0.2l1.6-0.6l-1.4-0.7l0.1-0.4l-0.3-0.1 M49.9,12.1l-0.4,0.3l-0.1-0.2
		C49.4,12.1,49.9,12.1,49.9,12.1z M48.6,11.9L48.4,12l0.1,0.1l0.3,0.5l0.2-0.1l-0.1-0.2l0.3,0l0.2,0.4l-0.1,0.3l-0.2-0.2l-0.2,0.1
		l0.4,0.7l0.3-0.1l0-0.1c0,0,1.1-1.2,1.1-1.2c0,0-0.2-0.3-0.2-0.3L48.6,11.9L48.6,11.9L48.6,11.9z M44.8,8.7c0,0.1-0.3,0.8,0.4,1.1
		c0.8,0.4,1.2-1.3,1.2-1.4c0-0.1,0.2,0,0.2,0l0.1-0.2c0,0-0.2-0.1-0.3-0.2c-0.1-0.1-0.3-0.1-0.3-0.1L46,8.1c0,0,0.2,0.2,0.2,0.2
		c0,0.1-0.3,1.4-0.9,1.2c-0.5-0.2,0-1.3,0.1-1.5C45.4,7.9,45.6,8,45.6,8l0.1-0.2l-0.4-0.1c-0.2-0.1-0.5-0.1-0.5-0.1l-0.1,0.3
		c0,0,0.3,0.1,0.3,0.1C45,8,44.9,8.6,44.8,8.7 M57.5,7.7c-0.4,0.1-0.4,0.7-0.3,0.7s1-0.2,1-0.2S57.9,7.6,57.5,7.7 M47.9,9.2
		c0,0.1-0.7,0.9-0.9,1.1c-0.1,0.1-0.3,0-0.3,0l-0.1,0.2l0.6,0.4l0.2-0.2l-0.1-0.1c-0.1-0.1-0.1-0.1,0-0.2c0.1-0.1,0.7-0.8,0.7-0.8
		l-0.3,1.6l0.2,0l1.3-0.5c0,0-0.7,0.6-0.8,0.6c-0.1,0.1-0.2-0.1-0.2-0.1l-0.2,0.2l0.4,0.4l0.2-0.1c0,0-0.1-0.2,0-0.2
		c0.1-0.1,0.8-0.6,0.9-0.7c0.1-0.1,0.3,0.1,0.3,0.1l0.2-0.1c0,0-0.1-0.2-0.2-0.3c-0.1-0.1-0.2-0.2-0.2-0.2l-1.4,0.4l0.3-1.5
		c0,0-0.2-0.2-0.3-0.3c-0.1-0.1-0.4-0.2-0.4-0.2l-0.2,0.2l0.3,0.1C47.9,9.1,48,9.1,47.9,9.2"/>
	<path class="st0" d="M34.6,15.4l0,0.8h0.3l0-0.2l0.4,0.1l-0.1,0.9h-0.4l0-0.2l-0.2,0l0.1,0.9l0.4,0v-0.2l1.1,0l0.1,0.3l0.3,0l0-0.9
		H36l0,0.2l-0.5-0.1l0.2-0.9h0.4v0.2l0.3,0l0.1-0.8h-0.2l0,0.3l-1.4-0.1v-0.3 M42.4,8.9l0.3,0.3l0.2-0.3l-0.2-0.3 M40.9,8.7
		c0,0-0.1-0.5,0.1-0.6c0.2-0.1,0.3-0.1,0.3-0.1l0.3,1.4l-0.3,0.1l0.1,0.3l0.8-0.2l-0.1-0.3l-0.2,0L41.6,8c0,0,0.3-0.1,0.4,0
		c0.1,0.1,0.2,0.4,0.2,0.4l0.2-0.1l-0.1-0.8c0,0-0.4,0.1-0.9,0.1C41,7.9,40.6,8,40.6,8l0.2,0.8L40.9,8.7L40.9,8.7z M43.4,8.5
		c0-0.2,0.1-0.6,0.5-0.6c0.2,0,0.3,0.4,0.3,0.7c0,0.3,0,0.7-0.5,0.7C43.4,9.2,43.4,8.7,43.4,8.5 M43.7,9.6c0.5,0,0.6-0.2,0.6-0.2
		s0.2,0.3,0.3,0.4C44.7,9.9,45,9.9,45,9.9s-0.3-0.1-0.4-0.3c-0.1-0.2-0.1-0.4-0.1-0.4s0.2-0.3,0.2-0.7c-0.1-0.4-0.2-0.9-0.8-0.9
		c-0.3,0-0.8,0.5-0.8,1C43,9,43.2,9.6,43.7,9.6 M41.6,19.9L41.5,20l0.3,0l0.1-0.2 M41.7,19.5l-0.1,0.1l0.2,0l0-0.1"/>
	<path class="st0" d="M39.3,18.1c0.2,0,0.5,0.2,0.5,0.2s-0.3-0.1-0.6-0.1c-0.3,0-0.3,0-0.3-0.2C38.9,18,39.1,18.1,39.3,18.1
		L39.3,18.1z M39.9,18.5C39.9,18.5,40,18.5,39.9,18.5l1,1.7c0,0,0,0.1,0,0.1c0,0-0.1,0-0.1,0l-0.9-1.7
		C39.8,18.6,39.8,18.6,39.9,18.5L39.9,18.5z M40.3,18.7C40.3,18.7,40.3,18.7,40.3,18.7l0.8,1.3c0,0,0,0.1,0,0.1c0,0-0.1,0-0.1,0
		L40.3,18.7C40.2,18.7,40.2,18.7,40.3,18.7L40.3,18.7z M40.5,18.6C40.6,18.6,40.6,18.6,40.5,18.6l0.6,1c0,0,0,0.1,0,0.1
		c0,0-0.1,0-0.1,0L40.5,18.6C40.5,18.7,40.5,18.7,40.5,18.6L40.5,18.6z M40.8,18.6C40.9,18.5,40.9,18.5,40.8,18.6l0.5,0.8
		c0,0,0,0.1,0,0.1c0,0-0.1,0-0.1,0L40.8,18.6C40.8,18.6,40.8,18.6,40.8,18.6L40.8,18.6z M41,18.4C41.1,18.4,41.1,18.4,41,18.4
		l0.5,0.7c0,0,0,0.1,0,0.1c0,0-0.1,0-0.1,0L41,18.6C41,18.5,41,18.5,41,18.4L41,18.4z M41.3,18.4C41.3,18.3,41.3,18.4,41.3,18.4
		l0.4,0.5c0,0,0,0.1,0,0.1c0,0-0.1,0-0.1,0l-0.3-0.5C41.2,18.4,41.2,18.4,41.3,18.4L41.3,18.4z M41.5,18.4
		C41.6,18.3,41.6,18.3,41.5,18.4l0.3,0.3c0,0,0,0.1,0,0.1c0,0-0.1,0-0.1,0l-0.2-0.3C41.5,18.4,41.5,18.4,41.5,18.4L41.5,18.4z
		 M42.2,18.1L42.2,18.1l0.2,0.1l-0.8,3.3l0,0.3l-0.2,0.1l-0.1-0.2l-0.8,0.1l-0.1,0c0,0-0.1-0.1,0-0.2L42.2,18.1L42.2,18.1z
		 M39.5,18.6C39.5,18.5,39.5,18.5,39.5,18.6c0.1-0.1,0.1-0.1,0.1-0.1l1.1,1.9c0,0,0,0.1,0,0.1c0,0-0.1,0-0.1,0L39.5,18.6L39.5,18.6z
		 M39.2,18.5c0,0,0-0.1,0-0.1c0,0,0.1,0,0.1,0l1.2,2.2c0,0,0,0.1,0,0.1c0,0-0.1,0-0.1,0L39.2,18.5L39.2,18.5z M38.9,18.6
		c0.1,0,0.2,0.2,0.2,0.2l1.2,2.6c0,0.1,0,0.1,0,0.1c-0.1,0-0.3,0.3-0.2,0.4c0,0.1,0.1,0.3,0.2,0.3c0.1,0,0.5-0.2,0.5-0.2
		c0,0,0.3,0,0.4,0l0.2-0.1l0.1,0.4l0.4-0.1l0.9-4l-0.5-0.2c-0.1,0-0.2,0-0.3,0.1c-0.1,0-0.7,0.1-0.8,0.2c-0.1,0-0.7,0.1-0.8,0.1
		c-0.2,0-0.6-0.3-0.9-0.4c-0.3,0-0.6,0-0.7,0c-0.2,0-0.2,0.2-0.1,0.4S38.7,18.6,38.9,18.6L38.9,18.6z M42.6,16.6c0,0.1-0.1,0-0.1,0
		c0,0-0.3,0-0.3,0c0,0,0.3-0.4,0.3-0.5c0-0.1-0.1-0.2-0.1-0.3c0,0-0.2-0.3-0.2-0.4c0-0.1,0.1,0,0.1-0.2c0-0.1,0.1-0.1,0.1-0.1
		c0.1,0,0-0.8,0-0.9c-0.1-0.1-0.1-0.9-0.1-1.1c0-0.2,0.2-0.4,0.2-0.6c0-0.1-0.1-0.2-0.1-0.2s-0.2,0.2-0.2,0.3c0,0.1,0,0.5,0,0.6
		c0,0.1,0.1,1.3,0.1,1.5S42.2,15,42.2,15c0-0.1-0.1-0.5-0.1-0.6c0-0.1-0.1-0.7-0.1-0.7c0.1,0,0.2-0.1,0.1-0.3c0-0.1,0-0.5,0-0.5
		c0,0,0.1,0,0.1-0.1s0.1-0.2,0.1-0.3c0-0.1,0.1-0.2,0.1-0.3c-0.1,0-0.1-0.1-0.1-0.1c0,0,0.1,0,0.1,0s0-0.1-0.1-0.1
		c-0.1,0-0.2,0-0.2,0.1s0.1,0.1,0.1,0.1c0,0-0.2,0-0.2,0s-0.1-0.1-0.1,0c0,0.1,0,0.1-0.1,0.1c-0.1,0-0.2-0.1-0.2,0
		c0,0.1-0.1,0.2,0,0.2c0.1,0,0.2,0,0.2,0.1c0.1,0,0.1,0.1,0.1,0.1c0,0-0.1-0.2,0-0.1c0.1,0,0.1,0.2-0.1,0.3
		c-0.2,0.1-0.3,0.3-0.3,0.3c-0.1,0-0.1,0-0.1-0.1c0.1,0,0.2,0,0.2-0.1c0,0-0.1,0-0.1,0c0,0-0.1-0.1-0.1-0.2c0-0.1,0-0.1,0-0.1
		c0,0,0,0-0.1,0c0,0-0.2,0-0.2-0.1v-0.3c0,0,0-0.1,0.1-0.1c0.1,0,1.3-0.4,1.3-0.4c0.1,0,0,0.1,0,0.1c0,0.1,0,4.5,0,4.6 M42,16.6
		c-0.1,0-0.1-0.2-0.2-0.1c0,0,0,0.1-0.1,0.1c0,0-0.1-0.1-0.1,0c0,0,0.1,0.2,0,0.2h-0.4c-0.1,0-0.1,0-0.1-0.2c0-0.2,0-0.2,0-0.2
		c0,0,0.1,0,0.1,0l0.3-0.1c0,0,0-0.5,0-0.5c0,0,0.1,0,0.1,0s0.1,0,0.1,0c0,0,0,0.2,0.2,0.3c0.2,0.1,0.3,0.1,0.3,0.1
		c0,0.1-0.1,0.1-0.1,0.1s0,0.1,0,0.1S42.1,16.6,42,16.6 M41.2,14.2C41.2,14.2,41.2,14.2,41.2,14.2c0.1,0,0.1,0,0.1,0.1
		c0,0.1,0.1,0.1,0,0.1c0,0.1,0,0.2,0.1,0.2c0.1,0,0.2,0,0.2-0.1s0-0.1,0-0.1c0-0.1-0.1,0-0.1-0.1c-0.1,0,0-0.1,0-0.2
		c0-0.1,0-0.1,0.1-0.1c0.1,0,0.1,0.1,0.1,0.1c0,0.1,0,0,0.1,0s0,0.4,0.1,0.4c0.1,0,0.1,0.3,0.1,0.4c0,0.1-0.1,0.1-0.1,0.2
		c0,0-0.2-0.1-0.2-0.2c-0.1-0.1-0.1-0.1-0.2-0.1c-0.1,0-0.1,0.1-0.1,0.1s0,0.4,0,0.4s0.1,0.2,0.2,0.4c0.1,0.1-0.1,0.1-0.1,0.2
		c-0.1,0-0.1,0-0.1-0.1C41.1,16,41.2,14.3,41.2,14.2 M42.1,15.9c0.1,0.1-0.2-0.2-0.2-0.4c0-0.2,0.2-0.4,0.2-0.4
		c0.1,0-0.1,0.2-0.1,0.3C42,15.6,42,15.8,42.1,15.9 M41.2,13.2L41.2,13.2c0.1-0.1,0.1-0.1,0.2-0.1s0.1,0.1,0.1,0.2s0,0.2,0.1,0.3
		c0.1,0.1,0.1,0.1,0.1,0.1s0-0.1,0-0.1c0,0,0-0.1,0-0.1c0-0.1,0.1-0.2,0.2-0.4c0.1-0.1,0.3-0.5,0.3-0.5c0,0-0.1,0.3-0.1,0.4
		c0,0.2-0.1,0.4-0.1,0.5s-0.1,0.1-0.1,0c0-0.1,0.1-0.3,0.1-0.4c0-0.1-0.1,0-0.1,0c0,0.1,0,0.4,0,0.5c0,0.1,0,0.1,0,0.1
		c0,0.1-0.1,0.1-0.1,0s0-0.3,0-0.4c0-0.1,0-0.1,0-0.1s-0.1,0.1-0.1,0.3c0,0.2,0,0.3,0,0.4c0,0.1-0.1,0.1-0.1,0c0-0.1,0-0.3,0-0.3
		s0,0-0.1,0c-0.1,0-0.1,0-0.1,0.1S41.3,14,41.3,14c-0.1,0.1-0.1,0.1-0.1,0.1C41.2,14,41.2,13.2,41.2,13.2 M42.7,11.8
		c-0.1,0-0.2,0.1-0.2,0.1c0,0-1.1,0.4-1.1,0.4h-0.1c0,0-0.1-0.1-0.2,0c-0.1,0-0.2,0-0.2,0.2c0,0.1,0.2,0.1,0.2,0.1l0,3.9
		c0,0-0.1,0.1-0.1,0.2c0,0.1,0.1,0.2,0.2,0.2c0.2,0,0.2-0.1,0.2-0.1l1.2,0c0,0,0,0.1,0.2,0.1c0.1,0,0.2-0.1,0.2-0.2
		c0-0.1-0.1-0.2-0.1-0.2l0-0.3l0-4.1c0,0,0.1-0.1,0.1-0.2C42.9,11.9,42.8,11.8,42.7,11.8"/>
	<path class="st0" d="M41.5,20.2l-0.1,0.1l0.4-0.1l0.1-0.1 M40.9,21.3l-0.1,0.1l0.8-0.1l0.1-0.2 M39.6,14.8c-0.1,0-0.2-0.3-0.2-0.3
		C39.5,14.6,39.6,14.6,39.6,14.8C39.8,14.7,39.7,14.8,39.6,14.8 M39.5,14.9c-0.1-0.1-0.1-0.3-0.1-0.3s0.1,0.1,0.2,0.2
		C39.6,14.9,39.6,15,39.5,14.9 M39.3,15c0-0.1-0.1-0.3-0.1-0.3S39.3,14.8,39.3,15C39.4,15,39.3,15,39.3,15 M39.4,14.4
		c0,0.1-0.1,0.1-0.1,0C39.3,14.4,39.4,14.3,39.4,14.4 M39,14.4C39,14.4,39.1,14.3,39,14.4C39.1,14.4,39.1,14.5,39,14.4 M40.7,14.2
		c0.2,0,0.2-0.1,0-0.1c-0.1,0-0.4,0-0.6,0c-0.2,0-0.4,0-0.4,0.2c0,0.2,0.1,0.2,0.2,0.2s0.4,0,0.5,0c0.1,0,0.2,0.1,0,0.1
		c-0.1,0-0.6,0-0.7,0s-0.1-0.1-0.1-0.1s-0.1-0.1-0.1-0.1c0,0-0.1-0.2-0.1-0.2c0,0-0.1,0-0.2,0s0,0.1,0,0.1c0,0-0.1,0-0.2,0
		c-0.1,0-0.1,0-0.1,0v0c0,0-0.1,0-0.1,0.1c0,0.1-0.1,0.1-0.1,0.2c0,0.1,0.1,0.1,0.1,0.1c0,0.1,0.1,0.1,0.1,0.2
		c0.1,0,0.1,0.2,0.1,0.2c0,0-0.4,0.1-0.5,0.2c-0.1,0-0.1,0.2-0.1,0.2c0,0,0.1,0,0.2,0c0,0,0.1,0,0.1-0.1s0.4-0.2,0.5-0.2
		s0.1,0.1,0.1,0.1s-0.2,0.1-0.3,0.1c-0.1,0-0.1,0.1,0,0.1c0.1,0,0.3,0,0.4,0c0.1,0,0.6-0.4,0.7-0.4c0.1-0.1,0.3,0.1,0.2,0.1
		c0,0-0.1,0.1-0.2,0.1c-0.1,0-0.1,0.1-0.3,0.1s-0.1,0.2-0.1,0.2s0.3,0,0.3,0c0.1,0,0.3-0.2,0.3-0.2s0.2,0.2,0.3,0.2s0.1,0,0.1,0
		c0,0-0.2-0.4-0.2-0.5c0-0.1,0.1-0.1,0.2-0.2c0.1-0.1,0-0.3-0.1-0.3c-0.1,0-0.6,0-0.7,0c-0.1,0,0-0.1,0-0.1
		C40.1,14.3,40.6,14.3,40.7,14.2 M41.3,20.6l-0.1,0.1l0.5-0.1l0.1-0.2 M41.2,21l-0.1,0.1l0.7-0.1l0.1-0.2 M39.4,16.3
		c-0.1,0-0.2-0.3-0.2-0.3S39.4,16.1,39.4,16.3C39.5,16.2,39.5,16.3,39.4,16.3 M39.2,16.3c0,0-0.1-0.3-0.1-0.3l0.2,0.2
		C39.3,16.3,39.2,16.4,39.2,16.3 M39.1,16.5c-0.1,0-0.2-0.3-0.2-0.3L39.1,16.5C39.2,16.5,39.1,16.5,39.1,16.5 M39.1,15.8
		c0,0.1-0.2,0.1-0.2,0C38.9,15.8,39.1,15.7,39.1,15.8 M38.6,15.9c0,0,0.1,0,0.1,0C38.8,15.9,38.6,15.9,38.6,15.9 M40.8,16
		c0-0.2-0.2-0.2-0.3-0.2s-0.5,0-0.7,0s-0.2-0.1,0-0.1s0.7,0,0.8,0c0.1,0,0.1-0.1,0-0.1c-0.2,0-0.7,0-0.9,0c-0.2,0-0.4,0.4,0,0.4
		c0.4,0,0.7,0,0.8,0c0.1,0,0.1,0.1,0,0.1c-0.1,0-0.9,0-1,0c-0.1,0-0.2-0.1-0.2-0.1c0,0-0.1-0.3-0.2-0.3c-0.1,0-0.2-0.1-0.2-0.1
		s0,0.1,0,0.1l-0.3,0.1c0,0-0.1,0-0.1,0c0,0,0,0.1,0,0.1s0,0.2,0,0.2c0,0,0,0.1,0.1,0.1c0.1,0,0.2,0.2,0.2,0.2c0,0,0,0.1,0,0.1
		c0,0-0.1,0-0.2,0.1c-0.1,0-0.1,0-0.2,0.1c0,0.1-0.1,0.1,0,0.1c0.1,0,0.1,0,0.1,0c0.1,0,0.2-0.1,0.3-0.2c0.1,0,0.1,0,0.1,0
		c0.1,0,0,0,0.1,0c0.1,0,0.1,0.1-0.1,0.1s-0.2,0-0.2,0.1c0,0,0.1,0,0.1,0c0,0,0.2,0,0.2,0c0.1,0,0.1-0.1,0.2-0.1s0.4-0.1,0.5-0.1
		c0.1,0,0.3-0.1,0.4-0.1c0.1,0,0.1,0.1,0,0.1c0,0-0.1,0.1-0.1,0.1c-0.1,0-0.3,0-0.3,0.1c0,0,0,0.1,0,0.1c0,0,0.6,0,0.7,0
		s0.2-0.1,0.2-0.2s0-0.1,0-0.1s0.2,0.1,0.3,0.2c0,0,0,0.1,0.1,0.1s0.1-0.1,0.1-0.2c0,0-0.1-0.2-0.2-0.2c-0.1,0-0.1-0.1-0.1-0.1
		s0-0.1,0-0.1S40.9,16.3,40.8,16 M44.3,12.7c0.3,0,0.3,0.8,0.3,0.8c0,0,0-0.5-0.3-0.5c-0.3,0-0.1,0.5-0.2,0.5c0,0-0.2-0.3-0.2-0.4
		C43.9,13.1,44,12.7,44.3,12.7 M45.1,13.7c0.2,0,0.4,0.1,0.4,0.1s-0.2,0-0.5,0.1c-0.2,0-0.4-0.1-0.4-0.1
		C44.7,13.7,44.9,13.7,45.1,13.7 M44.9,11.9c0.1,0.1,0.2,0.6,0.2,0.9c0,0.3-0.2,0.8-0.2,0.8s-0.2-0.5-0.2-0.8
		C44.7,12.5,44.9,11.9,44.9,11.9 M45.6,12.8c0.3,0,0.2,0.7,0.1,0.8c0,0,0-0.4-0.2-0.5c-0.2,0-0.3,0.4-0.3,0.4s0-0.1,0-0.4
		S45.6,12.8,45.6,12.8 M44.4,13.7c0.2,0,0,0.2,0,0.2c0,0,0.2,0,0.1,0.1c0,0.1-0.1,0.2-0.1,0.2h0.2l0.2-0.3l0,0.3c0,0,0.1,0,0.2,0
		c0.1,0,0.2,0.1,0.2,0.1V14l0.1,0.3l0.2,0c0,0-0.1-0.3-0.1-0.3c0-0.1,0.1,0.1,0.1,0.1s0.1,0,0-0.1s0.1-0.1,0.1-0.2
		c0.1,0,0.1,0.1,0.1,0.1s0.1-0.1,0.2-0.3c0.1-0.2-0.2-1-0.4-1c-0.1,0-0.3,0-0.3,0s-0.1-0.6-0.4-0.9c0,0-0.2,0.2-0.3,0.4
		s0,0.5-0.1,0.4s-0.5,0-0.6,0.5c-0.1,0.4,0.2,0.8,0.2,0.8S44.3,13.7,44.4,13.7 M46.2,14.4c0.4,0,0.3,0.7,0.3,0.8c0,0,0-0.5-0.3-0.5
		c-0.3,0-0.1,0.5-0.1,0.5c0,0-0.2-0.3-0.2-0.4C45.8,14.7,45.9,14.4,46.2,14.4 M47,15.4c0.2,0,0.4,0.1,0.4,0.1s-0.2,0-0.5,0.1
		c-0.2,0-0.4-0.1-0.4-0.1C46.6,15.4,46.8,15.3,47,15.4 M46.8,13.6c0.1,0.1,0.2,0.6,0.2,0.9c0,0.3-0.2,0.8-0.2,0.8s-0.2-0.5-0.2-0.8
		C46.6,14.2,46.8,13.6,46.8,13.6 M47.5,14.5c0.3,0,0.2,0.7,0.1,0.8c0,0,0-0.4-0.2-0.5c-0.2,0-0.3,0.4-0.3,0.4s0-0.1,0-0.4
		C47.2,14.5,47.5,14.5,47.5,14.5 M46,15.5c0,0,0.2-0.1,0.4-0.1c0.2,0,0,0.2,0,0.2c0,0,0.2,0,0.1,0.1c0,0.1-0.1,0.2-0.1,0.2h0.2
		l0.2-0.3l0,0.3c0,0,0.1,0,0.2,0s0.2,0.1,0.2,0.1v-0.3l0.1,0.3l0.2,0c0,0-0.1-0.3-0.1-0.3c0-0.1,0.1,0.1,0.1,0.1s0.1,0,0-0.1
		c-0.1-0.1,0.1-0.1,0.1-0.2c0.1,0,0.1,0.1,0.1,0.1s0.1-0.1,0.2-0.3c0.1-0.2-0.2-1-0.4-1c-0.1,0-0.3,0-0.3,0s-0.1-0.6-0.4-0.9
		c0,0-0.2,0.2-0.3,0.4c-0.1,0.2-0.1,0.5-0.1,0.4c-0.1-0.1-0.5,0-0.6,0.5C45.6,15.1,46,15.5,46,15.5 M45.4,20.3
		c0.1,0.1,0.2,0.3,0.2,0.4c0.1,0,0.1,0,0.2,0c0.1-0.1,0.3-0.3,0.3-0.4c0-0.1,0-0.6,0-0.6c0-0.1,0-0.1-0.1-0.1s-0.7,0-0.7,0l-0.1,0.1
		c0,0.1,0,0.4,0,0.5C45.4,20.2,45.4,20.2,45.4,20.3 M44.3,15.5c0.3,0,0.3,0.7,0.3,0.8c0,0,0-0.5-0.3-0.5c-0.3,0-0.1,0.5-0.1,0.5
		c0,0-0.2-0.3-0.2-0.4C43.8,15.8,43.9,15.5,44.3,15.5 M45,16.4c0.2,0,0.4,0.1,0.4,0.1s-0.2,0-0.4,0.1c-0.2,0-0.4-0.1-0.4-0.1
		C44.6,16.4,44.8,16.4,45,16.4 M44.8,14.7c0.1,0.1,0.2,0.6,0.2,0.9c0,0.3-0.2,0.8-0.2,0.8s-0.2-0.5-0.2-0.8
		C44.6,15.2,44.8,14.7,44.8,14.7 M45.5,15.6c0.3,0,0.2,0.7,0.1,0.8c0,0,0-0.4-0.2-0.5c-0.2,0-0.3,0.3-0.3,0.3s0-0.1,0-0.4
		C45.2,15.6,45.6,15.6,45.5,15.6 M44.4,16.5c0.1,0,0,0.2,0,0.2c0,0,0.1,0,0.1,0.1c0,0.1-0.1,0.2-0.1,0.2h0.2l0.2-0.3l0,0.3
		c0,0,0.1,0,0.2,0s0.2,0.1,0.2,0.1v-0.3l0.1,0.3l0.2,0c0,0-0.1-0.3-0.1-0.3c0-0.1,0.1,0.1,0.1,0.1s0.1,0,0-0.1
		c-0.1-0.1,0.1-0.1,0.1-0.2c0.1,0,0.1,0.1,0.1,0.1s0.1-0.1,0.2-0.3c0.1-0.2-0.2-1-0.4-1c-0.1,0-0.3,0-0.3,0s-0.1-0.6-0.4-0.9
		c0,0-0.2,0.2-0.3,0.4c-0.1,0.2,0,0.5-0.1,0.4c-0.1-0.1-0.5,0-0.7,0.5s0.2,0.8,0.2,0.8S44.2,16.4,44.4,16.5 M40.1,13.7L40.1,13.7
		l-0.2-0.2C39.9,13.5,40.1,13.7,40.1,13.7z M40,13.2C40.2,13.2,40.1,13.2,40,13.2C39.9,13.3,40,13.2,40,13.2z M40.1,13.4
		C39.9,13.4,40,13.3,40.1,13.4C40.1,13.3,40.2,13.4,40.1,13.4z M40.3,13.7l-0.1,0L40,13.5L40.3,13.7L40.3,13.7z M40.4,13.6
		L40.4,13.6l-0.2-0.2C40.2,13.3,40.4,13.6,40.4,13.6z M39.8,13.9c0.2-0.1,0.3-0.1,0.3-0.1S40,13.9,39.8,13.9
		c-0.1,0.2-0.2,0.2-0.1,0.2c0.1,0,0.3,0,0.5-0.1c0.2-0.1,0.3-0.3,0.4-0.3c0.1,0-0.2,0.1-0.2,0.2l0,0.1c0,0,0.3,0,0.3-0.1
		s0-0.1,0-0.1s0.2,0.2,0.2,0.2c0.1,0,0.1,0,0-0.2c-0.1-0.1-0.1-0.2-0.1-0.2c0.1-0.1,0.2-0.1,0.2-0.3c0-0.1-0.1-0.2-0.2-0.2h-0.1
		c0.1,0,0.2-0.1,0.2-0.1l0-0.2c-0.1-0.2-0.5-0.2-0.7-0.2c-0.2,0-0.1,0.1,0,0.1c0.1,0,0.5,0,0.6,0.1l0,0.1c0,0-0.1,0.1-0.2,0.1
		c-0.2,0.1-0.2,0.1-0.2,0.2c0,0.1,0.1,0.1,0.3,0.1c0.1,0,0.1,0,0.1,0c0,0.1-0.1,0.1-0.3,0.1c-0.2,0-0.2,0-0.3-0.1
		c0-0.1-0.1-0.3-0.2-0.3c-0.1,0-0.2,0-0.2,0.1c0,0.1-0.2,0.1-0.2,0.3c0.1,0.1,0.1,0.3,0.1,0.3s-0.2,0-0.3,0.1
		c-0.1,0.1-0.3,0.2-0.1,0.2C39.5,14.1,39.6,14,39.8,13.9L39.8,13.9z M44.4,18.3c0.1,0.1,0.3,0.2,0.2,0.2
		C44.5,18.6,44.4,18.3,44.4,18.3 M44.5,18.7c-0.1,0-0.1-0.2-0.1-0.2C44.4,18.6,44.6,18.7,44.5,18.7 M44.1,18.5
		c0.1,0.1,0.2,0.3,0.1,0.3C44.2,18.7,44.1,18.4,44.1,18.5 M45.3,18c0.2,0,0.1-0.1,0-0.1c-0.2,0-0.8,0-0.8,0.1c0,0.1,0,0.2,0.1,0.3
		c0.1,0,0.2,0,0.3,0c0.1,0,0.1,0-0.1,0.1c-0.2,0-0.4,0-0.4-0.1c-0.1-0.1-0.2-0.4-0.3-0.4c-0.1,0-0.3,0-0.3,0.1c0,0.1,0,0.2,0,0.4
		c0,0.1,0.1,0.2,0.1,0.3c0,0.1,0,0.1-0.1,0.2s-0.3,0.2-0.1,0.2s0.2-0.1,0.4-0.2c0.1-0.1,0.2,0.1,0.1,0.1c-0.1,0-0.2,0.1-0.1,0.1
		c0.1,0,0.3-0.2,0.4-0.3c0.1-0.1,0.3-0.3,0.4-0.2c0,0.1,0.1,0.1,0,0.2c-0.1,0-0.5,0.1-0.4,0.2c0,0.1,0.1,0.2,0.2,0.1
		c0.1-0.1,0.3-0.3,0.3-0.2c0,0-0.1,0.2,0,0.2s0.2,0.1,0.2,0c0-0.1-0.1-0.2,0-0.2c0.1,0,0.1-0.1,0.1-0.2c0-0.1-0.1-0.1,0-0.2
		c0.1-0.1,0.1-0.3-0.1-0.3c-0.2,0-0.3,0-0.4,0C44.6,18,44.7,18,45,18S45.1,17.9,45.3,18 M44.1,19.7c0.1,0.1,0.2,0.1,0.2,0.1
		C44.2,19.9,44.1,19.7,44.1,19.7 M44,19.7c0.1,0.1,0.3,0.2,0.2,0.3C44,20,44,19.7,44,19.7 M44.7,19.3C44.8,19.3,44.9,19.2,44.7,19.3
		c0-0.1-0.3-0.1-0.4,0c-0.1,0.1-0.2,0.2,0,0.3c0.2,0.1,0.5,0.1,0.3,0.2c-0.1,0-0.3,0.1-0.4,0c-0.1,0-0.1-0.1-0.1-0.1
		c0-0.1-0.1-0.1-0.1-0.1c-0.1,0-0.1,0-0.1,0.1c0,0.1,0,0.1,0,0.2s0.2,0.4,0.1,0.4c-0.1,0.1-0.2,0.2-0.2,0.3c0,0.1,0.1,0.2,0.1,0.1
		c0-0.1,0.1-0.3,0.2-0.4c0.1-0.1,0.2-0.1,0.1,0c-0.1,0.1-0.2,0.2-0.1,0.2c0.1,0,0.2-0.3,0.2-0.4c0-0.1,0.1-0.2,0.1-0.1
		c0,0,0,0.1-0.1,0.2c0,0.1-0.1,0.2-0.1,0.2c0.1,0,0.2-0.1,0.2-0.2s0.1-0.6,0-0.6c-0.1,0-0.5-0.1-0.4-0.1
		C44.4,19.3,44.5,19.3,44.7,19.3 M47.1,8.8c0,0.1-0.6,1-0.7,1.2c-0.1,0.2-0.3,0-0.3,0l-0.1,0.2l0.7,0.3l0.1-0.2c0,0-0.2-0.2-0.1-0.2
		c0.1-0.1,0.7-1.1,0.7-1.2c0,0,0.2,0.1,0.2,0.1l0.2-0.2c0,0-0.2-0.1-0.3-0.2c-0.1-0.1-0.4-0.2-0.4-0.2L47,8.6
		C47,8.6,47.1,8.7,47.1,8.8 M42.5,3l-0.1,0.1l1-0.1l0-0.1 M42.4,3.3L42.4,3.3l0.7,0c0.1,0,0.5,0,0.5,0l0-0.1c0,0-0.3,0-0.5,0
		L42.4,3.3 M7.4,25.3l0.1,0.1c0,0,0.1-0.1,0.2-0.2c0.1-0.1,0.5-0.3,0.5-0.3S8,25,7.9,25.1C7.7,25.1,7.4,25.3,7.4,25.3 M42.6,2.7
		L42.6,2.7l0.6,0l-0.1-0.1 M8.2,19.2c0.1,0,0.4,0,0.4,0c0,0,0.1-0.1,0.1-0.1H8.2c-0.1,0-0.5,0.1-0.5,0.1l0,0.1c0,0,0.1,0,0.2,0
		C7.8,19.3,8.1,19.2,8.2,19.2 M8.4,24.6l0.1-0.2c0,0-0.1,0-0.1,0.1c-0.1,0-0.6,0.2-0.8,0.3c-0.1,0-0.3,0.2-0.3,0.2s0.2,0,0.4-0.2
		C8,24.8,8.5,24.6,8.4,24.6 M7.8,19.8c-0.1,0-0.3,0-0.3,0.1C7.5,19.9,7.8,19.9,7.8,19.8C7.9,19.9,8.1,20,8.2,20c0.1,0,0.1,0,0.2,0
		c0,0-0.1-0.1-0.2-0.1C8.1,19.8,7.8,19.8,7.8,19.8 M7.9,19.5c0.1,0,0.4,0,0.5,0c0.1,0,0.1,0,0.1-0.1c0,0-0.7,0-0.7,0
		c-0.1,0-0.4,0.1-0.5,0.1s0,0,0,0.1c0,0.1,0.3-0.1,0.4-0.1C7.8,19.5,7.9,19.5,7.9,19.5 M43.3,1.9c0-0.1-0.3-0.1-0.3-0.1
		s0.1,0,0.1,0.1S43,2,43,2S43.3,2,43.3,1.9 M8.6,18.8c0.1,0,0.3-0.1,0.3-0.2c0,0-0.4,0.1-0.5,0.1C8.3,18.8,7.7,19,7.7,19l0,0.1
		c0,0,0.2-0.1,0.3-0.1C8.1,18.9,8.5,18.8,8.6,18.8 M7,18c0,0,0.1-0.4,0.1-0.5c0-0.1,0-0.7,0-0.8s-0.1-0.2-0.1-0.2
		C7,16.5,7,16.7,7,16.7c0,0.1,0,0.7,0,0.7c0,0.1-0.1,0.4,0,0.4C7,17.9,7,18,7,18 M10.2,23.3L10,23.4c0,0,0.5,0.2,0.7,0.2
		c0.2,0,0.3,0,0.2-0.1C10.7,23.5,10.2,23.3,10.2,23.3 M63.2,9.3c0,0-0.2,0-0.2,0c-0.1,0-0.3,0.4-1.1,0.5C61,10,60.7,9.3,60.7,9.3
		s0,0.2,0,0.3c0,0.1,0.5,0.5,1.4,0.5C63,10.2,63.2,9.5,63.2,9.3 M62,7.7c0.1,0.3,0,0.4,0.2,0.5c0.2,0,0.1-0.4,0.1-0.4s0.4,0,0.4,0.2
		c0,0.3-0.1,0.4-0.5,0.4c-0.4,0-0.5-0.4-0.4-0.5C61.9,7.7,62,7.7,62,7.7 M62.1,8.7c0.9,0.3,1-0.2,1-0.2s0.4,0.4,1,0.4
		c0.6,0,0.8-0.3,0.8-0.3s-0.3,0.1-1.2-0.1s-0.7-1-0.7-1s-0.2-0.1-0.4-0.2c-0.3-0.1-0.9-0.1-0.9-0.1l-0.2,0.3c0,0-0.8,0.1-0.9,0.3
		c0,0-0.2,0.3,0.1,0.2c0.3-0.1,0.9-0.2,0.9-0.2S61.2,8.4,62.1,8.7 M65.5,18l0.2,0.1l0.6-0.5l-0.1-0.1 M10.4,23.1l-0.2,0.1
		c0,0,0.7,0.1,0.8,0.1c0.1,0,0.2-0.1,0.1-0.1L10.4,23.1L10.4,23.1z M10.8,22.8l-0.2,0.2c0,0,0.4,0,0.5,0s0.2-0.1,0.1-0.1
		C11.1,22.8,10.8,22.8,10.8,22.8 M7.9,18c0,0,0.2-0.4,0.2-0.5c0.1-0.1,0.2-0.3,0.3-0.3c0.1,0,0.2-0.2,0.1-0.2c0,0-0.1,0-0.2,0.1
		c0,0-0.3,0.2-0.3,0.3c-0.1,0.1-0.2,0.4-0.2,0.5C7.8,18,7.9,18,7.9,18 M51.3,20l-1.2-0.4l0-0.1l-0.2-0.1c0,0-0.1,0.2-0.1,0.2
		c0,0-0.1,0.4-0.1,0.4l0.3,0.1l0.1-0.2l0.9,0.3c0,0,0,0.1-0.1,0.1c-0.1,0-1.1,0.3-1.2,0.3c0,0-0.3,0-0.3,0l-0.1,0.2l0.2,0.1l1.3,0.6
		l-0.1,0.2l0.2,0.1l0.3-0.6L51,21.1l-0.1,0.2L50.3,21c0,0-0.2-0.1-0.1-0.1l1.3-0.4c0,0,0.1-0.2,0.1-0.3l0.1-0.2l-0.3-0.1L51.3,20
		L51.3,20z M49.6,23.3c-0.1-0.1-0.8-0.6-0.8-0.6l-0.1-0.1l0.1-0.2l-0.2-0.1c0,0-0.3,0.3-0.3,0.4c-0.1,0.1-0.5,0.7-0.5,0.7l0.3,0.4
		l0.1-0.1c0,0-0.1-0.4,0-0.5c0-0.1,0.3-0.3,0.3-0.3c0.1,0,0.3,0.2,0.3,0.2s-0.1,0.2-0.2,0.2c-0.1,0-0.2,0-0.2,0l-0.1,0.1l0.6,0.5
		l0.1,0c0,0-0.1-0.1-0.1-0.2c0-0.1,0.2-0.2,0.2-0.2s0.4,0.2,0.3,0.5c-0.1,0.2-0.5,0.2-0.5,0.2l-0.1,0.2l0.4,0.3l0.9-1.2l-0.2-0.2
		C49.8,23.1,49.7,23.3,49.6,23.3 M51.6,18.4c-0.1,0-1-0.1-1.2-0.1S50.3,18,50.3,18l-0.2,0c0,0,0,0.2,0,0.5c0,0.3-0.2,0.7-0.2,0.7
		l0.8,0.3l0.1-0.1c0,0-0.3-0.2-0.5-0.4c-0.2-0.2,0-0.3,0.1-0.3s0.3,0,0.4,0s0.1,0.2,0.1,0.3c0,0.1-0.3,0.1-0.3,0.1l0,0.1l0.9,0
		l0-0.1c0,0-0.1,0-0.2-0.1c-0.1-0.1,0.1-0.3,0.1-0.3s0.1,0,0.2,0c0.1,0,0.3,0,0.3,0.1s-0.1,0.5-0.1,0.6c-0.1,0.1-0.4,0-0.4,0l0,0.2
		l0.7,0.2c0,0,0.1-0.5,0.1-0.7c0-0.3,0-0.9,0-0.9h-0.3C51.7,18.1,51.7,18.4,51.6,18.4 M50.2,21.8c-0.2,0-0.5,0.1-0.8,0.2
		c-0.3,0.1-0.4-0.2-0.2-0.2c0.3-0.1,0.4-0.1,0.4-0.1l0.1-0.1l-0.6-0.4l-0.1,0.1l0.1,0.1c0,0-0.4,0.2-0.5,0.4c0,0.2,0,0.6,0.4,0.6
		c0.4,0,0.8-0.1,0.9-0.1s0.2,0.1,0.1,0.2c-0.1,0.1-0.5,0-0.5,0l-0.2,0.1l0.5,0.5l0.2-0.2l-0.1-0.1c0,0,0.4-0.1,0.4-0.4
		C50.8,22.1,50.4,21.8,50.2,21.8 M49.8,13.6l-0.1-0.1l-0.3,0.1l0.5,1.2l0.6-0.2l-0.1-0.2L50,14.3l-0.1-0.3l1.2-0.4l0.1,0.1l0.2-0.1
		c0,0-0.2-0.6-0.3-0.7L50.9,13l0.1,0.2C51,13.2,49.8,13.6,49.8,13.6z M51.4,14.4c0,0.1-0.5,0.8-0.6,0.9c-0.1,0-0.5,0-0.6,0
		c-0.1,0-0.1-0.3-0.1-0.3l-0.3,0l0.1,1l0.2,0l0.1-0.3l0.7,0l0.6,0.5l0,0.1h0.3l-0.1-0.7l-0.2,0l0.1,0.3c0,0.1,0,0-0.1,0
		c-0.1,0-0.4-0.3-0.4-0.3l0.4-0.5l0.1,0.2l0.2-0.1l-0.2-1l-0.2,0.1C51.4,14.2,51.4,14.3,51.4,14.4"/>
	<path class="st0" d="M50.6,14.8l0.2,0.2l0.2-0.2l-0.2-0.2 M50.7,16.2l0.2,0.3l0.3-0.3L51,16 M51.4,17.7c-0.5,0-0.4-0.5-0.4-0.5h0.6
		C51.6,17.2,51.7,17.7,51.4,17.7 M51.6,16.7c0,0.1-0.1,0.1-0.1,0.1l-1,0c-0.1,0-0.1-0.2-0.1-0.2H50l0,0.1l0,0.7l0.2,0.1v-0.2h0.4
		c0,0-0.1,0.8,0.5,0.8c0.6,0,0.8-0.2,0.8-0.5c0-0.4,0-1,0-1l-0.3,0C51.5,16.5,51.5,16.7,51.6,16.7"/>
	<g>
		<path class="st0" d="M79.2,28.5c-2.1,0.1-6.7,0.3-10.4-0.3c-3.8-0.6-7.6-1.8-8.4-2c-0.8-0.3-4.3-1.3-5.3-1.3
			c-1.5,0-4.2,1.6-4.6,2.2l0.3-0.5c0,0,0-0.6-0.1-0.8c-0.1-0.2,0.2,0.1,0.2,0.3l0.1,0.3l0.2-0.2c0,0,0-0.2,0-0.4S51,25.3,51,25.3
			s0.2,0.3,0.3,0.4l0.1,0.3l0.2-0.1c0,0,0-0.3-0.1-0.5L51.2,25c0,0,0.2,0.3,0.3,0.4c0,0.1,0.2,0.4,0.2,0.4l0.1-0.1
			c0,0-0.1-0.5-0.1-0.6c-0.1-0.2-0.1-0.4-0.1-0.4s0.2,0.5,0.3,0.6c0,0.1,0.1,0.4,0.1,0.4l0.1-0.2c0,0,0-0.5-0.1-0.7
			s-0.2-0.6-0.2-0.6s0.2,0.3,0.3,0.6c0.1,0.3,0.2,0.5,0.2,0.5l0.1-0.2c0,0-0.1-0.7-0.2-0.9c-0.1-0.2-0.2-0.5-0.2-0.5
			s0.2,0.3,0.3,0.6s0.3,0.8,0.3,0.8l-0.1-0.9l-0.2-0.8c0,0,0.2,0.4,0.3,0.6l0.3,1c0,0-0.2-1-0.3-1.3c-0.1-0.3-0.2-0.7-0.2-0.7
			s0.3,0.4,0.3,0.6c0.1,0.2,0.3,0.9,0.3,0.9l0.1-0.1c0,0-0.2-0.9-0.3-1.1c-0.1-0.2-0.3-0.6-0.3-0.6l0.6-0.9c0,0,1.6-0.3,2.6-0.2
			c1,0.2,5.6,1.4,7.9,2.1c2.2,0.7,6.4,1.2,7.3,1.4c0.8,0.1,2.1,0.2,2.1,0.2l0.1,0.3l-0.5,0l0.2,0.2c0,0,0.3,0.1,0.4,0.3
			c0.1,0.2,0.6,1.4,0.7,1.5c0,0.1-0.2,0.2-0.2,0.2c-0.1,0-0.2,0-0.2,0l0.1,0.2l1.8,0.1L75.2,28c0,0-0.3-0.1-0.5-0.3
			c-0.2-0.2-0.4-0.9-0.4-0.9s0.6,0.5,1.1,0.6s0.7,0.1,0.7,0.1l0.1,0.4L75.8,28l0.1,0.2c0,0,1.1,0,1.4,0c0.3,0,0.7,0,0.7,0l-0.2-0.3
			c0,0-0.2,0.1-0.5-0.2c-0.3-0.4-0.4-0.6-0.4-0.6s0.2-0.1,0.2-0.3c0-0.2,0-0.3,0-0.3s0.2,0,0.3,0c0.1,0,0.3-0.1,0.4,0
			c0.2,0.2,0.2,0.3,0.2,0.3l0.6,0l-0.5-0.9l-1,0L77,25.4c0,0,1.1,0,1.4,0.2c0.2,0.2,1,0.8,1,0.8l-0.6,0.6l1,0.6l0.7-0.6l-0.7-0.5
			l0.1-0.2c0,0-0.1-0.4-0.3-0.6c-0.2-0.2-0.3-0.5-0.3-0.5s0.7,0,0.9,0.1c0.3,0.1,0.9,0.3,0.9,0.3l0.1-0.2c0,0-0.1-0.1-0.3-0.2
			c-0.2-0.1-0.6-0.5-0.6-0.5s0.5,0.2,0.9,0.3c0.4,0.1,1,0.2,1,0.2s0-0.4-0.2-0.5c-0.2-0.1-0.6-0.4-0.6-0.4s0.8,0.2,1,0.2
			c0.2,0,0.9,0.3,0.9,0.3s-1.2,0.8-1.6,1s-1.4,0.7-1.4,0.7l0.1,0.2c0,0,1.8,0.2,2.3,0.4c0.6,0.1,1.8,0.4,2.1,0.5
			c0.3,0.1,0.6,0.3,0.6,0.3l-0.1,0.1c0,0-3.8,0.7-5.9,0.8L79.2,28.5z M49,26.6l0.1-0.1c2.6-1.7,3.9-4.9,3.9-9.4c0-4.8-2.2-7.3-4-8.9
			l-0.1-0.3c1.9,1.6,4.4,4.3,4.4,9.2C53.3,21.6,51.8,24.8,49,26.6z M48.7,27.3c-0.6,0.1-2.9,0.1-5.3-0.8c-2.3-0.9-3.7-2.7-3.9-3
			c-0.2-0.3,0-0.4,0.2-0.2c0,0,0.8,1,1.7,1.7c0.9,0.7,2.4,1.5,3.2,1.7c0.9,0.2,2.8,0.5,3.1,0.5c0.2,0,1.2,0,1.3,0
			C49.1,27.1,49.2,27.2,48.7,27.3L48.7,27.3z M46,28.1c-0.1,0,0.2-0.3,0.4-0.4c0.2-0.1,0.7,0,0.7,0L46,28.1z M43.2,28.8
			c-0.1,0-0.2-0.1-0.2-0.1l2.6-1.2l0.4,0.1L43.2,28.8L43.2,28.8z M45.4,28.6c-0.2,0-0.4-0.2-0.4-0.2C45.4,28.4,45.7,28.6,45.4,28.6
			L45.4,28.6z M45.3,28.2c-0.2,0-0.3,0-0.3,0c0.3-0.1,0.4-0.1,0.6,0C45.7,28.3,45.5,28.2,45.3,28.2L45.3,28.2z M44.1,28.9l0.4-0.2
			c0.2-0.1,0.5,0,0.4,0.1c-0.1,0.1-0.6,0.2-0.6,0.2L44.1,28.9L44.1,28.9z M45.4,29.5c-0.5,0.2-2.5,0.2-5.2-1
			c-2.7-1.3-3.9-3.5-3.9-3.5c0.1,0.2,2,2.5,4.4,3.5c2.4,1,3.8,1.1,4.5,1C45.7,29.4,45.6,29.5,45.4,29.5L45.4,29.5z M41.1,29.5
			c-0.1,0.1-0.3,0.1-0.3,0c0-0.1,0-0.3,0.1-0.2s0.1,0.1,0.1,0.1c0,0,0.1-0.2,0.1-0.2C41.2,29.3,41.2,29.4,41.1,29.5L41.1,29.5z
			 M39.8,29.9c0,0-0.8-0.1-1.1-0.2c-0.3,0-0.7-0.1-0.7-0.1c-0.1,0-0.1-1.4-0.1-1.5c0-0.1,0-0.2,0.1-0.3c0,0,0.5,0.3,0.7,0.4
			s0.2,0.4,0.2,0.5c0,0.1-0.3,0.3-0.4,0.5c-0.1,0.1,0,0.2,0.1,0.3c0.1,0,0.3-0.2,0.5-0.3c0.1-0.2,0.2-0.2,0.5-0.2
			c0.3,0,0.8,0.5,0.8,0.5S39.8,30,39.8,29.9L39.8,29.9z M40.1,30.1c0.1-0.1,0.2,0.3,0.2,0.3S39.9,30.1,40.1,30.1z M35.3,24.4
			c-0.5-0.2-0.4-0.6-0.4-0.6s0.2,0.2,0.5,0.3c0.3,0.1,0.7-0.1,1-0.1c0.3,0,2.2-0.9,2.5-1.3c0.3-0.4-0.3-1.2-0.6-1.5
			c-0.2-0.3-0.5-1.4-0.5-1.7s-0.3-0.6-0.6-0.6c-0.2,0-1,0.4-1.4,0.5c-0.2,0-0.3-0.4-0.1-0.5c0,0,1.1-0.4,1.4-0.3
			c0.3,0,0.6,0.3,0.7,0.6c0.1,0.3,0.2,0.8,0.2,1.1c0,0.3,0.4,0.9,0.6,1.1s0.6,0.7,0.5,1.1c-0.1,0.4-0.1,0.8-1.3,1.4
			S35.8,24.6,35.3,24.4L35.3,24.4z M34.3,25.3c-0.7-0.5-2.2-0.9-3.3-0.7c-1.1,0.2-8.4,2.5-8.9,2.6c-0.5,0.1-3.4,1-5.7,1.2
			c-1.2,0.1-7.2-0.1-7.2-0.1S5,28.1,3.2,27.9c-1-0.1-1.9-0.4-1.9-0.4s2.2-0.4,2.8-0.5c0.6-0.2,2.1-0.6,2.1-0.6l-3.3-1.5
			c-0.8-0.3-2-1.2-2-1.2s0.7,0.1,0.9,0.1S2.5,24,2.5,24l-0.2,0c0,0,0.3,0.2,0.6,0.2s0.3,0,0.3,0l-0.4,0.3c0,0,0.3,0.1,0.6,0
			c0.2,0,0.5-0.2,0.5-0.2s-0.1,0.4,0,0.4c0.1,0,0.3-0.3,0.3-0.3c0,0,0.6,0.1,0.6,0.1l-0.2,0.3c0,0,0.3-0.2,0.5-0.2
			c0.2,0,0,0.6,0,0.6l0.2-0.3l0,0.5c0,0,0-0.3,0.1-0.5c0.1-0.2,0.3-0.5,0.3-0.5h0.1c-0.1,0.1-0.3,0.4-0.3,0.5
			c-0.1,0.1-0.1,0.2-0.2,0.5c0,0.2,0,0.5,0,0.6c0.1,0,0.2-0.3,0.3-0.4c0.1-0.1,0.7-0.5,0.7-0.5S6.7,26,7.2,26s0.9-0.1,1-0.1
			c0.1,0,0.1-0.1,0.1-0.1l0.2,0.3l-1.3,0.4c0,0,0.3,0.9,0.4,1c0,0,0.4-0.2,0.7-0.3C8.6,27,9,26.9,9,26.9l-0.3-0.7
			c0,0,0.5,0.3,0.9-0.1c0.6-0.6,0.5-1,0.5-1s4.4,0.2,5.9,0c1.5-0.2,9.1-2.4,9.7-2.7c0.6-0.3,2.6-0.7,2.6-0.7l0.3,0.4l-2.4,0.7
			L25.8,24l0.3-0.1c0,0,0.3-0.8,0.5-0.9c0.2-0.1,0.5-0.2,0.5,0c-0.1,0.2-0.3,1.7-0.4,1.8c-0.1,0.1-0.5,0.2-0.5,0.2l-0.1,0.4
			c0,0,0.8-0.3,1.1-0.4l1.1-0.4l0.1-0.4c0,0-0.4,0.1-0.5,0.1c-0.1,0,0-0.4,0-0.5c0-0.1,0.2-1,0.2-1.1c0-0.1,0.3-0.4,0.4-0.3
			c0.1,0.1,0.1,0.4,0.1,0.4h0.2c0,0-0.2,0.4-0.1,0.4c0.1,0,0.4,0,0.6,0c0.2,0,0.4-0.1,0.4-0.1s-0.2,0.5-0.3,0.8
			c-0.1,0.3-0.1,0.5-0.1,0.5s0.2-0.4,0.3-0.6c0.1-0.2,0.4-0.6,0.4-0.6s-0.1,0.3-0.1,0.6c-0.1,0.3-0.1,0.5-0.1,0.5s0.2-0.6,0.3-0.7
			c0.1-0.1,0.3-0.4,0.3-0.4s0,0.4-0.1,0.7s-0.1,0.4-0.1,0.4s0.3-0.5,0.4-0.7c0.1-0.2,0.2-0.3,0.2-0.3s0,0.1-0.1,0.5
			c-0.1,0.3-0.1,0.4-0.1,0.4s0.2-0.4,0.3-0.5c0.1-0.1,0.2-0.5,0.2-0.5s0,0.1,0,0.4c0,0.3-0.1,0.5-0.1,0.5s0.2-0.3,0.3-0.4
			c0-0.2,0.2-0.5,0.2-0.5s0.1,0.3,0,0.5s-0.2,0.5-0.2,0.5s0.3-0.4,0.4-0.5c0.1-0.1,0.3-0.5,0.3-0.5s0.1,0.2,0,0.4
			c-0.1,0.2-0.2,0.5-0.2,0.5s0.3-0.4,0.3-0.5c0-0.1,0.2-0.5,0.2-0.5s0,0.5-0.1,0.6c-0.1,0.2-0.2,0.4-0.2,0.4s0.3-0.3,0.4-0.5
			c0.1-0.3,0.3-0.8,0.3-0.8s0.1,0.5,0,0.8c0,0.2-0.1,0.5-0.1,0.5s0.4-0.5,0.4-0.7c0.1-0.2,0.2-0.6,0.2-0.6s0,0.6-0.1,0.9
			c-0.1,0.4-0.2,0.5-0.2,0.5s0.3-0.4,0.3-0.5c0-0.2,0.2-0.8,0.2-0.8s0.1,0.6,0,0.9c-0.1,0.3-0.2,0.7-0.2,0.7s0.3-0.3,0.3-0.5
			l0.1-0.6c0,0,0,0.4,0,0.7c0,0.3-0.1,0.6-0.1,0.6s0.2-0.2,0.3-0.5c0-0.3,0-0.4,0-0.4s0.1,0.4,0.1,0.7c0,0.3,0,0.5,0,0.5
			s0.2-0.2,0.2-0.3c0-0.1,0.2-0.5,0.2-0.5s0,0.3,0,0.5c0,0.2,0,0.5,0,0.5l0.2,0.1l0.2-0.6v0.7l0.2,0.2l0.2-0.5l0,0.7l0.2,0.2
			l0.1-0.5l0.1,0.7l0.1,0.2l0.2-0.5c0,0,0,0.5,0,0.6c0,0.1,0.2,0.6,0.2,0.6s-1.4-1.5-1.9-1.8L34.3,25.3z M5.5,23.8
			c0,0-0.3,0.4-0.3,0.4c-0.1,0-0.3,0-0.3,0L5.5,23.8L5.5,23.8z M5.9,24.1c-0.1,0.2-0.4,0.5-0.4,0.5c0,0-0.1,0.1-0.1,0.1l-0.1-0.1
			c0,0,0.2-0.2,0.2-0.3C5.7,24.2,5.9,24,5.9,24.1L5.9,24.1L5.9,24.1z M4,22.5c-0.1,0-0.1-0.2,0-0.3c0.1-0.1,0.3-0.4,0.3-0.4
			c0,0,0-0.1,0-0.1c0,0,0.2-0.1,0.2-0.2c0,0,0.1-0.1,0.2-0.2C4.8,21.2,5.1,21,5.1,21c0,0,0.2,0,0.2,0.1c0,0,0.2,0.1,0.2,0.1
			c0.1,0,0.2-0.1,0.2-0.1c0.1,0,0.2-0.2,0.3-0.2c0.1,0-0.1,0.1,0,0.1s0.1-0.2,0.1-0.2c0.1,0,0.2-0.2,0.3-0.2c0.1,0,0,0.1,0.1,0.1
			c0.1,0,0.2-0.1,0.2-0.1s-0.2-0.1-0.2-0.1c0,0,0-0.1,0.1-0.2c0-0.1,0-0.2,0-0.2s0.1,0,0.2,0.1C7,20.1,7,20.3,7,20.3s0-0.1,0-0.1
			c0,0,0-0.2,0-0.1c0,0,0.2,0.4,0.2,0.4c0,0.1,0.3,0.3,0.3,0.4c0,0-0.1,0.3-0.1,0.4s0,0.1,0,0.1c0,0-0.7,0.3-0.7,0.4
			c-0.1,0-0.1,0.1-0.1,0.1c-0.1,0.1-0.4,0.2-0.5,0.3c-0.1,0-0.1,0-0.1,0.1c-0.1,0-0.2,0-0.3,0c-0.1,0-0.5,0.1-0.6,0.2
			S4.2,22.5,4,22.5L4,22.5z M5.1,20.4c-0.1,0-0.4,0.1-0.3-0.1c0.1-0.1,0.2-0.3,0.2-0.3c0.1,0,0.1,0,0.1,0.1
			C5.3,20.3,5.3,20.4,5.1,20.4L5.1,20.4z M3.6,21.4c-0.2,0-0.6,0.2-0.6-0.1c0-0.2,0-0.3,0-0.4c0-0.1,0.1-0.3,0.2-0.4
			c0.1,0,0.3-0.2,0.3-0.4s0.1-0.6,0.1-0.8c0-0.1,0.2-0.2,0.3-0.2c0.2,0,0.8,0,0.8,0s-0.1,0.1-0.2,0.2c0,0.1-0.2,0.4,0,0.4
			c0.2,0,0.5-0.1,0.6-0.1c0.1,0,0,0.1,0,0.1s0,0.1-0.2,0.1l-0.3,0L5,20.2c0,0-0.2,0.1-0.3,0.2s0,0.1,0,0.2s0.1,0.2,0.2,0.1l0.2,0
			c0,0,0,0.1,0,0.2c-0.1,0-0.2,0.2-0.4,0.2C4.5,21.2,3.9,21.5,3.6,21.4L3.6,21.4z M2.7,20.7c0.1,0,0.6-0.3,0.6-0.4
			c0.1-0.1,0.1,0,0,0.1c-0.1,0-0.2,0.1-0.3,0.2C3,20.6,2.7,20.7,2.7,20.7L2.7,20.7z M2.4,20.5c0.1-0.1,0.3-0.4,0.5-0.4
			C3.1,20,3.4,20,3.4,20s-0.1,0.1-0.2,0.2c-0.1,0.1-0.4,0.2-0.5,0.2C2.6,20.5,2.4,20.6,2.4,20.5L2.4,20.5z M1.9,20.2
			C2,20.1,2.3,20,2.5,20c0.2,0,0.5,0,0.5,0s-0.1,0-0.3,0.1c-0.2,0.1-0.3,0.1-0.4,0.1C2.1,20.2,1.9,20.2,1.9,20.2L1.9,20.2z M4,17.1
			c0,0,0.3,0.1,0.4,0.1l0.1,0l0-0.1c0,0-0.1,0-0.2-0.1S3.9,16.9,4,16.9c0.1,0,0.3,0,0.4,0h0.1l0-0.1c0,0-0.1,0-0.2,0
			c-0.1-0.1-0.2-0.1-0.2-0.1s0.2,0.1,0.3,0l-0.1-0.1l0.2,0l-0.1,0c-0.1,0-0.2-0.1-0.2-0.1h0.3c0,0,0-0.1-0.1-0.2
			c0-0.1-0.2-0.3-0.2-0.3L4.4,16l0-0.2c0-0.1,0-0.4,0-0.4c0,0.1,0.3,1,0.2,1.1c0,0.1,0,0.6,0,0.7c0,0.1,0.1,0.2,0.1,0.2
			s0,0.1-0.1,0.1c-0.1,0-0.2,0-0.4-0.1L4,17.1L4,17.1z M5.4,17.3C5.5,17.2,5.7,17,5.8,17c0.1,0,0.1,0,0.2,0c0.1,0,0.3,0.1,0.4,0.2
			c0.1,0.1,0.1,0.5,0.1,0.5s-0.1,0.1-0.2,0.2c-0.1,0.2,0,0.4,0,0.5c0,0-0.1,0-0.2-0.1c-0.1-0.1,0-0.4,0.1-0.6l0.1-0.3l-0.1,0
			c0,0-0.1,0-0.1,0.4c0,0.4,0,0.7,0,0.7S6,18.2,6,18.2c0,0-0.2-0.1-0.2-0.1s0-0.3,0-0.4c0-0.1-0.1-0.4-0.1-0.4l-0.1,0.1l0.1,0.8
			l-0.1,0.1c0,0-0.1-0.2-0.2-0.3c0-0.1-0.1-0.3-0.1-0.3s0,0.1,0.1,0.2c0,0.1,0.2,0.4,0.2,0.4l0,0c-0.1,0.1-0.1,0.2-0.1,0.2
			s-0.2-0.1-0.3-0.3c-0.1-0.2-0.4-0.4-0.4-0.4s0.2,0.4,0.2,0.5c0.1,0.1,0.1,0.2,0.1,0.3c0,0.1-0.1,0.1-0.1,0.2c0,0-0.2,0-0.4-0.1
			c-0.1-0.1-0.2-0.3-0.3-0.4s0-0.2,0.1-0.3c0-0.1,0.1-0.2,0.2-0.2c0.1-0.1,0.1,0,0.2-0.1C4.9,17.7,5.4,17.4,5.4,17.3L5.4,17.3z
			 M6.2,19.8c-0.1,0-0.1,0,0-0.1c0-0.1,0.1-0.1,0.1-0.2c0,0,0,0,0.1,0s0,0,0,0.1s0.1,0,0.1,0c0.1-0.1,0.1,0,0.1,0.1
			s-0.1,0.1-0.2,0.2C6.4,19.8,6.3,19.8,6.2,19.8L6.2,19.8z M6.2,18.6c0,0,0.2-0.1,0.3-0.1c0.1,0,0.1,0,0.1,0.1
			c0,0.1-0.2,0.1-0.3,0.1S6.2,18.6,6.2,18.6L6.2,18.6z M6.2,18.9c0,0,0.1,0,0.2,0s0.1,0,0.1,0.1c0,0-0.1,0.1-0.1,0.2
			c-0.1,0.1-0.1,0-0.2,0S6.2,18.9,6.2,18.9L6.2,18.9z M5.9,20.2c0.1,0,0.1,0,0.2,0c0.1,0,0.1-0.1,0.1-0.1c0,0,0,0,0,0.1
			c0,0.1,0,0.2-0.1,0.2c0,0-0.3,0.1-0.3,0S5.9,20.2,5.9,20.2L5.9,20.2z M5.7,18.9c-0.1,0-0.1-0.1-0.1-0.2c0,0,0.1-0.1,0.1-0.1
			c0.1,0,0.2-0.1,0.2-0.1c0,0.1,0.1,0.1,0.1,0.2C6,18.7,5.8,18.9,5.7,18.9L5.7,18.9z M5.8,20.7c0,0.1,0,0.1-0.1,0.2c0,0-0.2,0-0.2,0
			c-0.1,0-0.1,0-0.1-0.1c0-0.1,0-0.2,0-0.2h0.1c0.1,0,0.1,0,0.1,0.1C5.7,20.7,5.8,20.7,5.8,20.7L5.8,20.7z M5.7,20.1
			c0,0-0.2,0-0.3,0c-0.1-0.1,0-0.2,0-0.3c0,0,0.2,0,0.2,0c0.1,0,0.1,0,0.1,0.1C5.8,20,5.8,20.1,5.7,20.1z M5.5,18.5
			c-0.1-0.1,0-0.1,0-0.1s0.2-0.1,0.2-0.1c0,0,0.1,0.1,0,0.2c0,0-0.1,0.1-0.1,0.1S5.6,18.6,5.5,18.5L5.5,18.5z M5.3,19.3
			c0,0,0.1-0.1,0.2-0.1c0.1,0,0.1,0.1,0.1,0.1s0.1,0,0.1,0c0.1,0,0,0.1,0,0.2c0,0-0.2,0.1-0.2,0.2c-0.1,0.1-0.2,0-0.2,0
			C5.3,19.4,5.3,19.3,5.3,19.3L5.3,19.3z M5.2,19.5c0,0-0.1,0-0.2,0.1c-0.1,0-0.1,0.1-0.2,0c-0.1,0-0.1,0-0.1-0.1s0.1,0,0.1-0.1
			c0-0.1,0.1-0.1,0.1-0.2c0,0,0.1,0.1,0.2,0.1C5.2,19.4,5.2,19.5,5.2,19.5L5.2,19.5z M5,19c0-0.1,0.1-0.1,0.1-0.1s0-0.1,0.1-0.1
			c0,0,0.1-0.1,0.1-0.1c0,0,0.1,0,0.1,0.1C5.4,18.9,5.5,19,5.4,19c-0.1,0-0.1,0-0.1,0s0,0.1-0.1,0.1C5.2,19.1,5,19.2,5,19L5,19z
			 M6.5,18c0,0,0.1-0.1,0.1-0.2c0,0,0.2,0.1,0.2,0.2s-0.3,0.2-0.3,0.2C6.5,18.2,6.5,18,6.5,18L6.5,18z M7.2,16.5
			c0.1,0,0.5-0.2,0.6-0.2c0.1,0,0.3-0.1,0.3,0c0.1,0.1,0.3,0.3,0.4,0.4c0,0.1,0.2,0.3,0.2,0.2c0.1,0,0.1,0,0.2,0.1s0.1,0.1,0.1,0.2
			c0,0,0,0.2-0.1,0.3s-0.8,0.7-0.9,0.7c-0.1,0-0.4-0.1-0.5-0.1S7.6,18.1,7.6,18c0-0.1,0.1-0.2,0.1-0.3c0-0.1,0.1-0.5,0.2-0.5
			c0,0,0.1-0.1,0.1-0.1c0,0,0.1-0.5,0.1-0.5l-0.1,0c0,0,0,0.2,0,0.2c0,0.1-0.1,0.2-0.1,0.3c0,0-0.2,0.5-0.2,0.6
			c0,0.1-0.1,0.2-0.1,0.2s0,0.1,0,0.1s0.1,0.1,0,0.1c-0.1,0-0.1,0-0.2,0c-0.1,0-0.2,0-0.2,0c0,0-0.2,0.3-0.2,0.3
			c0,0-0.1,0.1-0.1,0.1l0-0.1c0,0,0.1,0,0.2-0.1C7,18.2,7,18.2,7,18.2S7,18,6.9,17.9c0-0.1-0.2-0.2-0.2-0.2s0-0.3,0-0.3
			c0-0.1,0.1-0.4,0-0.5c0-0.1-0.1-0.1-0.1-0.1C6.7,16.7,7.2,16.5,7.2,16.5L7.2,16.5z M6.8,12.5c-0.3,0-0.8,0.2-1.4,0.2
			c-0.6,0-0.8-0.2-0.9-0.4c0,0,0.6,0.3,1,0.3c0.3,0,0.6-0.3,1.1-0.3c0.5-0.1,0.7,0,1,0.1s0.7,0.9,0.6,1.2c0,0.4-0.3,0.8-0.1,1.3
			c0.2,0.5,0.9,0.6,1.2,0.5c0.4-0.1,0.8-0.8,0.8-0.8l-0.7,0.2c-0.1,0-0.4,0.1-0.6-0.2c-0.3-0.3-0.1-0.9-0.1-1.3
			c0-0.3-0.5-0.7-0.5-0.7s0.8,0.2,0.8,0.7c0,0.3-0.2,0.8-0.1,1.2s0.8,0,1.3-0.2c0.6-0.2,1.8-0.3,2.5-0.3s1.6,0.1,2,0.4
			c0.4,0.3,1.2,2.4,1.2,2.8c0,0.4-0.5,0.7-0.5,0.7s0.2-0.5,0.2-0.7c0-0.2-0.1-0.7-0.4-1.4c-0.3-0.6-0.6-1.1-1-1.2
			c-0.3-0.1-2.2-0.1-2.7,0c-0.5,0.1-0.9-0.1-1.4,0.5c-0.8,1.1-1.5,0.9-2.1,0.5c-0.6-0.3-0.5-1.1-0.4-1.4c0.1-0.5,0.1-0.6-0.1-0.9
			C7.6,12.7,7.2,12.6,6.8,12.5L6.8,12.5z M9.9,13.1c0,0.2,0,0.7,0,0.8s0.2,0.2,0.2,0.2S9.7,14,9.7,13.9c0-0.2,0-0.8,0-0.9
			s-0.1-0.2-0.1-0.2C9.7,12.8,9.9,12.9,9.9,13.1L9.9,13.1z M10.7,24c-0.6-0.2-0.8-0.2-0.9-0.2H9.4c0,0,0.7-0.5,0.9-0.7
			c0.2-0.2,0.5-0.5,0.6-0.5s0.6-0.1,0.6,0.4C11.5,23.4,11.3,24.2,10.7,24L10.7,24z M9.5,24l0.2,0c0,0,0.3,0.2,0.5,0.2
			c0.2,0.1,0.5,0.3,0.4,0.4c-0.1,0.1-0.2,0-0.6-0.2C9.8,24.1,9.6,24,9.5,24L9.5,24z M8.9,25.1c0.2-0.2,0.3-0.8,0.3-0.9
			c0,0,0.1,0.1,0.2,0.2c0.1,0.1,0.5,0.1,0.5,0.7c0,0.4-0.6,0.8-0.9,0.9c-0.3,0.1-0.5-0.4-0.5-0.4S8.8,25.4,8.9,25.1L8.9,25.1z
			 M7.1,25c0.3-0.4,0.8-0.7,1-0.6c0.2,0,0.5-0.1,0.7-0.2c0.1-0.1,0.3-0.2,0.3-0.2c-0.2,0.2-0.8,1.8-1.4,1.8
			C7.2,25.7,6.8,25.4,7.1,25L7.1,25z M7.7,21.9c0,0,0,1,0,1l-0.1-0.1c0,0,0-0.8,0-0.8s0-0.1,0.1-0.2C7.6,21.8,7.8,21.9,7.7,21.9
			L7.7,21.9z M8.1,23.2l-0.1-0.1c0,0,0-0.4,0-0.5C8,22.6,8,22,8,21.9c0-0.1,0.1,0,0.2,0c0,0-0.1,0.5-0.1,0.6
			C8.1,22.6,8.1,23.2,8.1,23.2L8.1,23.2z M8.4,23.4c0,0-0.1-0.1-0.1-0.1s0-0.6,0.1-0.7c0-0.1,0-0.6,0-0.7c0,0,0.2,0,0.2,0
			s-0.1,0.9-0.1,1C8.4,23,8.5,23.4,8.4,23.4L8.4,23.4z M8.6,21.2c-0.1,0-0.1,0-0.1,0c-0.1,0-0.2-0.1-0.2-0.1c-0.1,0,0-0.1,0-0.2
			c0-0.1,0-0.1,0-0.2c0,0,0.1,0,0.1,0s0.1,0,0.2,0c0.1,0,0.2-0.1,0.3-0.1c0.1,0,0.1,0,0.1,0s0.2,0.2,0.1,0.2
			C9.1,21.1,8.7,21.2,8.6,21.2L8.6,21.2z M8.6,23c0-0.1,0-0.4,0-0.5c0-0.1,0.1-0.1,0.1-0.1l0.1,0.1c0,0.1-0.1,0.5-0.1,0.6
			c0,0.1,0,0.4,0,0.4l-0.1,0c0,0,0-0.1,0-0.2S8.6,23,8.6,23L8.6,23z M9.6,23.3l-0.1,0.1c0,0-0.1-0.7-0.2-1c-0.1-0.2-0.1-0.3,0.1-0.3
			c0,0,0.1,0,0.2,0.3S9.6,23.3,9.6,23.3L9.6,23.3z M10,22.9l-0.1,0.2c0,0-0.1-0.8-0.2-1c-0.1-0.2,0.1-0.3,0.1-0.3
			c0,0,0.2-0.1,0.2,0.4C10,22.4,10,22.9,10,22.9L10,22.9z M11.9,17.2c-0.3,0-1.2,0.1-1.4,0.3c-0.3,0.2-0.7,0.4-0.7,0.4l-0.3-0.3
			l0.2-0.3c0,0-0.3-0.2-0.3-0.3c-0.1-0.1-0.2-0.3-0.2-0.3c0.1,0,0.8,0,1.1-0.3c0.2-0.3,0.6-1.1,1.1-1.2c0.4-0.1,2-0.4,2.4-0.4
			c0.4,0.1,1,0.2,1.3,0.6c0.3,0.5,0.6,1.5,0.4,1.8c-0.2,0.3-0.4,0.6-1.2,0.6C13.4,17.7,12.2,17.2,11.9,17.2L11.9,17.2z M10.3,22.7
			l-0.2,0.1c0,0,0-0.6,0-0.9c0-0.2,0-0.2,0-0.2l0.1-0.1C10.4,21.6,10.3,22.6,10.3,22.7L10.3,22.7z M10.6,22.4c0,0-0.1,0.1-0.1,0
			c0-0.1-0.1-0.7,0.1-0.7c0,0,0.1,0.1,0.1,0.2C10.6,22.1,10.6,22.4,10.6,22.4L10.6,22.4z M11,22.1l-0.1,0.2c0,0,0-0.1,0-0.3
			c0-0.1,0.1-0.2,0.1-0.2S11,22,11,22.1L11,22.1z M10.8,20.5c-0.4,0-1-0.9-0.1-1.9c0.6-0.6,1.6-0.2,1.8-0.1c0.2,0.1,0.3,0.1,0.5,0.1
			c0.2,0,0.5-0.2,0.3-0.1l-1.4,1.2C11.8,19.9,10.9,20.6,10.8,20.5L10.8,20.5z M7.1,19.2c0,0,0.2,0,0.2,0c0,0,0,0.1,0,0.1
			c0,0,0,0.1-0.1,0.1c-0.1,0-0.2,0-0.2,0C7,19.2,7.1,19.2,7.1,19.2L7.1,19.2z M7,18.5c0-0.1,0.1-0.1,0.1-0.1c0,0,0.2,0,0.2,0
			c0.1,0.1,0.1,0.1,0.1,0.1c0,0.1-0.2,0.2-0.2,0.2c0,0,0-0.1-0.1-0.1C7.1,18.5,7,18.6,7,18.5L7,18.5z M6.9,19.7c0,0-0.2,0.1-0.3,0.1
			c-0.1,0,0-0.1,0-0.1c0,0,0.1-0.1,0.2-0.1C6.8,19.6,6.9,19.7,6.9,19.7L6.9,19.7z M6.9,19c-0.1,0,0,0,0-0.1c0-0.1,0.1-0.1,0.2-0.1
			c0,0,0.1,0.1,0.1,0.1S6.9,19,6.9,19L6.9,19z M7.3,20c-0.1,0-0.1,0-0.1,0c0,0,0-0.2,0-0.2s-0.2,0-0.1,0c0.1,0,0.2-0.1,0.3-0.1
			c0,0,0.1,0,0.1-0.1c0.1,0,0.2-0.1,0.2-0.2c0-0.1-0.1-0.2-0.1-0.2s0.4-0.2,0.5-0.2c0.1,0,0.6-0.2,0.7-0.2c0.1,0,0.3-0.2,0.4-0.2
			c0,0-0.4,0.2-0.6,0.2c-0.2,0-0.7,0.3-0.9,0.4c-0.1,0-0.1,0-0.1,0c0-0.1,0.2-0.1,0.2-0.1c0,0,0.1-0.1,0.1-0.1
			c0.1,0,0.4-0.1,0.4-0.2c0.1,0,0.3-0.1,0.3-0.1c0,0,0.2-0.1,0.3-0.1C9,18.2,9.1,18.1,9.1,18c0,0,0.1,0,0.1,0c0,0,0.2,0,0.2,0.1
			c0.1,0,0.1,0.1,0.1,0.2c0,0,0.1,0.4,0.1,0.5c-0.1,0.1-0.3,0.6-0.5,0.8c-0.2,0.2-0.3,0.7-0.4,0.8c-0.1,0-0.3,0-0.4,0.1
			c-0.1,0-0.1,0.1-0.1,0c-0.1,0-0.4-0.2-0.5-0.2c0,0,0.1,0.1-0.1,0c-0.2,0-0.3-0.1-0.3-0.1S7.4,20,7.3,20L7.3,20z M7.3,22.6
			c0,0,0-0.2,0-0.2c0.1,0,0.1,0,0.1,0.1c0,0.1,0,0.2,0,0.2S7.3,22.7,7.3,22.6L7.3,22.6z M6.4,23.2c0,0,0.2-0.3,0.5-0.4
			c0.2,0,0.2,0,0.4,0.2c0.1,0.1,0.4,0.3,0.7,0.4c0.4,0.2,0.7,0.3,0.9,0.4l0,0.1c0,0-0.1,0-0.3,0c-0.2,0-0.7,0.2-1,0.4
			c-0.4,0.1-0.5,0.1-0.7,0c-0.2-0.1-0.3-0.4-0.3-0.5c0-0.1-0.2-0.3-0.1-0.4c0-0.1,0.5-0.4,0.5-0.4C6.7,23,6.4,23.2,6.4,23.2
			L6.4,23.2z M16.9,21.6c0.8,1.8,2,2.1,2.2,2.2c0,0-1.4,0.4-1.9,0.4c-0.1,0,0.1-0.1,0.6-0.3c0.5-0.2,0.7-0.3,0.7-0.3s-0.6,0.1-1,0.1
			c-0.4,0.1-0.9,0.2-0.9,0.2s0.5-0.3,0.7-0.4c0.2-0.1,0.8-0.3,0.8-0.3s-0.6,0.1-0.9,0.1c-0.3,0.1-0.9,0.2-0.9,0.2s0.3-0.2,0.7-0.3
			s0.9-0.3,0.9-0.3s-0.7,0-1,0.1c-0.3,0.1-1.3,0.4-1.3,0.4s0.8-0.5,1.1-0.6c0.3-0.1,0.7-0.3,0.7-0.3s-0.8,0.1-1.1,0.1
			c-0.2,0.1-1.4,0.5-1.3,0.5c0.1,0,1-0.5,1.4-0.7c0.4-0.1,0.7-0.3,0.7-0.3s-0.5-0.1-0.8,0c-0.3,0-1,0.3-1.3,0.5
			c-0.3,0.1-0.6,0.2-0.6,0.2c0.1-0.1,1.3-0.8,1.5-0.9c0.2-0.1,0.8-0.4,0.8-0.4s-0.4,0-0.6,0c-0.2,0-0.8,0.2-1.1,0.4
			c-0.3,0.2-1.5,0.7-1.5,0.7s0.3-0.2,0.6-0.4c0.2-0.1,1-0.6,1.4-0.8c0.3-0.1,1-0.5,1-0.5s-0.2-0.1-0.7,0c-0.5,0.1-1.2,0.6-1.8,0.9
			c-0.6,0.3-1.2,0.5-1.2,0.5s0.6-0.3,0.8-0.5c0.2-0.1,1.1-0.8,1.4-1c0.3-0.2,1.2-0.7,1.2-0.7s-0.8,0.1-1.2,0.3
			c-0.2,0.1-1.6,0.9-1.8,1C12.6,22,12,22.2,12,22.2s0,0,0.3-0.1s1.7-1.1,1.9-1.2c0.2-0.2,1.4-0.9,1.4-0.9s-0.5,0.1-1.3,0.4
			c-0.4,0.2-2.4,1.4-2.4,1.4s1.6-1.2,1.9-1.4l1.4-0.9c0,0-0.3,0-0.9,0.3s-2.6,1.6-2.6,1.6l-0.1-0.8c0,0,2.3-2,3.1-2.4
			C15.7,17.8,16.1,19.9,16.9,21.6L16.9,21.6z M18,19.6c0,0-0.2,0.7-0.2,1l-0.1,1.2c0,0-0.1-1.1-0.1-1.4C17.6,20,18,19.6,18,19.6
			L18,19.6z M18.7,20.1l-0.1,2.8c0,0-0.2-1.4-0.2-1.8C18.4,20.7,18.7,20.1,18.7,20.1L18.7,20.1z M19.6,22.9c0,0-0.4-1-0.4-1.5
			c0-0.4,0.4-1.1,0.4-1.1c0.1,0-0.1,1-0.1,1.3C19.4,21.7,19.6,22.9,19.6,22.9L19.6,22.9z M18.3,18.3c0.5-0.4,1.3-0.6,1.7-0.8
			c0.3-0.2,0.7-0.4,0.8-0.6c0.2-0.2,0.6-0.8,0.6-0.8s-0.4,1.5-1.3,2c-0.9,0.5-1.5,0.7-2,0.8c-0.4,0.1-0.8-0.2-0.8-0.2
			S17.8,18.7,18.3,18.3L18.3,18.3z M17.5,17.3c0.1-0.1,0.5-0.2,1.3-0.4c0.8-0.2,1.2-0.4,1.4-0.6c0.2-0.2,0.7-0.5,0.7-0.5
			s-0.5,1-0.9,1.1c-0.4,0.2-1,0.4-1.4,0.4C18.1,17.4,17.5,17.3,17.5,17.3L17.5,17.3z M19.8,13.6c0,0,0-0.2,0-0.3
			c0-0.1,0.1-0.2,0.3-0.3c0.2-0.1,0.6-0.2,0.7-0.3c0.1-0.1,0.2-0.2,0-0.4c-0.2-0.2-0.3-0.3-0.3-0.3s0.2-0.2,0.3-0.3
			c0.1-0.1,0.2-0.3,0.2-0.3s0.1,0.4,0.1,0.5v0.6c0,0,0.7-0.6,0.8-0.9c0.1-0.2,0-0.5,0-0.8c0-0.3-0.3-1-0.5-1
			c-0.2-0.1-0.5,0.1-0.5,0.2c0.1,0.1,0.3,0.4,0.3,0.5s0.1,0.1-0.5,0.9c-0.8,1-1.8,1-1.8,1s-0.5-0.7-0.2-1.1c0.3-0.5,0.8-0.7,0.9-0.8
			s0.2-0.5,0.2-0.5s-0.4-0.2-0.8-0.2c-0.4,0-0.5,0-0.6,0s-0.1,0.4-0.1,0.4s0.3,0,0.4,0c0.2,0,0.5,0.1,0.6,0.1c0.1,0,0,0.1-0.2,0.1
			c-0.2,0-0.8-0.1-1.1,0c-0.3,0.1-1.1,0.6-1.1,0.6s-0.1-0.3,0.1-0.7l0.4-0.8c0-0.1-0.4,0.1-0.6,0.2c-0.2,0.1-0.6,0.3-0.6,0.3
			s0.1-0.4,0.2-0.7c0.2-0.3,0.7-1.2,0.7-1.2l1-0.8c0.1-0.4-0.1-0.8-0.1-0.9c-0.1-0.1,0.4,0.2,0.5,0.3c0.2,0.3,0.1,0.8,0.1,0.8
			s0.3-0.3,0.4-1c0.1-0.7,0-1.1,0-1.1l0.2-0.1c0,0,0.4,0.5,0.4,0.9c0,0.4-0.3,1.1-0.3,1.1S20,6.8,20,6.4c0-0.3,0.1-1.3,0.1-1.4
			c0-0.1,0-0.3,0-0.3s0.5,0.7,0.4,1.1c-0.1,0.4-0.4,0.9-0.4,0.9s0.5-0.2,0.7-0.6s0.5-1.4,0.5-1.4s0.2,0.5,0.2,0.8
			c0,0.3-0.3,0.8-0.5,0.9c-0.2,0.2-0.7,0.7-0.7,0.7l0.8-0.4l0.4-0.2c0.4-0.1,1.1-0.2,1.2-0.4c0.2-0.2,0.5-0.7,0.5-0.7
			s-0.1,0.6-0.3,0.9c-0.2,0.2-1,0.8-1.2,1c-0.3,0.1-0.5,0.4-0.5,0.4l0.2,0.1c0,0,0.9-0.6,1.4-0.7C23.5,7,24.2,7,24.3,6.8
			c0.1-0.2,0.2-0.4,0.2-0.4s0.2,0.7-0.2,0.9c-0.4,0.2-1.1,0.2-1.4,0.3C22.7,7.7,22,8.3,22,8.3l0.2,0.1c0,0,0.4-0.7,1.5-0.7
			c0.6,0,1,0.1,1.2,0.2c0.3,0.1,0.7,0.4,0.7,0.4s-0.6-0.1-1.1-0.1c-0.8,0.1-1.4,0.5-1.4,0.5l0.2,0.1c0,0,1-0.3,1.4-0.2
			c0.5,0.1,1,0.3,1.3,0.6c0.2,0.2,0.4,0.8,0.6,0.9c0.2,0.1,0.6,0.3,0.6,0.3s-0.5,0.2-1.7-0.8c-1-0.9-2.2-0.3-2.2-0.3l0.2,0.3
			c0,0,0.7-0.1,1.2,0.2c0.6,0.3,0.9,0.6,1.1,0.9c0.2,0.3,0.8,0.9,0.9,1c0.2,0.1-0.5-0.1-0.7-0.2c-0.2-0.1-0.9-0.7-1.3-0.9
			c-0.4-0.2-0.7-0.3-0.9-0.3c-0.3,0-0.5,0.1-0.5,0.1s-0.5-0.8-0.8-1.2C22.2,8.9,22,8.6,22,8.6l-0.3,0.3c0,0,0.5,0.6,0.7,1
			c0.2,0.4,0.6,1.9-0.1,2.6c-0.2,0.2-0.5,0.4-0.5,0.4l0.6,0.2l-0.1,0.1L21.7,13l-0.3,0.3l0.4,0.1c0.2,0.1,0.4,0.1,0.4,0.1L22,13.6
			c0,0-0.3,0-0.5-0.1c-0.2,0-0.3-0.1-0.3-0.1s-0.1,0.1-0.2,0.1c-0.1,0.1-0.2,0.1-0.2,0.1s0.2,0.1,0.3,0.2l0.3,0.1l-0.1,0.1
			c0,0-0.4-0.1-0.5-0.2l-0.3-0.2c0,0-0.3,0-0.4,0C19.9,13.6,19.7,13.6,19.8,13.6L19.8,13.6z M17.4,12.8c-0.2,0-0.4-0.3-0.4-0.5
			c0-0.2,0.1-0.5,0.1-0.5c0.2,0,0.7,0,0.9,0.2c0.2,0.2,0.5,0.5,0.4,0.5C18.3,12.6,17.6,12.8,17.4,12.8L17.4,12.8z M16.7,5.9
			C16.9,5.4,18,5.8,18,5.8l-0.5,0.8C17.5,6.6,16.5,6.4,16.7,5.9L16.7,5.9z M17.6,4.8c0,0-0.3,0-0.3,0.1c-0.1,0.2,0.1,0.4,0.1,0.4
			S16.9,5.4,17,5C17.1,4.6,17.6,4.8,17.6,4.8L17.6,4.8z M18.8,4.4L18.4,5c0,0-0.2-0.1-0.3-0.3C18.1,4.6,18.8,4.4,18.8,4.4L18.8,4.4z
			 M20.1,4L20,4.5l-0.6-0.4L20.1,4L20.1,4z M20.5,4.1L20.5,4.1c-0.1,0.1-0.1,0.4,0.1,0.5c0.2,0.1-0.4-0.1-0.4-0.2
			C20.3,4.1,20.5,4.1,20.5,4.1z M20.8,3.2c0,0,0.4,0.1,0.1,0.3S20.6,3.3,20.8,3.2L20.8,3.2z M21.3,4.1c0.2-0.4,0.7-0.7,0.8-0.7
			c0.2,0,0.2,0.1,0.2,0.1S22,3.7,22.1,3.9c0.1,0.3,0.2,0.3,0.2,0.3L22,4.5c-0.1,0.1-0.2,0.3-0.2,0.3l-0.4-0.3c0,0-0.1,0.2-0.2,0.3
			C21.2,5,21.1,4.5,21.3,4.1L21.3,4.1z M21.6,2.4c0.3,0,0.4,0.4,0.1,0.5C21.4,3,21.3,2.4,21.6,2.4L21.6,2.4z M22.8,5.6
			c0.1-0.1,0.3-0.3,0.3-0.5s-0.1,0-0.2,0.1c-0.2,0.1-0.4,0.3-0.4,0.3s0.2-0.3,0.4-0.5c0.2-0.1,0.3-0.3,0.3-0.3L22.5,5
			c0,0,1.1-1,1.6-0.5c0.7,0.7,0.2,1.4,0.2,1.4s0-1-0.3-1.2c-0.4-0.2-0.8,0-0.8,0l0.2,0.1c0,0,0,0.6-0.3,0.8
			c-0.3,0.2-0.6,0.1-0.6,0.1S22.8,5.7,22.8,5.6L22.8,5.6z M23,2.5L23,2.5c0,0.4-0.7,0.6-0.7,0.1C22.4,2.2,23,2.5,23,2.5L23,2.5z
			 M23.1,3.6L22.5,4c0,0-0.1-0.4,0.2-0.5C23,3.4,23.2,3.6,23.1,3.6L23.1,3.6z M26,6.1c0.5-0.1,1,0.2,1,0.2s-0.5,0.1-0.8,0.1
			s-0.9,0.4-0.9,0.4S25.4,6.3,26,6.1L26,6.1z M27.8,7.2l-0.2,0c-0.2,0-0.6,0.2-1,0.3c-0.4,0.1-1.3,0-1.3,0S26,7.1,26.5,7L27.8,7.2
			L27.8,7.2z M27.9,9.7c0.5,0.4,1.5,0.5,1.5,0.5s-0.4,0.4-0.8,0.4c-0.4,0-0.9-0.2-1.1-0.5c-0.2-0.4-0.8-1.1-0.9-1.2
			c-0.1,0-0.3-0.3-0.3-0.3S26.9,8.9,27.9,9.7L27.9,9.7z M29.6,12.7c0,0-0.5-0.5-0.8-0.6s-0.6-0.3-0.8-0.5c-0.2-0.2-0.4-0.6-0.4-0.6
			s0.4,0,0.5,0.1s0.5,0.4,0.6,0.5c0.2,0.1,0.3,0.2,0.5,0.4C29.4,12.4,29.6,12.7,29.6,12.7L29.6,12.7z M30,15.5c0,0-0.9-0.4-1.2-0.9
			c-0.3-0.5-0.4-0.8-0.6-1.2c-0.2-0.4-0.6-0.7-0.6-0.7s1.1,0.2,1.3,0.7s0.2,0.9,0.4,1.2C29.5,15,30,15.5,30,15.5L30,15.5z
			 M30.5,14.9c0.2,0.3,0.5,0.5,0.8,0.7c0.3,0.2,0.6,0.6,0.6,0.6s-1.2-0.4-1.2-0.5c-0.1-0.1-0.6-1.4-0.6-1.4S30.3,14.6,30.5,14.9
			L30.5,14.9z M30.5,17.5c-0.1-0.3-0.1-0.6,0-0.7c0.1-0.1,0.3,0,0.3,0c0.1,0.2-0.1,1.2-0.2,1.7C30.5,18.6,30.6,17.8,30.5,17.5z
			 M28.8,15.9c0,0,0.5,0.3,0.7,0.4c0.1,0.1,0.1,0.3,0.1,0.7c0,0.4-0.2,1.1-0.2,1.1s-0.1-1.1-0.3-1.5C28.9,16.1,28.8,15.9,28.8,15.9
			L28.8,15.9z M25.1,17.7c0,0-0.6,1.2-0.6,1.3c0,0.1-0.6,1.1-0.6,1.1s-0.1-1.2,0-1.8s0.4-1.6,0.4-1.9c-0.1-0.3,0.1-0.9,0.1-0.9
			c0.1,0.2,0.3,1.4,0.3,1.8c0,0.3,0,0.7,0,0.7L25.1,17.7L25.1,17.7z M24.3,12.7c0.2,0.6-0.1,1-0.1,1.3s0.2,0.8,0.3,0.9
			c0.2,0.1,0.6,0.3,0.6,0.3s-0.6,0-0.9-0.1C24,15,23.5,14.4,23.6,14s0.4-0.7,0.3-1.1c-0.1-0.3-0.7-0.6-0.7-0.6l0.2-0.3
			C23.4,12,24.2,12.1,24.3,12.7L24.3,12.7z M25.8,12.9c0.3,0.1,0.6,0.5,0.7,0.6c0.1,0.1,0.3,0.7,0.3,0.7s-0.4-0.4-0.7-0.6
			c-0.3-0.1-1-0.5-1.2-0.9c-0.2-0.4-0.6-0.9-0.9-1c-0.3-0.1-0.7-0.3-0.7-0.3l0.1-0.4c0,0,1-0.1,1.4,0.4C25.2,12,25.5,12.7,25.8,12.9
			L25.8,12.9z M27.2,14.4c-0.3-0.7-0.5-1.3-0.8-1.6c-0.3-0.3-0.8-0.8-0.8-0.8s1.1,0.3,1.5,1c0.4,0.7,0.5,1.4,0.7,1.7
			c0.2,0.4,0.5,0.7,0.5,0.7S27.5,15.1,27.2,14.4L27.2,14.4z M27.1,15.3c0,0,0.8,1,0.9,1.2c0.2,0.2,0.2,0.3,0.3,0.4
			c0,0.2-0.2,1.4-0.2,1.4S28.1,18,28,17.9c-0.1-0.1-0.1-0.9-0.3-1.1C27.5,16.5,27.1,15.5,27.1,15.3L27.1,15.3z M26.8,18.4
			c0,0-0.3-0.5-0.6-1.1c-0.3-0.6-0.5-0.9-0.5-1.1l0-0.2c0,0,0.6,0.6,0.8,1.1C26.6,17.5,26.8,18.4,26.8,18.4L26.8,18.4z M26.5,16.2
			c-0.3-0.4-0.7-0.7-0.7-0.8c-0.1-0.1,0-0.7,0-0.7s0.5,0.3,0.8,0.7c0.2,0.4,0.6,1.8,0.6,1.8S26.8,16.6,26.5,16.2L26.5,16.2z
			 M22.1,18.2c0.4-0.6,1.2-2.5,1.2-2.5s0.1,2-0.2,2.7c-0.3,0.7-0.9,0.9-1.3,1.1c-0.4,0.3-1.1,0.5-1.1,0.5S21.7,18.8,22.1,18.2
			L22.1,18.2z M20.3,20.8c0,0-0.1,0.6-0.1,0.9c-0.1,0.3-0.1,0.8-0.1,0.8s-0.2-0.5-0.2-1C20.1,21,20.3,20.8,20.3,20.8L20.3,20.8z
			 M19.6,19.7c0,0,0.5-0.9,0.8-1.1c0.2-0.3,0.5-0.5,0.7-0.8c0.2-0.3,0.6-0.6,0.7-0.8c0.1-0.2,0.6-0.8,0.6-0.8
			c-0.2,0.4-0.4,1.2-0.7,1.7c-0.2,0.5-0.6,1.1-1.1,1.4C20,19.6,19.6,19.7,19.6,19.7L19.6,19.7z M32.1,21.7c-0.2,0.1,0.2-0.2,0.2-0.4
			c0-0.2-0.1-0.4-0.1-0.4s-0.1,0.2-0.3,0.3c-0.2,0.1,0.1-0.4,0.1-0.4s-0.4-0.2-0.6-0.2s-0.7-0.2-0.7-0.2s0.7,0.4,0.8,0.6
			c0.1,0.3,0.2,0.9,0.2,1.1c0,0.2-0.1,0.4-0.4,0.5s-0.4,0-0.4,0s0.4-0.1,0.4-0.4c0.1-0.3,0.1-0.4,0.1-0.4s-0.1,0.2-0.3,0.3
			c-0.2,0.1-0.3,0.1-0.3,0.1s0.3-0.3,0.4-0.5l0.1-0.2c0,0-0.5,0.4-0.7,0.4c-0.2,0,0.4-0.6,0.4-0.6s-0.4,0.2-0.6,0.2
			c-0.2,0,0.3-0.4,0.3-0.4s-0.2,0-0.3,0.1c-0.1,0,0-0.2,0-0.2l-1-0.2c0,0,0.4,0.5,0.6,0.7c0.1,0.2,0.3,0.6,0.3,0.8s-0.1,0.5-0.3,0.5
			c-0.3,0-0.6,0-0.6,0s0.6-0.1,0.7-0.4l0.1-0.3v-0.1c0,0,0,0.3-0.4,0.4l-0.4,0.1c0,0,0.3-0.1,0.5-0.3C30,22.1,30,22,30,22
			s-0.3,0.2-0.6,0.3c-0.2,0-0.3,0-0.3,0s0.6-0.2,0.7-0.4c0.1-0.1-0.2,0-0.4,0c-0.2,0-0.4,0-0.4,0s0.4,0,0.5-0.2
			c0.2-0.2,0-0.1-0.2-0.1c-0.2,0-0.4,0-0.4,0s0.3,0,0.4-0.2c0.1-0.1-0.1-0.2-0.2-0.2c-0.1,0-0.5,0.1-0.5,0.1s0.1-0.2,0.2-0.3
			l0.4-0.1c0,0-0.5,0-0.7,0L28,21.2c0,0,0.9-0.4,0.9-0.5c0-0.1-0.7,0-0.9,0.1c-0.3,0.1-1.2,0.5-1.2,0.5s0.5-0.4,0.8-0.5
			s1.1-0.5,1.1-0.5s-1.6,0.5-1.7,0.5c-0.1,0-1.3,0.7-1.3,0.7s1.3-1,1.5-1.1c0.2-0.1,1.2-0.5,1.2-0.5s-1.6,0.5-1.8,0.6
			c-0.2,0.1-1.8,1.2-1.8,1.2s1.1-1,1.3-1.1c0.1-0.1,0.4-0.4,0.4-0.4S25.1,20.9,25,21C24.9,21,24,21.7,24,21.7s1-1,1.2-1.1
			c0.2-0.1,0.5-0.4,0.5-0.4s-1.4,0.8-1.6,1c-0.2,0.2-1.2,0.9-1.2,0.9s0.9-1,1.1-1.1l0.4-0.4c0,0-1,0.5-1.2,0.7
			c-0.3,0.2-1.1,0.8-1.1,0.8s1-1.1,1.3-1.4c0.3-0.3,0.4-0.3,0.4-0.3s-0.7,0.4-1,0.5c-0.2,0.1-0.9,0.6-0.9,0.6s0.6-0.8,0.8-0.9
			c0.2-0.1,0.9-0.8,0.9-0.8s-0.9,0.4-1.3,0.7l-0.7,0.4c0,0,1.2-1,1.5-1.3c0.3-0.3,0.6-1.2,0.6-1.2s0,0.9,0.1,1.4
			c0.1,0.5,0.2,0.6,0.2,0.6l0.2-0.1c0,0,0.1-0.4,0.2-0.5c0.1-0.1,0.7-1.1,0.8-1.4c0.1-0.3,0.3-0.8,0.3-0.8s0.4,0.3,0.5,0.6
			c0.1,0.3,0.2,0.5,0.2,0.5s3.7,0.5,4,0.6c0.3,0.1,1.1,0.4,1.3,0.5c0.2,0.1,0.6,0.3,0.8,0.8c0.2,0.4,0.5,1.1,0.5,1.4
			s-0.2-0.4-0.2-0.4S32.2,22,32,22c-0.2,0,0.4-0.4,0.4-0.6s-0.2,0-0.4,0.1L32.1,21.7z M32.1,18.8c0.3-0.3,0.8-0.5,0.8-0.5
			s0.1,1,0.1,1.5s0.3,1.4,0.3,1.4s-0.6,0.1-0.7-0.2c-0.1-0.3-0.2-0.7-0.4-0.8s-0.8-0.5-0.8-0.5S31.8,19.1,32.1,18.8L32.1,18.8z
			 M34.1,12.9c0.7-2.2,2.9-4.5,3.2-4.7c0.2-0.2,0.2,0,0.2,0c-0.5,0.5-2.4,2.7-3.1,4.8c-1.1,3.3-0.9,5.2-0.8,5.8l-0.1-0.1
			C33.3,18,33,16.2,34.1,12.9L34.1,12.9z M33.8,12l0.4-0.2L34.1,12L33.8,12L33.8,12z M34.3,11.5v0.2l-0.8,0L34.3,11.5L34.3,11.5z
			 M33.3,11.5c0,0,0.4-0.1,0.7-0.2s0.6-0.1,0.6-0.1l-0.1,0.1c0,0-0.3,0.1-0.4,0.1C34,11.4,33.3,11.5,33.3,11.5L33.3,11.5z
			 M34.6,10.6l-0.1,0.2c0,0-0.2-0.1-0.4-0.2c-0.2,0-0.6-0.3-0.6-0.3s0.5,0.1,0.6,0.2C34.3,10.6,34.6,10.6,34.6,10.6L34.6,10.6z
			 M33.2,10c-0.3-0.2-0.3-0.3-0.3-0.3s0.5,0.4,1,0.5c0.5,0.1,0.8,0.2,0.8,0.2l-0.1,0.3c0,0-0.4-0.3-0.7-0.3S33.5,10.1,33.2,10
			L33.2,10z M33.8,8.5c0,0,0.6,1.3,0.8,1.4c0.1,0.1,0.2,0.2,0.2,0.2l-0.4-0.2L33.8,8.5L33.8,8.5z M34.8,9.7h-0.2l-0.4-1L34.8,9.7
			L34.8,9.7z M35.1,7.6c0.1-0.4,0.1-1.3,0.1-1.3c0.1,0.2,0.1,1.3,0,1.8C35,8.7,35,9.2,35.1,9.4c0.1,0.2,0.2,0.3,0.2,0.3L35,10
			c0,0-0.3-0.8-0.2-1.1C34.8,8.5,34.9,8,35.1,7.6L35.1,7.6z M35.5,9.3l-0.2,0.3c0,0-0.2-0.6-0.1-1c0.1-0.4,0.3-1.2,0.3-1.2
			c0,0.1-0.2,0.7-0.2,1.1C35.4,8.9,35.5,9.3,35.5,9.3L35.5,9.3z M35.8,7.9c0,0.3-0.1,0.5-0.1,0.8c0.1,0.2,0.1,0.4,0.1,0.4l-0.2,0.1
			c0,0-0.1-0.3-0.1-0.6C35.6,8.3,35.8,7.9,35.8,7.9L35.8,7.9z M35.5,20.7c-0.1-0.2-0.3-1.7-0.3-1.7s0.7,1.4,0.7,1.6
			C35.8,20.8,35.6,20.9,35.5,20.7L35.5,20.7z M36.8,19.7l-0.5,0.1l-0.1-0.1l0.6-0.2L36.8,19.7L36.8,19.7z M36.9,20.2l-0.5,0.1
			l-0.1,0l0.6-0.2C36.9,20,36.9,20.2,36.9,20.2z M36.9,20.6l-0.5,0.1l-0.1,0l0.6-0.2L36.9,20.6L36.9,20.6z M37,21l-0.5,0.1l-0.1-0.1
			l0.6-0.2L37,21L37,21z M35.4,22.1c-0.3,0.1-0.9,0.3-0.9,0.3l-0.1-0.2c0,0,0.7-0.2,1.5-0.5c0.8-0.3,1.2-0.5,1.2-0.5l0,0.2
			C37.1,21.4,35.7,21.9,35.4,22.1L35.4,22.1z M37.1,21.5l0.1,0.2l-1.4,0.5c-0.3,0.1-1.2,0.4-1.2,0.4l-0.1-0.2l1.2-0.4
			C36.1,22,37.1,21.5,37.1,21.5L37.1,21.5z M36.8,23.1c0.2-0.1,1.3-0.5,1.3-0.5l0.2,0.1c0,0-1.1,0.4-1.4,0.6
			c-0.3,0.1-1.1,0.4-1.1,0.4l-0.2-0.1C35.6,23.5,36.5,23.1,36.8,23.1L36.8,23.1z M36.5,22.7c0.2-0.1,1.3-0.5,1.3-0.5l0.2,0.1
			c0,0-1.1,0.4-1.4,0.6c-0.3,0.1-1.1,0.4-1.1,0.4l-0.2-0.1C35.3,23.2,36.3,22.8,36.5,22.7L36.5,22.7z M35,23L35,22.8l1.2-0.4
			c0.2-0.1,1.3-0.5,1.3-0.5l0.3,0.2c0,0-1.2,0.4-1.5,0.5C35.9,22.7,35,23,35,23L35,23z M33.8,20.5c0,0.2,0,1.3,0.4,1.9
			c0.4,0.5,1,1.2,1.1,1.3s-0.8-0.4-1-0.6c-0.3-0.2-0.5-1-0.5-1.3C33.6,20.8,33.8,20.5,33.8,20.5L33.8,20.5z M34.8,19.6
			c0,0-0.7,0.2-1,0.3c-0.2,0.1-0.4,0.3-0.3,0.5c0,0-0.2-0.5,0.1-0.8c0.3-0.3,1.1-0.6,1.1-0.6s0.2,0,0.2,0.1S34.8,19.6,34.8,19.6z
			 M35,20.5l-0.5,0.1l-0.1-0.1l0.6-0.2V20.5L35,20.5z M35.2,21.5l-0.1,0.1l-0.8,0.2l-0.1,0L35.2,21.5L35.2,21.5z M34.3,21l0.6-0.2
			l-0.1,0.2L34.3,21L34.3,21L34.3,21z M34.9,21.1l-0.1,0.1l-0.5,0.1l-0.1,0L34.9,21.1L34.9,21.1z M37.4,20.5
			c0.1,0.4,0.4,0.9,0.7,1.2c0.3,0.3,0.5,0.7,0.5,0.8v0.1c0,0-0.8-0.7-1-1c-0.2-0.2-0.6-0.9-0.5-1.5c0-0.6,0.3-1.1,0.3-1.1
			S37.3,20.1,37.4,20.5L37.4,20.5z M36.1,20.4c0,0,0.5,0.5-0.2,0.8c-0.9,0.3-0.6-0.4-0.6-0.4c-0.1,0.1,0.1,0.5,0.6,0.2
			C36.2,20.7,36.1,20.4,36.1,20.4L36.1,20.4z M45.2,26.4c0,0-0.9-0.8-0.8-0.9c0.1,0,0.3,0.2,0.4,0.3C45,26,45.2,26.4,45.2,26.4
			L45.2,26.4z M45.1,25.7c-0.3-0.4-0.7-1-0.6-1c0.1,0,1.3,1.7,1.3,1.7S45.3,26.1,45.1,25.7z M44.4,23.4c0.2-0.2,0.9-1.6,1.3-1.6
			c0.3,0,0.4,0.3,0.4,0.3c-0.2-0.1-0.4,0-0.6,0.1c-0.1,0.1-1.7,2.8-2,3c-0.2,0.2-0.3,0.2-0.3,0.2S44.2,23.6,44.4,23.4z M43.5,24
			l-0.1,0.2l-2,0l-0.2-0.1L43.5,24z M41.3,23.5h2.4l-0.1,0.2l-2.5,0C41.2,23.6,41.3,23.5,41.3,23.5z M41,23c0.2-0.2,0.7-0.7,1-0.6
			c0.1,0.1-0.5,0.4-0.7,0.6s-0.6,0.6-0.6,0.7C40.6,23.8,40.8,23.2,41,23L41,23z M37.9,17.4c0-0.1,0-0.1,0.2-0.1h4.8
			c0.1,0,0.2,0.1,0.2,0.1s0,4.3,0,4.3s-0.1,0.2-0.1,0.3c0,0.1,0.1,0.3,0,0.3c-0.1,0-0.2,0.1-0.3,0c-0.1-0.1-0.3-0.4-0.4-0.4
			c-0.2,0-0.2,0.2-0.4,0.2s-0.2-0.1-0.3,0s-1.1,1-1.1,1c0,0-0.3-0.3-0.4-0.4c-0.1,0-0.4-0.5-0.4-0.7c-0.1-0.2-0.5-0.9-0.6-1.1
			c-0.1-0.2-0.4-0.6-0.5-0.8c0-0.2-0.1-1.1-0.2-1.3c-0.1-0.2-0.3-0.5-0.4-0.7C37.8,18.1,37.9,17.5,37.9,17.4L37.9,17.4z M43,16.8
			c0,0.2-0.1,0.3-0.2,0.3s-4.5,0-4.8,0s-0.2-0.1-0.2-0.3c0-0.2,0.2-1.6,0.4-2.1c0.2-0.6,0.8-1.8,1.7-2.6c0.9-0.8,2.5-1,2.8-1
			c0.2,0,0.2,0.2,0.2,0.2S43,16.6,43,16.8L43,16.8z M44.8,19.1l0,1.1c0,0-1.3,0.9-1.4,0.9c-0.1,0.1-0.1,0-0.1-0.1v-3.5
			c0-0.2,0.1-0.2,0.2-0.2c0,0,1.7,0,1.8,0c0.1,0,0.1,0,0.1,0.1v1.7L44.8,19.1L44.8,19.1z M45,19.2c0.1,0,0.9,0,1,0
			c0.1,0,0.1,0,0.1,0.1V20c0,0.1,0,0.2,0,0.3c0,0-0.4,0.4-0.4,0.4c-0.1,0.1-0.1,0.1-0.2,0c-0.1-0.1-0.5-0.6-0.5-0.6
			S44.9,19.3,45,19.2L45,19.2L45,19.2z M46.3,19.2c0-0.1-0.2-0.1-0.2-0.1S45.9,19,46,19c0.1,0,0.2,0,0.3,0s0.4-0.3,0.4-0.3
			c0.1-0.1,0.1,0,0.1,0s0-0.1,0.1-0.2c0-0.1,0.2-0.1,0.3-0.1c0.1-0.1,0.2-0.3,0.3-0.3c0.1,0-0.1,0.3-0.1,0.3c0,0-0.1,0.2-0.2,0.2
			c-0.1,0-0.1,0.3-0.2,0.3c-0.1,0,0-0.3,0-0.3c0,0.1-0.1,0.3-0.2,0.4c0,0,0,0,0-0.2c0-0.1-0.1,0.3-0.1,0.4c0,0.1,0.3,0.3,0.3,0.4
			s-0.3,0.1-0.5,0.2c-0.2,0.1,0.2,0.2,0.2,0.2c0,0,0.1,0.2,0.1,0.2s-0.4-0.1-0.4,0c-0.1,0,0.3,0.2,0.4,0.2c0.1,0,0.1-0.2,0.1-0.3
			c0-0.1-0.1-0.2,0.1-0.1c0.1,0,0.2,0,0.3-0.1c0.1,0,0.1,0.1-0.1,0.2c-0.2,0.1,0,0.3,0.1,0.4c0,0.1-0.2,0-0.3,0
			c0,0.1,0.2,0.2,0.2,0.2c0,0,0.2-0.2,0.2-0.3c0.1-0.1,0.1-0.3,0.1-0.4c0-0.1,0-0.1,0.1-0.2c0.1-0.1,0.2-0.3,0.2-0.4
			c0-0.1,0-0.2,0-0.3c0-0.1,0-0.5,0-0.6s0.1-0.3,0.3-0.4c0.2-0.1,0.2-0.5,0.1-0.6c0-0.1-0.2,0-0.3,0.2c-0.1,0.2-0.2,0.5-0.3,0.9
			c-0.1,0.3,0,0.8,0,0.9c0,0.1-0.2,0.1-0.2,0c-0.1-0.1-0.1-0.2-0.1-0.2c-0.1,0-0.1-0.1-0.1-0.2s-0.1-0.2-0.1-0.3
			c0-0.1,0.2-0.2,0.3-0.4c0.1-0.2,0.2-0.7,0.2-0.8c0-0.1-0.1,0.1-0.1,0.1c-0.1,0-0.6-0.1-0.8-0.1c-0.2,0-0.2,0.1-0.1,0.2
			c0.1,0.1,0,0.1,0,0.2c0,0.1,0.1,0,0.2,0.1c0.1,0.1-0.2,0.2-0.3,0.2c-0.1,0-0.1-0.2-0.3-0.2C46,18.1,46,18,46,17.9s0-0.1,0-0.2
			s-0.1-0.1-0.2-0.1c-0.1,0-0.1,0.1,0,0.1c0.1,0,0,0.1,0,0.2c0,0.1,0,0.2,0,0.3c0.1,0.1,0.4,0.2,0.4,0.3c0.1,0-0.1,0.2-0.2,0.2
			c-0.1,0-0.2,0-0.3,0c-0.1,0-0.1,0.1-0.1,0.2L45.6,19c0,0-0.1-0.1-0.1-0.1c0,0,0-1.2,0-1.4c0-0.2,0.1-0.2,0.2-0.2c0,0,2,0,2.4,0
			s0.2-0.3,0.2,1c0.1,1.3-1,2.7-1.1,2.8s-0.2,0.1-0.3,0c-0.1-0.1-0.8-0.7-0.9-0.7c0,0,0.1-0.1,0.1-0.2C46.3,20,46.3,19.2,46.3,19.2
			L46.3,19.2z M43.4,11.1c0.2,0,0.6,0.1,1,0.1c1.2,0.3,1.6,0.5,2.7,1.6c1,1.1,1.3,3.8,1.3,3.9c0,0.2-0.1,0.3-0.2,0.3
			c-0.2,0-4.6,0-4.8,0c-0.2,0-0.1-0.1-0.2-0.1c0-0.1,0-5.6,0-5.7C43.3,11.2,43.2,11.1,43.4,11.1L43.4,11.1z M44.1,23.1L44,23.3
			l-2.4,0l0.2-0.2L44.1,23.1L44.1,23.1z M42.1,22.8l0.2-0.2l2.1-0.1l-0.1,0.3L42.1,22.8L42.1,22.8z M46.4,21.3
			c-0.1,0-0.5,0.1-0.7,0.1c-0.2,0.1,0.1-0.2,0.2-0.2c0.1-0.1,0.2,0,0.3-0.1c0-0.1,0.3-0.1,0.3-0.1l-0.2-0.2c0,0-0.1,0-0.1,0.1
			c0,0-0.1,0-0.2,0.1c-0.1,0-0.2,0.1-0.2,0.2c0,0.1-0.1,0.2-0.1,0.2l-0.9,0.2c-0.2,0-0.3,0.1-0.3,0.1s0.2-0.1,0.1-0.2
			c0-0.1-0.1-0.1-0.1-0.2s0.2-0.3,0.2-0.4s0-0.2,0-0.2L44.4,21c-0.1,0.1-0.1,0.1-0.2,0.1s-0.4,0-0.2,0.1c0.2,0.1,0.5,0.2,0.4,0.2
			c-0.1,0-0.2,0.1-0.2,0.1c-0.1,0.1-0.2,0.1-0.3,0.1c0,0-0.3,0-0.4,0l-0.1,0.1c0,0,0.1,0,0.2-0.1c0.1,0,0.2,0,0.4,0l0.3,0
			c0,0-0.3,0-0.4,0.1s-0.2,0.1-0.4,0.2c-0.1,0.1-0.1,0.2-0.1,0.2s0.3-0.2,0.4-0.2c0.1-0.1,0.4-0.1,0.6-0.2c0.2-0.1,0.4-0.2,0.4-0.2
			l0.6-0.1c0,0-0.3,0.1-0.4,0.3c-0.2,0.2-0.4,0.5-0.5,0.5c-0.1,0-1.3,0-1.4,0.1c-0.1,0,0-0.1,0-0.2c0-0.1,0-0.7,0-0.7
			c0.1,0,0.2-0.1,0.3-0.2c0.1,0,1.3-0.8,1.3-0.8c0,0,0.1,0,0.1,0l0.5,0.6l0.6-0.5l1,0.8L47,21.5l-0.4,0.4c-0.1,0.1-0.2,0.1-0.2,0.1
			s-0.3-0.4-0.4-0.5c-0.2-0.1-0.2-0.1-0.2-0.1s0.6,0,0.6,0C46.5,21.4,46.4,21.2,46.4,21.3L46.4,21.3z M37.5,17.5l0,0.1L37.5,17.5
			c-0.1-0.2-0.3-3.4,1.7-5.5c1-1,2.3-1.6,3.9-1.6c3.6-0.1,5.7,2.3,5.9,6.8c0.2,2.8-1.7,5-2.7,5.8c0,0-0.8,0.6-1,0.8
			c-0.2,0.2-0.1,0-0.1-0.1l1-0.8c1-0.8,2.8-2.9,2.7-5.7c-0.2-4.4-2.3-6.7-5.8-6.6c-1.6,0-2.9,0.6-3.8,1.6
			C37.4,14.2,37.5,17.4,37.5,17.5L37.5,17.5z M38.9,24.3c-0.1,0.1-0.2,0-0.2,0l0.6-0.3l0.1,0.1C39.4,24.1,39,24.2,38.9,24.3z
			 M39.3,24.7l-0.2-0.2l0.5-0.1l0.2,0.2L39.3,24.7L39.3,24.7z M37.9,25.1c0.1,0,0.2,0.2,0.1,0.2l-0.6,0.2l-0.2-0.2
			C37.3,25.3,37.9,25.1,37.9,25.1L37.9,25.1z M37.9,24.6v0.1l-0.7,0.3L37.1,25L37.9,24.6L37.9,24.6z M36.5,24.7l0-0.1l2.5-0.9l0,0.1
			L36.5,24.7L36.5,24.7z M38.6,25.2c-0.2,0-0.2-0.1-0.3-0.3c0,0,0.2,0,0.2,0h0.1C38.6,25,38.7,25.3,38.6,25.2z M38.1,24.6
			c0.1-0.1,0.5-0.2,0.7-0.1c0.2,0.1,0.3,0.4,0.3,0.5c-0.1,0.1-0.2,0.1-0.2,0c0-0.1-0.1-0.4-0.2-0.4C38.5,24.6,38.1,24.6,38.1,24.6
			L38.1,24.6z M37.9,26l-0.2-0.2l0.6-0.3l0.2,0c0,0,0.8-0.3,0.8-0.4c0-0.1,0.4-0.3,0.5-0.3c0.1,0,0.3-0.1,0.3-0.1l0.3,0.3L37.9,26
			L37.9,26z M39.5,26c-0.3,0.1-1.2,0.3-1.2,0.3l-0.1-0.2c0,0,0.9-0.3,1.2-0.4c0.3-0.1,1.2-0.5,1.2-0.5l0.3,0.3
			C40.9,25.5,39.8,25.9,39.5,26L39.5,26z M40.2,26.3l-1.3,0.4l-0.2-0.1c0,0,0.9-0.3,1.1-0.4c0.2-0.1,1.3-0.6,1.3-0.6l0.2,0.2
			C41.4,25.8,40.4,26.2,40.2,26.3L40.2,26.3z M40.5,26.7c-0.3,0.1-1,0.3-1,0.3l-0.2-0.1c0,0,0.9-0.3,1.1-0.5
			c0.2-0.1,1.1-0.5,1.1-0.5l0.3,0.2C41.9,26.2,40.8,26.6,40.5,26.7L40.5,26.7z M41.8,26.6l-0.2-0.1l0.5-0.3l0.2,0.2L41.8,26.6
			L41.8,26.6z M42.1,27l0-0.2l0.4-0.2l0.3,0.1L42.1,27L42.1,27z M41.5,27.3l-0.1,0.2l-0.3-0.1l0-0.1L41.5,27.3L41.5,27.3z M41,26.9
			c0,0,0.4-0.3,0.7-0.2c0.3,0.1,0.2,0.6,0.2,0.6s-0.2-0.3-0.3-0.4C41.4,26.8,41.2,26.8,41,26.9L41,26.9z M39.8,27.4l-0.2-0.1l1-0.3
			l0.1,0.1L39.8,27.4L39.8,27.4z M40.9,27.4L40.9,27.4l-0.5,0.4l-0.1-0.1L40.9,27.4L40.9,27.4z M41,28l-0.2-0.1c0,0,1.2-0.5,1.2-0.5
			l0.1-0.1l1.1-0.4l0.3,0.1C43.5,27,41,28,41,28z M44.7,27.3l0.4,0l-2.7,1.1l-0.3-0.1L44.7,27.3L44.7,27.3z M41.7,28.3l-0.3-0.1
			l2.4-1.2l0.4,0.1L41.7,28.3L41.7,28.3z M43,24.9L42.9,25l-0.6,0l0-0.1C42.3,24.9,43,24.9,43,24.9z M41.7,24.5l-0.1-0.1l1.6,0
			l-0.1,0.1L41.7,24.5L41.7,24.5z M37.7,8.2c0.1-0.1,0.4,0.2,0.4,0.2C40,7.3,41.5,6.9,43,6.8c1.9-0.1,3.7,0.5,5.2,1.5
			C48.2,8.3,48.3,8,48.4,8c0.2,0.2,0.6,0.6,0.9,0.8c1.6,1.4,3.3,4,3.4,8c0.1,5-2.4,8.4-3.9,9.2l0-0.1l-2.2-2.3l1.8,2.5l-2.2-2.2
			l1.8,2.5l-2.1-2.4l1.7,2.6l-2-2.5l-0.2,0.2l1.6,2.5l-2-2.3c0,0,1.8-1.2,3-2.3s2.1-4,1.3-6.9S46.4,10,43.2,10
			c-2.1,0-4.3,1.5-5.3,3.2c-0.9,1.6-0.9,4.6-0.9,4.6l-3,0.8c0,0-0.4,0.7,0-3.1C34.3,11.9,36.6,9.2,37.7,8.2L37.7,8.2z M36.5,4.8
			c-0.2-0.9,0.8-1.7,2.3-1.6c1.5,0.1,2.3,1.3,2.3,1.3S40.1,4,39.7,3.9c-0.5-0.1-0.9-0.4-2,0.1c-1.7,0.7,0,2.2,0,2.2S36.7,6,36.5,4.8
			z M36.2,3.6c-0.5,0-0.4-0.6-0.1-0.6C36.5,2.9,36.7,3.6,36.2,3.6z M35.9,5.1c-0.3-0.3,0.3-0.4,0.4-0.2C36.4,5.2,36.2,5.5,35.9,5.1
			L35.9,5.1z M35.5,4.2c0-0.3,0.6-0.3,0.6-0.1C36.1,4.5,35.5,4.5,35.5,4.2L35.5,4.2z M37.1,2.6c0.2,0.2-0.2,0.7-0.5,0.3
			C36.3,2.6,37,2.3,37.1,2.6z M38.1,2.4c0,0.4-0.6,0.4-0.6,0C37.4,2.1,38.1,2.1,38.1,2.4L38.1,2.4z M38.6,2.4
			c0.1-0.3,0.6-0.1,0.5,0.1C38.8,3,38.5,2.7,38.6,2.4L38.6,2.4z M40,2.3c0.2-0.1,0.3,0,0.4,0c0.3,0.1,0.9,0.6,1.1,1.1
			c0.3,0.9,0.5,1.9,0.5,1.9s-0.3-1-0.7-1.5c-0.7-0.8-1.2-1.3-1.4-1.2S39.7,3,39.7,3S39.8,2.4,40,2.3L40,2.3z M41.6,0.9L41.6,0.9
			l0.7,0.8c0,0-0.1,0-0.1,0.1S42.3,2,42.3,2l-0.7,0.5l-0.1-0.8C41.6,1.5,41.6,0.9,41.6,0.9L41.6,0.9z M43.1,0.3
			c0.2,0,1.1,0.1,1.1,0.1l-0.7,1.1c0,0-0.2-0.2-0.4-0.2c-0.2,0-0.4,0.2-0.4,0.2l-0.8-1.1C41.8,0.3,42.9,0.3,43.1,0.3L43.1,0.3z
			 M44.5,2.5L43.6,2c0,0,0.1-0.1,0.1-0.2c0,0,0-0.1,0-0.1l0.8-0.6L44.5,2.5L44.5,2.5z M45.2,3.1c0.2-0.3,0.8-0.9,1-0.9
			c0.2,0,0.2,0.7,0.2,0.9c0,0-0.2-0.3-0.2-0.4c0-0.1-0.7,0.6-1.1,1c-0.4,0.4-0.7,1.5-0.7,1.5s-0.1-0.3,0-0.6
			C44.5,4.5,44.9,3.5,45.2,3.1L45.2,3.1z M48.6,3.4c1.3,0.5,1,1.3,0.9,1.5c-0.1,0.4-0.9,0.9-0.9,0.9s0.9-1.2,0.2-1.8
			s-1.7-0.3-2.2-0.1C46,4,45.4,4.3,45.4,4.3C45.6,3.9,47.2,2.9,48.6,3.4L48.6,3.4z M47.2,2.6c0.1,0.5-0.5,0.3-0.6,0
			C46.6,2.3,47.2,2.1,47.2,2.6z M48.2,2.5c0,0.3-0.7,0.4-0.6,0C47.6,2,48.2,2.2,48.2,2.5z M48.6,2.5c0.3-0.3,0.7,0,0.5,0.3
			C48.9,3.1,48.3,2.8,48.6,2.5z M49.5,2.9c0.4-0.2,0.8,0.4,0.4,0.5C49.5,3.6,49.1,3.1,49.5,2.9L49.5,2.9z M50.5,4
			c-0.1,0.5-0.6,0.2-0.5-0.1C50,3.6,50.6,3.5,50.5,4L50.5,4z M50.1,5.1c-0.3,0.2-0.5-0.2-0.2-0.3C50,4.6,50.4,4.9,50.1,5.1L50.1,5.1
			z M47.2,4.6c0.2-0.4,0.9-0.6,1-0.5c0.1,0-0.2,0.7-0.4,0.9c-0.1,0.2-0.9,1-1,1C46.7,6.1,47,4.9,47.2,4.6L47.2,4.6z M45.9,5
			c-0.6-0.2-1,0.5-1,0.5c0.1-0.4,0.8-1,1.2-0.9c0.9,0.2,0.1,1.2,0.1,1.2S46.4,5.2,45.9,5L45.9,5z M43.4,3.7c0,0,0,0.5-0.1,0.5
			c-0.1,0-0.1-0.5-0.1-0.5l-0.2,0c0,0,0.1,0.6-0.1,0.6c-0.1,0-0.2-0.6-0.2-0.6s-0.4,0.1-0.4,0.1c-0.1,0-0.2,0.1-0.2,0.1l0-0.1v0v0v0
			c0.1-0.1,0.2-0.2,0.7-0.2c0.3,0,0.8,0,0.9,0.1c0.1,0,0,0.2,0,0.2C43.7,3.8,43.4,3.7,43.4,3.7L43.4,3.7z M42.6,5.5
			c0,0-0.6-0.9,0.6-1c0.8,0,0.6,0.8,0.6,1c0,0,0-0.6-0.7-0.6S42.6,5.5,42.6,5.5L42.6,5.5z M42.6,1.8c0-0.3,0.8-0.3,0.8,0
			S42.6,2.2,42.6,1.8L42.6,1.8z M43.1,2.3c0.9-0.1,1.1,1,1.1,1s-0.4-0.2-1-0.1c-0.7,0-1.1,0.1-1.1,0.1l0,0C42.1,3.3,42,2.4,43.1,2.3
			L43.1,2.3z M40,5.8c0,0,0.2,0.3-0.1,0.1c-0.3-0.3-0.2-1,0.4-1c0.6-0.1,1.1,0.8,1.1,0.8s-0.6-0.4-1.1-0.4S40,5.8,40,5.8L40,5.8z
			 M38,7.2c0.7-0.4,3-1.5,5.4-1.5c2.6,0.1,4.1,0.8,4.6,1.2c0.3,0.2,0,0.6-0.3,0.5c-0.5-0.3-1.9-1-4.4-1.1c-2.2-0.1-4.4,1.1-5.1,1.4
			C37.9,7.8,37.6,7.4,38,7.2L38,7.2z M38.1,4.1c0.3,0.1,0.7,0.1,1.1,0.7C39.5,5.1,39.7,6,39.7,6s-0.5-0.1-1-0.8
			C38.1,4.5,38.1,4.1,38.1,4.1L38.1,4.1z M38.1,5.5c0.5-0.3,0.8,0.7,0.8,0.7s-0.2-0.4-0.5-0.3c-0.3,0.1-0.3,0.5-0.1,0.8
			C38.3,6.7,37.4,6,38.1,5.5L38.1,5.5z M47.9,6.6c0,0,0.4-0.6,0.2-0.7c-0.2-0.2-0.8,0.3-0.8,0.3c0-0.2,0.4-0.8,1-0.7
			S48.1,6.5,47.9,6.6L47.9,6.6z M50.6,7.8c0,0,0.1,0.5,0.2,0.6c0,0.1,0,0.6,0,0.6l-0.2-0.1c0,0,0-0.2,0-0.5S50.6,8,50.6,7.8
			L50.6,7.8z M51.2,8.5c0,0.3,0,1.1,0,1.1L51,9.4c0,0,0.1-0.5,0.1-0.8s-0.2-1.1-0.2-1.2C50.9,7.3,51.2,8.3,51.2,8.5L51.2,8.5z
			 M51.2,6c0,0,0.1,0.9,0.2,1.3c0.1,0.4,0.3,0.9,0.3,1.4c0,0.5-0.1,1.5-0.1,1.5l-0.2-0.3c0,0,0.1-0.8,0.1-1c0-0.2-0.1-0.6-0.2-1.3
			C51.1,6.9,51.2,6.3,51.2,6L51.2,6z M53.2,10.8l-1.4-0.1l-0.2-0.2L53.2,10.8L53.2,10.8z M52.6,10.1l-0.3,0.2l0.1-0.2L52.6,10.1
			L52.6,10.1z M51.8,10l1.1-0.4c-0.2,0.2-1.1,0.6-1.1,0.6L51.8,10L51.8,10z M52.1,9.4l1.4-0.6C53.2,9.2,52,9.8,52,9.8L52.1,9.4
			L52.1,9.4z M52.3,7.6l-0.1,1.4c0,0-0.3,0.4-0.3,0.2C52,8.9,52.3,7.8,52.3,7.6z M52.5,8.2c0.1-0.2,0.1-1.1,0.1-1.1l0-0.1
			c0,0,0.1,0.3,0.1,0.6c0,0.3,0,1,0,1l-0.3,0.2C52.4,8.8,52.5,8.4,52.5,8.2L52.5,8.2z M52.1,11.2L52,10.9l1,0.3L52.1,11.2L52.1,11.2
			z M52.3,11.5l-0.1-0.1l0.6,0.1C52.8,11.5,52.3,11.5,52.3,11.5z M53.5,19.5c0,0,0.6-0.1,0.9-0.1c0.3,0,0.4-0.3,0.4-0.4
			c0,0,0.1-0.2,0.2,0c0.1,0.3,0,0.6-0.3,0.9c-0.3,0.3-1.3,0.3-1.3,0.3L53.5,19.5L53.5,19.5z M53.6,16.8c0-0.1,1.1-1.5,1.1-1.5
			s-0.5,1-0.6,1.2c-0.2,0.2-0.4,0.9-0.4,0.9S53.5,16.8,53.6,16.8L53.6,16.8z M54.1,14.8l-0.3,0.4l-0.1-0.3L54.1,14.8L54.1,14.8z
			 M54.5,17c-0.1,0.3-0.3,0.6-0.3,0.6l-0.2-0.1c0,0,0.2-0.5,0.3-0.7c0.2-0.4,1-1.1,1-1.1S54.7,16.7,54.5,17z M55.7,16.3
			c0.2-0.1,0.6-0.4,0.6-0.4c-0.1,0.1-0.8,1.2-0.9,1.4c-0.1,0.2-0.1,0.2-0.1,0.2l-0.2-0.2C55.1,17.3,55.6,16.5,55.7,16.3L55.7,16.3z
			 M57.6,17.3c0.2,0,0.3,0,0.3,0.1c0.1,0.1,0.2,0.2,0.2,0.4c0,0.1-0.1,0.3-0.2,0.1c-0.1-0.1-0.1-0.2-0.1-0.2l-1.2,0.5l0,0.1
			c0,0.1-0.2,0.2-0.2,0.1c0,0-0.2-0.6,0.2-0.7C56.9,17.5,57.4,17.3,57.6,17.3L57.6,17.3z M59.1,16.3c0.4-0.2,0.7,0,0.8,0
			c0,0,0.1,0.1,0,0.2c-0.1,0.1-0.2,0-0.3,0c-0.1-0.1-1.2,0.9-1.2,0.9s0.1,0.1,0.1,0.2c0,0.1,0,0.3-0.1,0.1c-0.1-0.2-0.2-0.4-0.2-0.5
			C58.2,17,58.7,16.5,59.1,16.3L59.1,16.3z M59.6,14l0.4,0.1l1.1-1.1l0.3,0.1l0.1,1.5l0.2,0.1l1.4-1l0.4,0.1l0.1,1.6l0.3,0.1
			l1.3-0.8l0.4,0.2l-0.3,1.5l0.2,0.1l1.3-0.6l0.5,0.4l-0.5,1.2l0.2,0.1l1.2-0.3l0.4,0.5c0,0-0.7,0.5-0.8,0.7
			c-0.1,0.2-0.3,0.2-0.3,0.2s0.4-0.6,0.6-0.7s0.2-0.3,0.2-0.3c-0.1,0-0.5,0.2-0.7,0.4c-0.2,0.1-0.8,0.5-0.8,0.5s0.6-0.6,0.6-0.7
			c0.1-0.1-0.6,0.2-0.7,0.3c-0.1,0.1-0.6,0.5-0.6,0.5L66,18.6l0.6-0.5l-0.1-0.2l-0.6,0.5c0,0-1.7-1.1-1.9-1.3c-0.2-0.2-1.6-1-1.6-1
			c0-0.1,0-0.5,0-0.5l-0.4,0c0,0,0.1,0.4-0.1,0.5c-0.2,0.1-0.6,0.3-0.6,0.3s0.5-0.7-0.1-1c-0.5-0.3-0.9,0.1-0.9,0.3
			c-0.1,0.1-0.1,0.4,0,0.5l0.1,0.1l-0.1,0.1c0,0-0.7-0.4-0.5-0.7c0.2-0.4,0.3-0.6,0.6-0.6c0.3-0.1,0.5-0.1,0.5-0.1s-0.1-0.3-0.2-0.3
			l-0.6,0.1L60,14.4l-0.2,0.1c0,0,0.1,0.1,0,0.3c-0.1,0.1-0.3,0.2-0.3,0.2s0.2-0.3,0.1-0.5c-0.1-0.2-0.2-0.3-0.2-0.3l-0.1-0.1
			c0,0,0,0.2,0,0.4c0,0.1-0.2,0.4-0.2,0.4l0.1-1L59,13.4l-0.1,1.3l-0.1-0.1l0-2.1L59.6,14L59.6,14z M60.5,9.9
			c-0.3-0.7-0.1-1.1-0.1-1.1l-0.2-0.2c0,0-0.1,0.5-0.3,0.8c-0.1,0.3-0.2,0.4-0.3,0.4l-0.1,0c0,0,0.1-0.5,0.1-0.7
			c0-0.2-0.1-0.6-0.1-0.6l-0.3,0c0,0,0.1,0.7,0.1,1c0,0.4-0.2,0.8-0.4,0.9c-0.2,0.1-0.5-0.1-0.5-0.1s0.5,0.2,0.6-0.3
			c0.1-0.5-0.1-1.2-0.4-1.4c-0.3-0.1-0.2,0.2-0.2,0.4c0.1,0.1,0.1,0.6,0,0.8c-0.1,0.2-0.3,0.2-0.3,0.2s0.3-0.3,0.2-0.5
			C58.2,9.2,58.1,9,58,9.1c-0.1,0-0.3,0.1-0.2,0.2c0,0.1,0.2,0.2,0,0.1S57,9.2,56.9,9.2c-0.1,0-0.7,0.2-0.8,0.2
			c-0.1,0-0.6-0.7-0.6-0.8c0-0.1-0.1-0.4,0.2-0.4c0.3,0,1,0,1,0s0.1-0.8,0.8-0.8c0.7,0,1,0.7,1,0.7l1.6-0.3l0.1-0.5
			c0,0,0.7-0.1,1.1-0.1c0.3,0,1.1-0.1,1.4-0.1c0.3,0,0.8-0.1,0.8-0.1s-0.2,1.1,0.5,1.2c0.7,0.2,1,0.1,1.2-0.1L65.5,8
			c0,0,0.5,0.3,0.4,0.7c-0.1,0.4-0.1,0.9-0.5,1.8c-0.4,0.8-0.4,1.5-0.4,1.5l0.7-1.3c0.1-0.2,0.4-0.8,0.5-1s0,0.3-0.1,0.5
			c-0.1,0.2-0.7,1.4-0.8,1.7c-0.1,0.3-0.1,0.8-0.1,0.8s0.3-0.5,0.5-0.9c0.2-0.4,0.7-1.2,0.7-1.4c0.1-0.1,0.1,0.1,0,0.3
			c-0.1,0.2-0.8,2-0.9,2.2s-0.3,0.7-0.2,0.9c0.1,0.2,0.2-0.6,0.5-1c0.2-0.4,1-1.8,1-1.8s0,0.3-0.1,0.4s-1.1,2.4-1.1,2.7
			c0,0.3-0.1,0.6-0.1,0.6l-0.5-0.2l-1.3,0.7l-0.1-1.4L63,13.4c0,0-0.8,0.6-0.9,0.6c-0.1,0.1,0.1-0.8,0.1-0.9c0-0.1,0.2-0.1,0.3-0.1
			c0.1,0,1,0.1,1.4-0.1c0.5-0.2,0.6-0.4,0.6-0.4l0.1-0.9c0,0-0.4,0.5-0.7,0.5c-0.3,0.1-1.1,0-1.1,0s1-0.5,1.3-0.7
			c0.3-0.3,0.8-1.6,0.8-1.6s-0.6,0.8-0.9,1.1c-0.7,0.6-1,0.3-1,0.3s0.6-0.3,1-1c0.4-0.7,0.4-0.8,0.4-0.8l-0.1-0.1
			c0,0-0.7,1.2-1.4,1.3C62.2,10.9,60.7,10.5,60.5,9.9L60.5,9.9z M57,10.3c-0.3,0.2-0.5,0.3-0.7,0.1c-0.3-0.2-0.6-0.4-0.6-0.6
			s0.1-0.3,0.1-0.3c0,0.3,0.2,0.6,0.6,0.6c0.4,0,0.8-0.4,1-0.3c0.2,0.1,0.4,0.4,0.4,0.4S57.2,10.1,57,10.3L57,10.3z M56.5,12.4
			c-0.5,0.1-1,0.1-1.2,0.1c-0.2,0-0.7,0.3-0.6,0.6c0.1,0.3-0.2-0.3,0.2-0.7c0.4-0.3,1.3-0.5,1.5-0.5c0.3,0,0.7-0.9,0.7-0.9
			C57,11.2,57,12.3,56.5,12.4L56.5,12.4z M55.3,11.7c0.6-0.1,0.8-0.2,0.9-0.4c0.1-0.2,0.2-0.4,0.2-0.4c0,0.2-0.1,0.7-0.4,0.8
			c-0.4,0.1-0.9,0.3-1.1,0.4c-0.2,0.1-0.3,0.3-0.3,0.3S54.7,11.9,55.3,11.7L55.3,11.7z M59.3,6.6c0,0,0.3,0.1,0.8,0.1
			c0.4,0,0.6-0.1,1.3-0.3c0.6-0.2,2.2,0.5,1.8,0.4c-0.4-0.1-1,0-2.3,0.2C59.5,7.1,59.3,6.6,59.3,6.6L59.3,6.6z M61.2,6
			c0.3,0,0.4,0,0.9-0.2c0.5-0.2,1.5,0.5,1,0.3c-0.4-0.2-0.6,0-1.7,0.1c-1.1,0-1.1-0.4-1.1-0.4S60.9,6,61.2,6L61.2,6z M61.3,4.2
			c0.3-0.2,0.5,1.4,0.5,1.3S61,4.3,61.3,4.2L61.3,4.2z M62.1,4.7c0.2-0.1,0.2,0.7,0.2,0.7S61.8,4.8,62.1,4.7L62.1,4.7z M62.7,5
			C62.9,4.9,63,5.6,63,5.6S62.5,5.1,62.7,5L62.7,5z M64.2,6.9c0.1-0.3,0.6-0.7,0.4-1.1c-0.1-0.3-0.2-0.7,0-1C64.8,4.4,65,4.1,65,4.1
			c-0.3,0.5-0.5,1.1-0.3,1.5c0.2,0.4-0.1,1.3-0.4,1.5C64,7.3,64,7.1,64.2,6.9L64.2,6.9z M65.3,5.2c0,0.5,0.6,1.2,0.2,1.7
			c-0.4,0.5-0.4,0.9-0.8,0.9c-0.3,0-0.4-0.2-0.1-0.5C65,7,65.6,6.7,65.4,6.1C65.2,5.6,65.3,5.2,65.3,5.2L65.3,5.2z M65.9,14.8
			c-0.1,0.1-0.1-0.4,0-0.6l1.4-2.5C67.3,11.6,66,14.6,65.9,14.8L65.9,14.8z M66.2,15.6c-0.1,0.2-0.2,0.1-0.1-0.1
			c0.1-0.1,1.3-2.5,1.3-2.5S66.4,15.4,66.2,15.6L66.2,15.6z M66.7,15.6c-0.1,0.2-0.2,0.1-0.1-0.1c0-0.2,0.9-1.5,0.9-1.5
			S66.9,15.4,66.7,15.6L66.7,15.6z M67.1,15.9l-0.1-0.1l0.4-0.6L67.1,15.9L67.1,15.9z M68.8,20.3c0.3,0,0.6,0.6,0.7,0.8
			c0.1,0.2,0.2,0.5,0.1,0.6c-0.1,0.1-0.4,0.2-0.4,0.2s0-0.1,0-0.1c0-0.1,0.2-0.2,0.2-0.3c0-0.1-0.3-0.5-0.4-0.6
			c-0.1-0.2-0.3-0.3-0.6-0.2C68.3,20.7,68.6,20.2,68.8,20.3L68.8,20.3z M70.5,23.9c0.2-0.1,0.5,0.5,0.3,0.4
			C70.5,24.3,70.3,24,70.5,23.9L70.5,23.9z M69.1,23.5c0.2-0.1,0.6-0.1,0.6-0.1c0,0.1-0.3,0.1-0.2,0.4c0.1,0.2,0.2,0.5,0.2,0.5
			s-0.5,0.1-0.6-0.1C69,23.8,68.9,23.6,69.1,23.5L69.1,23.5z M68.9,21.4C68.9,21.4,69,21.4,68.9,21.4c0,0.2,0,0.2,0,0.3
			c0,0.1,0.3,1.1,0.3,1.1s0,0.1,0.1,0.1c0.1,0,0.4,0,0.4,0l0.1,0.1c0,0-0.3,0.2-0.5,0.2c-0.2,0-0.4,0.1-0.4-0.1c0-0.2-0.3-1-0.3-1.1
			C68.5,21.7,68.7,21.5,68.9,21.4L68.9,21.4z M67.8,21.1c-0.6-0.2-0.6-1-0.6-1c0.1,0.2,0.4,0.6,0.9,0.7c0.5,0.1,0.6,0.1,0.6,0.1
			S68.3,21.3,67.8,21.1L67.8,21.1z M66.7,20.5c0.3,0.3,0.4,0.3,0.4,0.3s-1.5-0.2-0.7-1.2c0.5-0.7,1.1-0.1,1.1-0.1
			c0.3,0.3,0.2,0.6,0.1,0.7c-0.1,0-0.1-0.3-0.2-0.4c-0.1-0.1-0.4-0.2-0.6-0.1S66.4,20.2,66.7,20.5L66.7,20.5z M63.8,20.2
			c-0.1,0.2-0.4,0.1-0.2-0.1c0.1-0.2,1.2-1.9,1.2-1.9S63.9,20,63.8,20.2L63.8,20.2z M64.2,20.7c-0.1,0.2-0.4,0.1-0.2-0.2
			c0.2-0.3,1-1.6,1-1.6S64.3,20.5,64.2,20.7L64.2,20.7z M65.5,20.7c0,0-0.3,0.8-0.4,0.9c0,0.1-0.2,0-0.1-0.1
			C65.1,21.3,65.5,20.7,65.5,20.7L65.5,20.7z M64.7,21.2c-0.1,0.1-0.2,0-0.1-0.2c0.1-0.2,0.9-1.3,0.9-1.3S64.8,21.1,64.7,21.2
			L64.7,21.2z M60.8,15.8c-0.1,0-0.2-0.2-0.1-0.2c0.1,0,0.2,0,0.2,0s0.4,0.6,0.2,0.8c-0.2,0.2-0.8,0.8-0.9,0.9
			c-0.2,0.1-0.4,0-0.5-0.1c-0.1-0.1-0.2-0.3-0.3-0.3c0-0.1,0-0.1,0.2,0c0.1,0.1,0.2,0.2,0.3,0.1c0.1-0.1,0.9-0.7,0.9-0.8
			C60.9,16,60.9,15.9,60.8,15.8L60.8,15.8z M58.9,17.2c-0.1-0.1,0.2-0.2,0.2-0.1c0.1,0.1,0.1,0.2,0.2,0.5s-0.4,0.6-0.6,0.8
			c-0.3,0.2-0.7,0.3-0.9,0.2c-0.2-0.1-0.3-0.3-0.3-0.4c-0.1-0.1,0.1-0.2,0.1-0.2c0,0,0.1,0.2,0.1,0.2c0.1,0,0.4-0.1,0.5-0.2
			c0.1-0.1,0.7-0.4,0.7-0.5C59,17.5,58.9,17.3,58.9,17.2L58.9,17.2z M55.4,18.8c0.1,0.1,0.1,0.3,0.2,0.2c0.1,0,1.2-0.4,1.4-0.5
			c0.2-0.1,0.1-0.2,0.1-0.3c0-0.1,0.2-0.1,0.2,0c0,0.1,0.1,0.5,0.1,0.6c-0.1,0.2-0.8,0.6-1.4,0.8c-0.6,0.2-0.6-0.6-0.6-0.7
			C55.2,18.9,55.3,18.7,55.4,18.8L55.4,18.8z M54.1,19.1c0,0-0.2,0.1-0.2,0c0-0.1,0-0.1,0-0.3c0-0.2,0.1-0.5,0.3-0.6
			c0.2-0.1,1.1-0.2,1.4-0.2s0.5,0.4,0.5,0.5s-0.2,0.2-0.2,0.2c0-0.1-0.1-0.2-0.2-0.2c-0.1,0-1.6,0.4-1.6,0.4L54.1,19.1L54.1,19.1z
			 M66,23c0,0-0.9,0.3-1.1,0.3c-0.3,0-2.8-0.7-3.7-1c-0.9-0.3-2.2-0.7-2.4-0.8c-0.2,0,0.2-0.4,0.2-0.4l-0.2-0.1c0,0-0.4,0.3-0.5,0.4
			c-0.1,0.1-0.4,0-0.4,0s0.1-0.2,0.2-0.3c0.1,0,0.5-0.3,0.5-0.3l-0.2-0.2c0,0-0.8,0.5-0.8,0.6c0,0.1-0.4,0-0.4-0.1s0.6-0.6,0.7-0.6
			c0.1,0,0.2-0.1,0.2-0.2c0-0.1-0.2-0.1-0.2-0.1s-1,0.6-1.1,0.8c-0.1,0.2-0.4,0-0.4,0c0.1-0.1,0.3-0.3,0.5-0.5
			c0.2-0.1,0.8-0.4,0.8-0.4s0-0.3-0.1-0.2s-1.2,0.6-1.4,0.7c-0.2,0.1-0.5,0.2-0.5,0.3c0,0.1,0,0.2,0,0.2l-0.5,0c0,0-0.2-0.2,0.1-0.4
			c0.3-0.1,0.4-0.2,0.6-0.3c0.2-0.1,1.7-0.9,1.7-1c0,0,0.1-0.2,0.1-0.2s0.4,0,0.5-0.1c0.1,0,0.1-0.1,0.2-0.1s0.8-0.3,1-0.6
			c0.2-0.3,0.2-0.5,0.2-0.5s0.3,0.2,0.5,0.1c0.1-0.1,0.6-0.4,0.6-0.4l0.2,0l0.3-0.5c0,0,0.2,0,0.1,0c0,0.1-0.2,0.5-0.2,0.5l0.3,0.1
			c0,0,0.4-0.5,0.4-0.5c0-0.1,0.1,0,0.1,0.1c0,0-0.2,0.5-0.2,0.5l0.3,0.1c0,0,0.3-0.5,0.4-0.6c0,0,0.1,0,0.1,0.1
			c-0.1,0.1-0.1,0.2-0.1,0.3c0,0,0,0.3,0,0.3l0.2,0.1l0.3-0.5l0.1-0.1l-0.1,0.7l0.2,0.1c0,0,0.1-0.2,0.2-0.3
			c0.1-0.1,0.2-0.3,0.2-0.3l-0.2,0.7l0.2,0.1l0.5-0.5c0,0.1-0.1,0.4-0.1,0.6c-0.1,0.2-0.1,0.4-0.2,0.6s-0.1,0-0.4,0.5
			c-0.2,0.5-0.3,0.7-0.3,0.7s-0.2-0.2,0-0.7c0.2-0.5,0.1-0.9,0.1-0.9l-0.5-0.1c0,0,0,0.5-0.1,0.8s-0.3,0.4-0.3,0.4s0.1-0.5-0.1-0.8
			S62,18.4,62,18.4l-0.4-0.1c0,0,0.1,0.5,0.2,0.7c0.1,0.3,0,0.6-0.2,0.7c-0.2,0.1-0.5,0.2-0.5,0.2s0.4-0.3,0.2-0.7s-0.4-0.8-0.4-0.8
			l-0.2,0c0,0,0.1,0.5,0.2,0.7c0,0.2-0.3,0.7-0.3,0.7s0.1-0.4,0-0.5c-0.1-0.1-0.4-0.8-0.4-0.8l-0.1,0c0,0,0.2,0.7,0.2,0.9
			c0,0.1,0.1,0.5-0.4,0.7c-0.4,0.2-0.6,0.2-0.6,0.2s0.5,0.3,0.6,0.3s0.9-0.4,1.1-0.3c0.2,0,3.8,1.7,4.7,1.8c0.9,0,1.3-0.2,1.6,0
			s0.9,1.1,0.7,1.4c-0.2,0.4-0.5,0.3-0.8,0.3c-0.2,0-1.3-0.3-1.3-0.3c0.1,0,0.8-0.2,0.8-0.2L66,23L66,23z M69.8,22.4
			c-0.1-0.1-0.4,0-0.4,0c0,0,0.2-0.3,0.5-0.4c0.3,0,0.5,0.8,0.6,1c0.1,0.2,0.2,0.6-0.1,0.6s-0.6,0-0.6,0s0.4-0.2,0.4-0.3
			C70.2,23.4,69.9,22.5,69.8,22.4L69.8,22.4z M70.2,19.8c0.2-0.1,0.1,0,0.4,0.2c0.3,0.1,0.7,1.1,0.7,1.3c0,0.2-0.1,1-0.1,1.4
			c0,0.4,0.6,0.7,0.8,0.7c0.2,0.1,0.2,0.2,0.2,0.2l-1.1,0.6l-0.4-0.5c0,0-0.1-0.2-0.2-0.6c-0.1-0.4-0.4-1.2-0.4-1.3
			c0-0.1-0.4-0.2-0.4-0.2l0.3-0.4L70,21.3c-0.2-0.1-0.5-0.9-0.5-1C69.5,20.3,70,19.9,70.2,19.8L70.2,19.8z M70.2,17.4
			c0.2-0.2,0.7-0.3,1.1-0.4c0.4-0.1,1.2,0.6,1.3,0.8c0.2,0.1,0.3,0.2,0.4,0.4c0.1,0.2,0.5,2,1,3.1c0.5,1,1,1.9,1.1,2
			c0.1,0.2,0.2,0.1,0.5,0.2c0.3,0.2,0.1,0.3,0.3,0.6c0.2,0.4,0.6,1.5,0.6,1.8c0,0.3-0.3,0.5-0.4,0.3c-0.1-0.2-0.2-0.5-0.4-0.7
			c-0.1-0.2-0.4-0.6-0.4-0.6s0,0.1,0,0.4s0.5,1.2,0.6,1.3c0,0.1-0.1,0.2-0.8,0.1c-0.7-0.1-1.1-0.9-1.2-1.1c-0.1-0.2-0.1-0.4,0.1-0.5
			c0.1-0.1,0.8-0.3,0.8-0.3l-0.1-0.2c-0.2,0-0.8,0-1.2-0.1C73,24.4,73,24,73,24c0-0.1,0.7,0.1,0.7,0.1l0-0.1c0-0.1-0.1-0.2-0.4-0.2
			s-0.6-0.3-0.6-0.3s0.2,0.1,0.4,0.1s0.4,0.1,0.4,0.1l-0.1-0.1c0,0-0.2-0.1-0.4-0.2c-0.3,0-0.5-0.3-0.5-0.3h0.3
			c0.2,0,0.5,0.1,0.5,0.1l-0.1-0.2h-0.4c-0.3,0-0.7-0.2-0.7-0.2l0.6-0.1c0.2,0,0.4,0,0.4,0l-0.1-0.3c0,0-0.1,0-0.5,0S72,22,72,22
			s0.5,0,0.7-0.1c0.2,0,0.3-0.1,0.3-0.1l0-0.1c0,0-0.3-0.1-0.4-0.1c-0.2,0-0.7-0.1-0.7-0.1s0.2,0,0.4-0.1s0.5-0.2,0.5-0.2
			s-0.2-0.1-0.4-0.1c-0.3,0-0.5,0-0.5,0s0.3-0.2,0.4-0.2s0.4-0.2,0.4-0.2s-0.2-0.1-0.4-0.1l-0.5,0.1c0,0,0.1-0.2,0.3-0.3
			c0.2-0.1,0.7-0.2,0.7-0.2s-0.1-0.1-0.4,0c-0.2,0-0.8,0.1-0.8,0.1s0.4-0.3,0.5-0.4c0.1-0.1,0.4-0.2,0.4-0.2l-0.1-0.2l-0.5,0.1
			c-0.2,0-0.6,0.1-0.6,0.1s0.5-0.3,0.6-0.5c0.1-0.2,0.4-0.2,0.4-0.2l0-0.2c0,0-0.2,0-0.5,0.1S71,19.2,71,19.2s0-0.2,0.2-0.5
			c0.2-0.2,0.5-0.4,0.5-0.4l0-0.1c0,0-0.1,0-0.4,0.2c-0.3,0.2-0.7,0.5-0.7,0.5s0-0.2,0.2-0.5c0.1-0.3,0.5-0.5,0.5-0.5
			s-0.1-0.1-0.6,0.2c-0.4,0.3-0.6,0.7-0.6,0.7s0.1-0.6,0.2-0.8c0.1-0.2,0.5-0.4,0.5-0.4s-0.3,0-0.6,0.3c-0.3,0.3-0.5,0.9-0.5,0.9
			S69.5,18.1,70.2,17.4L70.2,17.4z M74.1,18.9c0.3,0.2,0.5,0.3,0.5,0.3s-0.1-1-0.2-1.5c-0.1-0.4-0.3-1.2-0.3-1.2s0.6,0.9,0.7,1.7
			c0.1,0.8,0.1,0.9,0.1,0.9s0.4-0.3,0.7-0.5c0.3-0.2,0.4,0,0.1,0.2c-0.2,0.2-0.9,0.9-0.9,0.9l-1.1-0.6c-0.3-0.2-0.5-0.5-0.5-0.5
			S73.8,18.7,74.1,18.9L74.1,18.9z M76,15.3c0,0,0.2,1.3,0,1.9c-0.1,0.6-0.2,0.1-0.2-0.1C75.7,16.8,76,15.3,76,15.3L76,15.3z
			 M76.6,17.2c0-0.4,0.2,0,0.2,0c-0.1,0.4-0.6,2.1-0.8,2.4C75.8,19.8,76.5,17.6,76.6,17.2L76.6,17.2z M77.5,17.6
			c-0.2,0.4-1.1,1.8-1.1,1.8s0.6-1.5,0.8-1.9C77.2,17.5,77.6,17.2,77.5,17.6L77.5,17.6z M77.3,16.3c0.1-0.1,0.8-0.6,0.8-0.6
			s-0.4,0.5-0.6,0.8C77.4,16.7,77.2,16.4,77.3,16.3L77.3,16.3z M77.7,17.6c0,0,0.4-0.1,0.3,0.2c-0.1,0.4-1.3,1.7-1.3,1.7
			S77.5,17.9,77.7,17.6z M78.2,18.1c0.2-0.3,0.3,0.2,0.3,0.2c-0.3,0.3-1.5,1.7-1.5,1.7L78.2,18.1L78.2,18.1z M78.8,18.6
			c0,0,0.5-0.2,0.2,0.1c-0.2,0.3-1.1,1.1-1.1,1.1S78.6,18.9,78.8,18.6L78.8,18.6z M79.4,19c0,0,0.5-0.1,0.2,0.1
			c-0.2,0.2-1.4,1.1-1.4,1.1S79.1,19.3,79.4,19L79.4,19z M79.9,19.7c-0.2,0.1-1.7,1.1-1.7,1.1s0.8-0.7,1.1-0.9
			c0.3-0.2,0.4-0.3,0.6-0.4C80,19.5,79.9,19.7,79.9,19.7L79.9,19.7z M80.4,17.7c0.1,0.2,0.1,0.4,0.1,0.4s0.4-0.8,0.5-1.1l0.9-1.2
			c0,0-0.4,0.9-0.5,1.2c-0.1,0.3-0.3,0.9-0.3,0.9s0.4-0.2,0.9-0.2c0.5-0.1,0.7-0.1,0.7-0.1s-0.7,0.3-1.1,0.5
			c-0.4,0.2-0.8,0.5-0.8,0.5l-0.2,0.1c0,0-0.2-0.4-0.3-0.6c0-0.2-0.3-0.8-0.3-0.8S80.3,17.5,80.4,17.7L80.4,17.7z M83.9,18.4
			c0,0-1.9,0.9-2,0.9c-0.2,0-0.3,0.1-0.3,0.1s0.6,0.1,0.9,0.2c0.3,0.1,0.6,0.1,0.8,0.3l0.2,0.2c0,0-1.3-0.4-1.7-0.4c-0.4,0-1,0-1,0
			s0.2-0.3,0.3-0.5c0-0.2,0.5-0.9,0.5-0.9s0,0.1-0.1,0.3c-0.1,0.2-0.1,0.5-0.1,0.5s0.8-0.4,1.1-0.5C82.9,18.7,83.9,18.4,83.9,18.4
			L83.9,18.4z M81.3,21.1c0,0-0.5,0.5-0.8,0.6c-0.3,0.2-0.9,0.4-0.9,0.4l0.7,0.4l-1.3-0.2c-0.1,0-0.2-0.1-0.1-0.2
			c0.1-0.2,0.4-1.3,0.5-1.5c0,0,0.1,0.2,0.1,0.4c0,0.2-0.2,0.7-0.1,0.7c0.1,0,0.6-0.1,0.9-0.2C80.5,21.4,81.3,21.1,81.3,21.1
			L81.3,21.1z M76.3,23l0.2-0.2c0,0,0.4-0.6,0.6-1c0.2-0.4,0.7-1.9,0.7-1.7c0,0.2-0.3,1.8-0.5,2.3C77,22.9,77,23,77,23
			s0.3,0,0.6-0.2c0.3-0.1,0.7-0.2,0.7-0.2s-0.8,0.8-1.1,0.9c-0.4,0.1-0.9,0.3-0.9,0.3L76,23.6c0,0,0-0.5-0.1-1l-0.1-0.8L76.3,23
			L76.3,23z M75.5,22L75.5,22l-0.2,0.1l-0.2,0.3l0.1-0.4L74.9,22l-0.2,0.1l0.1-0.2l0.2-0.5l-0.4-0.1l-0.1,0.2l0-0.2l-0.2,0l0-0.2
			l0.2,0l0.1-0.3l-0.3,0l-0.2,0.3l0.1-0.3l-0.2,0l0.1-0.1h0.2l0.1-0.3l-0.5,0.2c0,0,0.8-0.9,1.7-0.6c1.1,0.3,1.2,1.1,1.2,1.1
			l-0.2-0.2l-0.1,0.2l0.2,0.1v0.1l-0.2-0.1l-0.2,0.5c0,0-0.3-0.1-0.5-0.2c-0.2,0-0.4-0.1-0.4-0.1S75.4,22,75.4,22S75.5,22,75.5,22
			L75.5,22z M79.1,25.4l0.5,0.8c0,0-0.9-0.7-1.2-0.9c-0.3-0.2-1-0.9-1-0.9s0.3-0.2,0.6-0.5c0.3-0.2,1.4-1,1.4-1
			c-0.1,0.1-0.8,1.1-1,1.3c-0.2,0.2,0.3,0.1,0.7,0.2s1.1,0.6,1.1,0.6s-0.9-0.3-1.1-0.3s-0.7,0-0.7,0S78.9,25.1,79.1,25.4L79.1,25.4z
			 M81.3,22.8c0.2-0.2,1.2-1.1,1.2-1.1s-0.8,1.3-1.2,1.5c-0.3,0.2-0.7,0.5-0.9,0.6c-0.1,0.1,0.1,0.1,0.3,0.3l0.8,0.6
			c0,0-0.9-0.4-1.1-0.4c-0.2,0-0.8-0.4-0.9-0.4s0.2-0.5,0.4-0.7s0.4-1,0.4-1s0,0.5-0.1,0.9c-0.1,0.3-0.1,0.5-0.1,0.5
			S81.1,23,81.3,22.8L81.3,22.8z M83.8,22.5c0,0-1.4,1-1.5,1.1c0,0.1,0.4,0.3,0.8,0.5c0.3,0.2,0.9,0.7,0.9,0.7s-0.9-0.6-1.3-0.8
			c-0.4-0.1-0.8-0.3-0.9-0.3s0.3-0.3,0.5-0.5C82.5,23.2,83.8,22.5,83.8,22.5L83.8,22.5z M84.5,23.4c0.4-0.1,0.7-0.1,0.7-0.1
			s-1.4,0.8-1.5,0.7C83.6,24,83,23.6,83,23.6S84.1,23.5,84.5,23.4L84.5,23.4z M2.8,18c-0.3,0-0.6,0.2-0.7,0.2c-0.2,0-0.3,0-0.4,0
			c-0.1,0-0.2,0-0.2,0s0.4,0,0.6-0.1c0.1-0.1,0.4-0.2,0.5-0.2c0.1,0,0.2-0.1,0.2-0.1s-0.3-0.1-0.5,0c-0.2,0-0.5,0.2-0.7,0.2
			s-0.5,0-0.5,0s0.4-0.1,0.6-0.2c0.2-0.1,0.4-0.1,0.4-0.1s-0.4,0-0.5,0c-0.1,0-0.6,0.1-0.6,0.1s0.1-0.1,0.2-0.1l0.2,0
			c0,0-0.3-0.1-0.5-0.1c-0.2-0.1-0.3-0.1-0.3-0.1c0.1,0,0.6,0,0.7,0c0.1,0,0.3,0.1,0.5,0.1c0.1,0,0.2,0,0.4,0s0.4,0,0.5,0.1
			c0.1,0.1,0.3,0.2,0.4,0.3S3.3,18,3.3,18S3,17.9,2.8,18L2.8,18z M2.9,18.4c-0.1,0-0.4,0.1-0.4,0.2c-0.1,0-0.3,0.1-0.3,0.1
			s0.3-0.2,0.3-0.2c0.1-0.1,0.2-0.1,0.3-0.1c0.1,0,0.3-0.1,0.3-0.1s0.1,0.1,0.1,0.1C3.3,18.2,3,18.3,2.9,18.4L2.9,18.4z M0.5,16.6
			c0.1,0,0.3,0.2,0.4,0.3c0.1,0.1,0.3,0.3,0.3,0.3s-0.2,0-0.4-0.1C0.7,17,0.5,16.6,0.5,16.6L0.5,16.6z M16.4,5.6
			c-0.5,0.1-0.3-0.4-0.3-0.4C16.4,5.2,16.6,5.6,16.4,5.6z M15.8,6.1c0,0,0.4-0.2,0.4,0.1S15.9,6.4,15.8,6.1L15.8,6.1z M60.1,3.4
			c0.3-0.2,0.5,1.5,0.5,1.5S59.8,3.6,60.1,3.4z M59.3,2.8c0.2,0,0.5,1.4,0.5,1.4S59,2.8,59.3,2.8L59.3,2.8z M58.4,2.2
			c0.2-0.1,0.5,1.2,0.5,1.2S58.1,2.3,58.4,2.2L58.4,2.2z M57.7,1.7c0.2,0,0.5,1.1,0.5,1.1S57.5,1.7,57.7,1.7L57.7,1.7z M57.2,1.3
			l0.3,0.8C57.5,2.1,56.8,1.3,57.2,1.3z M56.5,0.9l0.1,0.6C56.7,1.4,56.3,0.9,56.5,0.9L56.5,0.9z M83.8,26.7
			c-0.3-0.1-1.5-0.4-1.5-0.4s1.3-0.7,1.5-0.8l1.6-0.9l0.4-1.5c0,0-0.5-0.1-0.8-0.1c-0.3,0-1.2,0.1-1.2,0.1s0.3-0.2,0.5-0.4
			c0.2-0.2,0.4-0.5,0.4-0.5v-0.3c0,0-0.3,0.2-0.8,0.3s-1.1,0.3-1.1,0.3s0.3-0.6,0.3-0.8c0-0.2,0.1-0.6,0.1-0.6l-0.2,0l-1.5,1.1
			c0,0,0.1-0.3,0.2-0.5c0.1-0.2,0.5-0.7,0.5-0.7l-0.1-0.2L80.6,21l0.7-0.4l-0.9-0.1c0,0,1.8-0.3,2.1-0.2c0.3,0.1,1.4,0.2,1.4,0.2
			l0.2-0.2c0,0-0.3-0.2-0.5-0.5c-0.2-0.3-0.7-0.5-0.7-0.5s0.1-0.2,0.4-0.3c0.3-0.2,1.1-0.5,1.1-0.5v-0.2L84,18.2c-0.5-0.1-1,0-1,0
			s0.4-0.5,0.6-0.7c0.2-0.2,1-0.4,1-0.4l-0.2-0.2c0,0-0.7,0.1-1.1,0.1c-0.4,0-1.1,0.3-1.1,0.3s0-0.6,0.1-1c0.1-0.4,0.3-1.3,0.3-1.3
			L82.3,15c0,0-0.5,0.3-0.6,0.6c-0.1,0.2-0.6,0.9-0.6,0.9s0-0.4,0-0.6c0-0.2-0.2-0.7-0.2-0.7l-0.3,0c0,0-0.1,0.4-0.2,0.9
			c-0.1,0.4-0.4,0.8-0.4,0.8s-0.3-0.3-0.3-0.4c-0.1-0.1-0.3-0.5-0.3-0.5l-0.2,0.2c0,0,0.3,1.3,0.3,1.5c0,0.2-0.3,0.3-0.3,0.3
			l0.1-0.3l-0.1-0.1l-0.4,0.2l0.2-0.3l-0.2-0.2l-0.3,0.3l0.1-0.4l-0.2-0.1l-0.3,0.3l0.1-0.4l-0.2,0l-0.3,0.3c0,0,0.4-1.1,0.6-1.4
			l0.4-0.5h-0.3c0,0-0.7,0.2-0.9,0.4c-0.2,0.1-0.9,0.7-0.9,0.7s-0.1-0.4-0.2-0.6c-0.1-0.2-0.4-0.7-0.4-0.7L75.7,15c0,0,0,0.8,0,1.2
			c0,0.4-0.3,1-0.3,1s-0.3-0.3-0.5-0.5c-0.2-0.2-0.6-0.5-0.6-0.5l-0.3-0.1c0,0,0.2,0.8,0.2,1c0.1,0.2,0.2,1.2,0.2,1.2l-0.9-0.4
			c0,0,0-0.2-0.1-0.3c-0.1-0.1-1.1-0.6-1.4-0.7c-0.3-0.1-0.5-0.3-0.7-0.3c-0.1,0-0.4,0.1-0.9,0.3c-0.5,0.2-1.5,0.4-1.5,0.4l-0.4-0.3
			l-1.2,0.3l0.3-0.8l0.1-0.3L67.4,16c0,0,1.2-2.2,0.3-5.2c-0.5-1.7-1.9-3-1.8-3c0.1,0,0.5-0.8,0.5-0.8s0.9-0.5,1.1-0.5
			c0.1,0,0.4,0,0.3,0.1c-0.1,0.1-1.6,1-1.6,1l0.2,0.2L68,6.8c0.3-0.2,0.9,0,1.3-0.1s0.3-0.4,0.4-0.6C69.8,6,70,5.4,69.9,5.7
			c-0.1,0.3-0.1,0.8-0.2,1.1c-0.1,0.3-0.7,0.3-1.1,0.2c-0.4-0.1-1.9,1.1-1.9,1.1l0.8,1l0.4-0.1c0.4-0.1,2,0,2.3,0.1
			c0.3,0.1,0.6,0,0.9-0.4s1.5-0.6,1.5-0.6l0-0.3c0,0-0.1,0-0.3,0S71.5,8,71,8.3c-0.5,0.3-1,0.3-1.3,0.2c-0.3-0.1-2.3,0.2-2.4,0.2
			c-0.1,0,0.9-0.3,1.3-0.4c0.4-0.1,1.3,0,1.6-0.1c0.3-0.1,0.6-0.8,0.8-1.1C71.3,7,72.1,7,72.1,7L72,6.6c0,0-0.5-0.1-0.8-0.1
			c-0.3,0-0.6,0.5-0.7,0.8c-0.1,0.3-0.7,0.4-1.1,0.4c-0.4-0.1-1.3,0-1.3,0s0.5-0.1,0.6-0.2c0.1-0.1,0.4-0.1,0.8-0.1s0.7-0.2,0.9-0.5
			c0.2-0.3-0.1-0.9-0.2-1.1S71,5.4,71,5.4l-0.3-0.4c0,0-1.1,0.3-1.3,0.5c-0.3,0.1,0.1,0.6,0,0.8c-0.1,0.2-0.6-0.1-1.2-0.2
			c-0.6-0.1-1.7,0.6-1.7,0.6s0-0.3-0.2-0.6c-0.1-0.3-0.4-0.8-0.6-1.2c-0.1-0.4,0.1-1.1,0.1-1.1l-0.6-0.1c0,0-1,1.3-1.1,1.6
			c-0.1,0.3,0.1,1,0.1,1s-0.3-0.3-0.5-0.6c-0.2-0.3,0-0.4,0.1-0.7c0-0.3-0.1-0.7-0.2-1c-0.1-0.3,0.2-0.6,0.2-0.6L63.1,3
			c0,0-0.3,0.7-0.4,0.9c-0.1,0.2-0.3,0.5-0.3,0.5l-0.3,0.1c0,0-0.2-0.3-0.4-0.5c-0.1-0.2-0.5-0.2-0.7-0.1c0,0-0.2-0.4-0.4-0.6
			C60.5,3.1,59.9,3,59.9,3s-0.2-0.3-0.5-0.5c-0.2-0.1-0.4-0.1-0.4-0.1s-0.3-0.3-0.4-0.5c-0.1-0.1-0.4-0.1-0.4-0.1S58.2,1.7,58,1.5
			c-0.2-0.1-0.3-0.2-0.3-0.2s-0.1-0.1-0.3-0.2S57,1,57,1s-0.1-0.2-0.2-0.3c-0.2-0.1-0.5-0.2-0.5,0c0,0.2,0.3,0.7,0.5,0.8
			s0.3,0.1,0.3,0.1s0.2,0.5,0.3,0.6c0.1,0.1,0.3,0.2,0.5,0.2C58,2.5,58,2.8,58,2.9c0.2,0.3,0.3,0.2,0.4,0.3c0.2,0.1,0.3,0.4,0.6,0.5
			c0.3,0.1,0.4,0.1,0.4,0.1s0,0.3,0.4,0.6c0.4,0.3,0.4,0.2,0.4,0.2s0,0.2,0.2,0.3s0.3,0.3,0.6,0.3c0.3,0.1,0.2,0.2,0.2,0.3
			c0,0.1-0.5,0.1-0.8,0.1s-0.5-0.1-0.5,0.1c0,0.2,0.2,0.3,0.5,0.5c0.3,0.2,0.2,0.4-0.4,0.3C59.4,6.2,59.1,6,59.1,6s0,0.4,0.1,0.7
			c0.1,0.3,0.6,0.6,0.3,0.6c-0.3,0-0.6,0.2-1-0.1c-0.2-0.2-0.4-0.3-0.9-0.3c-0.4,0-0.7,0.6-0.8,0.7c-0.1,0.1-0.5,0.2-0.8,0.1
			c-0.3,0-0.7,0.6-0.7,1c0,0.4,0.5,0.4,0.3,0.5c-0.2,0.1-0.3,0.6-0.1,0.7s0.4,0.7,0.4,1.1c0,0.4-0.8,0.6-1.2,0.8
			c-0.4,0.2-0.2,1.1-0.1,1.3c0.1,0.2-0.1,0.7-0.1,0.7s0.5-0.1,0.7-0.2c0.2-0.1,0-0.1,0-0.4s0.2-0.3,0.3-0.3c0.1,0,0.5,0.1,1.1,0
			c0.6-0.1,0.9-0.6,0.9-0.6s0.1-0.3,0.1-0.6c0.1-0.2,0.6-1,0.6-1s0.3,0.3,0.8,0.2c0.5-0.1,0.4-0.4,0.4-0.4s0.4,0,0.5-0.1
			s0.3,0,0.5,0.1c0.1,0.1,0.4,0.3,0.4,0.3s0.1,0.4,0.2,0.7c0.1,0.4,0.7,0.5,0.7,0.5s0,0.2,0,0.3c0,0.2,0,0.5,0,0.5l-0.5,0l-1,1
			c0,0-0.3-0.4-0.4-0.7c-0.1-0.3-0.4-0.8-0.4-0.8l-0.7-0.1c0,0,0,1,0.1,1.3c0,0.3-0.2,1.5-0.2,1.5l0.3,0.4c-2.2-0.2-2.1-0.4-3.1-0.6
			c-0.8-0.2-2.4-1.2-2.4-1.2l-0.2-0.7L52.8,12c0,0,0.7-0.5,0.7-0.7c0.1-0.2,0.8-0.7,0.8-0.7s-0.3-0.1-0.5-0.1
			c-0.2,0-0.7-0.2-0.7-0.2s0.1-0.3,0.2-0.5c0.1-0.2,0.4-0.7,0.6-0.9c0.2-0.2,0.4-0.8,0.4-0.8s-0.4-0.1-0.6,0c-0.2,0-0.6-0.1-0.6-0.1
			V7.3c0-0.1-0.1-0.5-0.1-0.5S52.6,7,52.5,7.1c-0.1,0.1-0.4,0.5-0.4,0.5s-0.2-1.2-0.3-1.5c-0.1-0.3-0.3-0.9-0.3-0.9
			s-0.4,0.9-0.6,1.7c-0.2,0.8-0.6,1.4-0.6,1.4S49.9,8,49.6,7.7C49.4,7.5,49,7.3,49,7.3s0.2,0,0.2-0.2s-0.5-0.5-0.5-0.5
			s0.2-0.1,0.3-0.2C49,6.4,49.3,6,49.3,6s0.6,0.3,0.8,0C50.3,5.7,50,5.4,50,5.4s0.5,0.2,0.7-0.3c0.1-0.2-0.2-0.6-0.2-0.6
			s0.6,0.1,0.6-0.6c0-0.4-0.6-0.4-0.6-0.4s0.1-0.5-0.2-0.8c-0.3-0.3-0.7,0-0.7,0s0-0.2-0.2-0.4c-0.2-0.2-0.7,0-0.7,0S48.6,2,48.2,2
			c-0.3,0-0.6,0.3-0.6,0.3S47.4,2,47.1,2.1c-0.3,0.1-0.3,0.4-0.3,0.4s-0.1-0.3-0.2-0.4c0-0.1-0.2-0.3-0.2-0.3l-1.2,0.8V0.5l-0.4,0
			L45,0.1c0,0-0.3-0.1-0.7-0.1c-0.4,0-1.8,0-2.2,0c-0.4,0-0.6,0.1-0.6,0.1l0.2,0.5l-0.4,0l0,1.9l-0.6-0.4c-0.1-0.1-0.4-0.2-0.4-0.2
			s0-0.1-0.3,0.3c-0.2,0.3-0.2,0.3-0.2,0.4c0,0-0.2-0.4-0.5-0.6c-0.4-0.2-0.6,0.3-0.6,0.3S38.3,1.9,37.9,2c-0.4,0.1-0.5,0.3-0.5,0.3
			s-0.3-0.1-0.7,0.1c-0.3,0.2-0.2,0.5-0.2,0.5s-0.4-0.1-0.6,0.3C35.7,3.5,36,3.9,36,3.9s-0.3-0.1-0.4,0.3c-0.1,0.4,0.5,0.5,0.5,0.5
			s-0.4,0.1-0.2,0.6c0.2,0.5,0.8,0.2,0.8,0.2s-0.4,0.4-0.1,0.8c0.3,0.4,0.5-0.1,0.5-0.1s0.2,0.2,0.3,0.3c0.1,0.1,0.4,0.2,0.4,0.2
			s-0.3,0.2-0.4,0.4c-0.2,0.2,0,0.4,0,0.4l-0.6,0.6c0,0-0.4-0.2-1.1-1.2c-0.1-0.1-0.1-0.5-0.3-0.9c-0.2-0.4-0.2-0.7-0.2-0.7
			l-0.1,0.1c0,0-0.1,1.2-0.1,1.5c-0.1,0.2-0.4,1.3-0.4,1.3S34.3,8.1,34.2,8l-0.6-0.4c0,0-0.1,0.3,0,0.6C33.8,8.5,34,9.4,34,9.4
			s-0.3,0.1-0.6,0c-0.3,0-0.8-0.2-0.8-0.2s0.2,0.5,0.4,0.7c0.2,0.2,0.8,1.1,0.8,1.1s-0.2,0-0.3,0.1c-0.1,0.1-0.6,0.2-0.6,0.2
			s0.4,0.4,0.7,0.8c0.2,0.3,0.6,0.5,0.6,0.5s-0.6,1.5-0.8,1.8c-0.2,0.4-1.7,0.8-1.7,0.8s-0.1-0.6-0.2-0.9c0-0.3-0.3-0.7-0.8-1.1
			c-0.4-0.4-0.7-0.8-0.7-0.8s0.7,0.2,0.9,0.3c0.3,0.1,0.9,0.9,0.9,0.9s0.1,0,0.1-0.2s-0.3-1-0.6-1.3s-0.9-0.3-1.2-0.6
			c-0.3-0.3-0.5-0.8-0.5-0.8s0.9,0.5,1.2,0.6c0.3,0.1,0.2,0.2,0.5,0.4c0.2,0.1,0.5,0.2,0.5,0.2s-0.2-0.9-0.5-1.2
			c-0.3-0.3-1.1-0.4-1.3-0.7c-0.2-0.4-0.9-0.7-1.2-0.8C28.5,9.2,28,8.6,28,8.6s0.6,0,0.9,0.1c0.3,0.1,1,0.5,1.4,0.7s0.9-0.1,0.9-0.1
			s-0.4-0.1-0.9-0.3c-0.5-0.3-0.7-0.8-1.1-1.2c-0.4-0.4-1.4-0.4-1.4-0.4s0.1-0.1,0.4-0.1S28.7,7,28.7,7l-0.4-0.4
			c0,0,0.7,0.2,1.1-0.1c0.4-0.2,0.1-0.8,0.1-0.8s0,0.1-0.5,0.3c-0.4,0.1-1.5-0.3-1.5-0.3L28,5.2l-0.1-0.5c0,0-0.6,0.3-0.9,0.4
			c-0.3,0.1-0.4,0.1-0.9-0.1s-1.2,0.1-1.2,0.1s0-0.4-0.4-0.9c-0.5-0.5-0.9-0.3-0.9-0.3s0.3-0.3,0.2-0.6C23.7,3,23.4,3,23.4,3
			s0.5-0.5-0.2-1.1c-0.5-0.4-0.9,0.3-0.9,0.3S22.1,2,21.6,2.1c-0.5,0.1-0.3,0.8-0.3,0.8s-0.2-0.1-0.5,0c-0.3,0.2-0.2,0.7-0.2,0.7
			l-0.3,0.1l-0.4-1.3c0,0-0.5,0.8-0.6,1s-0.4,0-0.3-0.2c0.1-0.2,0.4-1.1,0.4-1.1s-0.8,0.4-0.9,0.5l-0.9,0.5c0,0,0.8,0.4,0.9,0.4
			c0.1,0.1,0.2,0.3,0,0.3c-0.2-0.1-0.9-0.4-0.9-0.4l0.4,1l-0.4,0.1c0,0-0.2-0.2-0.5-0.1C16.7,4.7,16.7,5,16.7,5S16.6,4.7,16.1,5
			c-0.5,0.3,0.1,0.8,0.1,0.8s-0.5-0.1-0.4,0.4c0.1,0.6,0.6,0.1,0.6,0.1s-0.1,0.2,0.1,0.4c0.2,0.2,0.6-0.1,0.6-0.1s0,0.3,0,0.5
			c0,0.2,0.4,0,0.4,0s-0.1,0.1-0.1,0.2c-0.1,0.1-0.2,0.5-0.4,0.7c-0.1,0.2-0.5,1-0.7,1.5c-0.2,0.5-0.2,0.7-0.1,0.8
			c0.1,0.2,0.7,0.6,0.7,0.6s0,0.1-0.1,0.2c-0.1,0.1,0,0.3,0,0.3s-0.3,0.6-0.3,0.8c0,0.1,0.4,0.5,0.5,0.6c0.1,0.1,0.4,0,0.6,0.2
			c0.2,0.2,0.8,0.9,0.8,0.9l0.3-0.1c0,0-0.1-0.1-0.2-0.3c-0.1-0.2-0.1-0.5-0.1-0.4c0,0,0.1-0.1,0.2-0.2c0.2-0.1,0.3-0.3,0.4-0.4
			c0.1-0.1,0.2-0.1,0.3,0c0.1,0.1-0.1,0.4-0.2,0.5c-0.1,0.1-0.1,0.4-0.1,0.5c0.1,0.1,0.3,0.4,0.4,0.4c0.1,0,0.3,0.2,0.3,0.3
			c0,0.1,0,0.2-0.1,0.2c-0.1,0.1-0.1,0.2-0.2,0.3c-0.1,0.1-0.4,0.1-0.7,0.1s-0.6,0.3-0.7,0.4s-0.3,0.3-0.3,0.3c-0.1,0-0.8,0-0.9,0.1
			s-0.4,0.2-0.4,0.2s0.2,0.2,0.3,0.3c0.1,0,0.6-0.1,0.9-0.1s0.6-0.1,0.8-0.3c0.2-0.1,0.7-0.2,0.9-0.2c0.3,0,0.4,0,0.4,0
			s-0.2,0.1-0.2,0.1c-0.1,0-0.6,0.3-0.7,0.4c-0.1,0.1-0.5,0.3-0.6,0.3c0,0-0.2,0-0.3,0s-0.4,0.1-0.5,0.1c-0.1,0.1-0.4,0.3-0.5,0.4
			c-0.1,0.1-0.2,0.2-0.2,0.2s0.1,0.1,0.3,0.2c0.2,0,0.2,0,0.4,0.1c0.2,0,0.5,0.1,0.6,0.1s0.2,0,0.1,0.1c-0.1,0-0.2,0.1-0.3,0.3
			c-0.1,0.1-0.3,0.2-0.6,0.3c-0.3,0.1-0.3,0.1-0.5,0.1c-0.2,0-0.1,0.1,0.1,0.2c0.1,0.1,0.3,0.1,0.2,0.2c-0.1,0-0.3,0.1-0.3,0.1v0.3
			c0,0-0.2-0.2-0.3-0.4c-0.2-0.1-0.6-0.5-0.6-0.6c0,0,0.1-0.1,0.3-0.4c0.2-0.2,0.2-1.1,0.2-1.3c0-0.2-0.5-1.7-0.6-1.9
			c-0.1-0.2-0.9-1-1.2-1.1c-0.3-0.2-1.6-0.2-1.9-0.2c-0.3,0-2,0.2-2.2,0.3c-0.2,0.1-0.4-0.2-0.4-0.3c0-0.1,0.1-0.3,0-0.5
			c-0.1-0.2-0.5-0.5-0.6-0.5c-0.1-0.1-0.2,0.1-0.2,0.1s-0.3-0.1-0.4-0.1c-0.1,0-0.3-0.1-0.3-0.1l-0.1,0.1c0,0-0.6-0.6-0.9-0.6
			c-0.3-0.1-1.2,0-1.5,0.2c-0.3,0.2-0.9,0.2-1,0.2s-0.6-0.3-0.7-0.3s-0.3,0.1-0.3,0.1S4.1,12,4.1,12.2c0,0.1,0.2,0.6,0.5,0.8
			c0.2,0.2,0.8,0.4,1.2,0.3c0.2,0,0.5-0.2,0.7-0.2c0.2,0,0.7,0.3,0.6,0.6C7,14,6.8,14.3,6.7,14.5c0,0.2,0,0.7,0.2,1L7.4,16
			c0,0-0.1,0.1-0.2,0.1c-0.2,0-0.3,0-0.3,0.1c-0.1,0-0.2,0.4-0.2,0.4S6.3,16.3,6,16.3c-0.1,0-0.3,0.1-0.4,0.1
			c-0.1,0-0.2,0.1-0.2,0.1s0.2-0.2,0.2-0.4c0-0.2,0-0.2,0-0.2l-0.1,0c0,0,0.1-0.2,0-0.4c0-0.1,0-0.1,0-0.1l-0.1,0.1
			c0,0-0.1-0.1-0.2-0.3C5.1,15.2,5,15.2,5,15.2l0,0.2c0,0-0.1-0.1-0.3-0.3c-0.2-0.1-0.1-0.2-0.2-0.4c-0.1-0.2-0.1-0.3-0.1-0.4
			c-0.1-0.1-0.2-0.2-0.2-0.2s0,0.2,0,0.2c0,0.1-0.1,0.2-0.1,0.4c0,0.2,0,0.3,0.1,0.4C4.3,15.2,4.1,15,4.1,15S4,15.2,4,15.3
			c0.1,0.1,0.2,0.5,0.2,0.5S4,15.6,4,15.6c-0.1,0-0.1,0.2-0.1,0.2s0.1,0.3,0.2,0.4l0.1,0.1c0,0-0.2-0.1-0.2-0.2
			C3.9,16,3.8,16,3.8,15.9c0-0.1,0-0.1,0-0.1s-0.1,0.2,0,0.3c0,0.1,0,0.1,0,0.2c0,0.1,0.1,0.3,0.2,0.4c0.1,0.1-0.3-0.3-0.3-0.3
			s0.1,0.2,0.2,0.4L4,17c0,0-0.1,0-0.2-0.2s-0.1-0.2-0.1-0.2s0,0.3,0.2,0.5c0.2,0.2,0.3,0.4,0.3,0.4S4.1,17.6,4,17.7
			c0,0.1,0,0.4,0,0.6c0,0.2-0.1,0.2-0.1,0.2s0-0.2-0.1-0.3c0-0.1-0.1-0.3-0.2-0.5c-0.1-0.1-0.1-0.2-0.1-0.4c0-0.1,0-0.4-0.1-0.6
			c-0.1-0.1-0.3-0.3-0.3-0.4l0,0.1c0,0-0.2-0.1-0.3-0.2l-0.1-0.1v0.1c0,0-0.1-0.1-0.2-0.1c-0.1,0-0.2-0.1-0.2-0.1l0,0.1
			c0,0-0.1,0-0.2-0.1c-0.1,0-0.2-0.1-0.2-0.1l0,0.2c0,0-0.1-0.1-0.2-0.1c-0.1,0-0.1,0-0.2,0c-0.1,0-0.2,0-0.2,0l-0.2-0.1l0.1,0.2
			c0,0-0.3-0.1-0.4-0.2c-0.1-0.1-0.2-0.2-0.2-0.2l-0.1,0.1c0,0-0.2-0.2-0.3-0.3c-0.1-0.1-0.1-0.2-0.1-0.2S0,15.6,0.1,15.8
			c0,0.2,0.2,0.3,0.2,0.3L0,15.9c0,0,0.1,0.2,0.1,0.4c0.1,0.1,0.4,0.4,0.4,0.4s-0.3-0.1-0.2-0.1L0.7,17l-0.1,0.1c0,0,0,0.1,0.2,0.2
			C0.8,17.5,1,17.6,1,17.6l-0.3,0c0,0,0.1,0.1,0.2,0.2c0.2,0.1,0.3,0.3,0.3,0.3l-0.2,0c0,0,0.2,0.1,0.3,0.1c0.1,0,0.3,0.1,0.3,0.1
			l-0.2,0.1c0,0,0.3,0,0.3,0s0.3,0,0.3,0l-0.3,0.2c0,0,0.2,0.1,0.4,0c0.2,0,0.4-0.1,0.4-0.1l-0.1,0.1c0,0,0.2,0,0.3-0.1
			c0.2-0.1,0.2-0.2,0.2-0.2L3,18.6c0,0,0.1-0.1,0.3-0.2s0.2,0,0.2,0s0,0.2,0.1,0.3l0.1,0.4c0,0-0.2,0-0.4,0s-0.5,0.1-0.5,0.1
			l0.3,0.1l-0.6,0c-0.1,0-0.1,0.1-0.1,0.1s-0.2,0-0.3,0c-0.2,0-0.2,0-0.2,0l0.1,0.1c0,0-0.2,0-0.3,0c-0.1,0-0.2,0-0.3,0
			c-0.1,0-0.2,0-0.2,0s0.1,0.1,0.2,0.1c0.1,0,0.4,0.1,0.4,0.1s-0.2,0.1-0.3,0s-0.3,0-0.4-0.1c-0.1,0-0.2-0.1-0.2-0.1
			s0.1,0.1,0.2,0.2l0.2,0.1l-0.1,0c0,0,0.2,0.2,0.3,0.2c0.1,0,0.4,0.1,0.4,0.1l-0.1,0.1c0,0,0.1,0.1,0.2,0.2c0.1,0,0.3,0,0.3,0
			L2,20.4c0,0,0.2,0.1,0.3,0.1l0.3,0l-0.3,0.1c0,0,0.2,0.1,0.3,0.1c0.1,0,0.1,0.1,0.1,0.1l0.2,0c0,0,0.1,0,0.1,0.1
			c0,0.1-0.1,0.1-0.1,0.2c0,0.1,0,0.1,0,0.1c0,0,0.4,0.2,0.4,0.2s0.2-0.1,0.3-0.1c0.1,0,0.2,0,0.3,0c0.1,0,0.3-0.1,0.5-0.1l0.1,0
			c0,0-0.2,0.2-0.2,0.2c-0.1,0-0.2,0.3-0.2,0.3c0,0.1-0.3,0.5,0,0.6c0.2,0.1,0.7,0,0.9,0.1c0.1,0.1,0.2,0.2,0.2,0.2
			s-0.2-0.1-0.4-0.1c-0.2,0-0.1,0.1-0.1,0.1s-0.1-0.1-0.3-0.1c-0.1,0,0.2,0.3,0.2,0.3s-0.5,0.1-0.5,0c0,0-0.1-0.1-0.2-0.1
			c-0.1,0,0,0.2,0,0.2s-0.1,0-0.1,0c-0.1,0,0.3,0.2,0.5,0.2c0.2,0,0.7,0,0.7,0s-1.1,0.7-1.2,0.7c-0.1,0-0.4,0-0.6,0
			c-0.1,0-0.3-0.1-0.1-0.1c0.2,0,0.8-0.2,0.8-0.2s-0.3,0-0.4-0.1c-0.1,0,0-0.1,0.2-0.1c0.2,0,0.5,0,0.5,0l0.2-0.1
			c0,0-0.5-0.1-0.7-0.2C3.2,23.1,3,23,3,22.9c-0.1,0,0,0.2,0,0.2s-0.2,0-0.1,0.1c0.1,0.1,0.4,0.1,0.4,0.1s-0.4,0.1-0.5,0.1
			c-0.1,0.1-0.1,0.2-0.1,0.2s-0.5-0.2-1.2-0.2c-0.7-0.1-1.1,0-1.1,0s0.2,0.5,0.4,0.8c0.1,0.2,0.3,0.9,0.3,0.9s1.4,0.7,1.7,0.9
			c0.3,0.1,1.1,0.6,1.1,0.6s-1.2,0.4-1.6,0.4c-0.4,0.1-1.3,0.4-1.3,0.4s0.3,0.6,0.4,0.8c0.1,0.2,0.3,0.6,0.3,0.6s5.7,0.5,7.3,0.5
			c1.6,0.1,4.4,0.1,4.4,0.1s3.2,0.1,5.2-0.3c3.2-0.6,11.1-3.2,11.6-3.3c0.6-0.1,2.4-0.4,3.2,0.1c0.9,0.5,1.4,1,1.6,1.3
			c0.2,0.4-0.2,0.5-0.4,0.2c-0.3-0.3-1.3-1.5-2.8-1.4c-1.5,0.1-3.8,0.9-3.8,0.9l0.5,1c0,0,3.2-1.3,4.2-0.8c1,0.5,1.9,1.9,2.2,2.1
			c0.4,0.2,1.1,0.2,1.5-0.4c0.4-0.6,0.5-1.1,0.1-1.9c-0.1-0.3,0.2-0.8,0.2-0.8l1.2,1.3l-0.2,0.2l0.1,2l0.6,0.8c0,0,1.7,0.2,1.8,0.3
			c0.1,0,0.4,0.1,0.4,0.1l0.8-1l-0.2-0.1l0.2-0.4c0,0,1.4,0.5,2.5,0.6c1.1,0.1,1.8,0,2.1-0.2c0.3-0.2,0.2-0.5,0.1-0.6
			c-0.1,0,0.3-0.3,0.3-0.3l2.3-1.2c0,0,0.8,0.2,0.9-0.1c0.2-0.4-0.1-0.8-0.1-0.8l0.8-0.6c0,0,0.3,0.5,0.1,0.8
			c-0.2,0.3-0.4,1.4-0.3,1.6s0.8,0.7,1.4,0.8c0.8,0.2,1.1-1,1.8-1.4c0.7-0.4,1.9-0.8,2.6-0.7l2.3,0.6l0.5-0.7c0,0-1.9-0.8-3.3-0.9
			c-1.2-0.1-3,1.2-3.4,1.4c-0.3,0.2-0.4,0.1,0.1-0.6s2.5-1.2,3.5-1.2c1.4,0.1,9,3.2,16.1,3.7c6.8,0.5,13.1-0.7,13.1-0.7l1-1.4
			C85.1,27.1,85.1,27,83.8,26.7L83.8,26.7z"/>
		<path class="st0" d="M6.9,24L6.9,24c0.1,0,0.3,0,0.4-0.1C7.4,23.9,8,23.6,8,23.6l-0.2-0.1c0,0-0.4,0.2-0.6,0.3
			C7.1,23.9,6.9,24,6.9,24 M11.6,20.7l0,0.3c0,0,1.8-1.2,1.9-1.3c0.1-0.1,0.9-0.7,0.9-0.7s-0.3,0.1-0.8,0.3
			C13.2,19.5,11.8,20.5,11.6,20.7 M6.7,23.9L6.7,23.9c0,0.1,0.2,0,0.3,0c0.1,0,0.6-0.3,0.6-0.3s-0.2,0-0.3,0.1
			C7.1,23.6,6.7,23.9,6.7,23.9 M6.6,23.6l0.1,0.1c0.5-0.3,0.4-0.3,0.5-0.3c0.1-0.1,0.2-0.1,0.2-0.1S7,23.4,6.9,23.4
			C6.8,23.5,6.6,23.6,6.6,23.6 M47.1,23.5l1.8,2.1l0.2-0.3l-1.8-2"/>
	</g>
	<path class="st0" d="M20.1,10.3c0.2,0,0.2-0.4,0-0.3C19.9,10,19.9,10.4,20.1,10.3 M19.8,10.9c0.3,0.1,0.3-0.4,0.1-0.4
		C19.7,10.5,19.4,10.8,19.8,10.9 M20.3,11.3c0.2,0.1,0.3-0.3,0-0.3C20.1,11,20.1,11.3,20.3,11.3 M20.3,10.5
		c-0.2,0.1-0.1,0.5,0.2,0.3C20.7,10.7,20.5,10.4,20.3,10.5 M20.1,9.5c0,0-0.4-0.2-0.7-0.3c-0.2,0-0.5-0.1-0.5-0.1S18.9,9,18.9,8.9
		c0-0.2-0.1-0.5-0.1-0.5s0.1-0.1,0.3-0.1c0.2-0.1,0.3-0.2,0.3-0.2l-0.2-0.2c0,0-0.2,0.1-0.4,0.2c-0.1,0-0.4,0.1-0.4,0.1
		s0,0.4,0.1,0.7c0.1,0.3,0,0.7,0,0.7s0.8,0,1,0c0.2,0,0.5,0.1,0.5,0.1L20.1,9.5L20.1,9.5z M20.5,9.9c-0.1,0.1-0.1,0.5,0.1,0.4
		C20.8,10.3,20.7,9.8,20.5,9.9"/>
	<path class="st0" d="M20.9,7.7c0,0-0.6,0.4-1,0.6C19.5,8.5,19,8.7,19,8.7L19.1,9c0,0,0.3,0,0.5,0.1l0.7,0.2c0,0,0.2-0.5,0.3-0.7
		C20.7,8.3,21.1,8,21.1,8L20.9,7.7L20.9,7.7z M20.5,9.4c0,0-0.1,0-0.2,0.2c-0.1,0.1,0,0.2,0.3,0.1C20.9,9.6,20.8,9.3,20.5,9.4
		 M22.4,10.6c-0.1-0.7-1.2-1.8-1.2-1.8l0,0l-0.1,0.3c0,0,0.7,0.4,1,1.4c0.3,0.9-0.1,1.4-0.2,1.6c-0.1,0.1-0.2,0.3,0.2,0.1
		C22.3,12,22.5,11.5,22.4,10.6 M6.5,23.5c0,0,0.3-0.2,0.5-0.3c0.1,0,0.2-0.1,0.2-0.1l-0.7,0.2L6.5,23.5L6.5,23.5z"/>
</g>
</svg>
