<svg id="nicola-pernice-logo" class="logo" xmlns="http://www.w3.org/2000/svg" viewBox="0 0 155 111.1">
        <style type="text/css">
        .n, .p, .dot {
            opacity: 0;
        }
        </style>

        <path class="np" fill="currentColor" d="M81.6 56.3c-1.8.7-3.6 1.2-5.4 1.7.5-2.9 1.2-5.7 1.9-8.4 2.1-7.4 5.1-14.5 9.1-21 3.5 4.1 6.4 9 6.8 14.3.6 7.4-6.5 11.1-12.4 13.4m-8.3 4.8c0-.1-.2-.8-.3-.9.1-.1.3-.1.4-.1 0 .2 0 .9-.1 1m4.3 23.1c-1.6-2-2.3-5.2-2.6-7.7-.3-1.7-.4-4.2-.2-5.9 2 4 4.9 16.1 2.8 13.6M66.2 59.4c.5-2.9 1-5.8 1.5-8.6.5-1.2 1-2.3 1.5-3.5.8 3.8 1.6 7.6 2.5 11.5-1.9.3-3.6.5-5.5.6M62 72.6c-.2-.2-.4-.5-.6-.8-1.1-1.4-2.3-2.6-3.5-3.7 1.6-2.3 3.1-4.7 4.5-7.2H64c-.7 3.9-1.4 7.8-2 11.7m2.3 6.2c2.8 7.6 3.2 17.4.4 25.1-.1.3-.5 1.3-.9 1.8-.3-1-.4-2.2-.6-2.9-.7-3.4-.9-6.9-1-10.3 0-5.4.5-10.7 1.2-16 .3.7.6 1.5.9 2.3M40.7 60.6c6.3-.2 12.7.3 19 .3h.9c-1.1 1.8-2.3 3.7-4.2 6-4.1-3.5-8.9-5.2-15.7-6.3m24-3.9c-.1.9-.3 1.9-.5 2.8h-1c.5-.9 1-1.8 1.5-2.8m4.1-17.1c.1-.3.3-1.9 1.1-1 1.2 1.2-.9 5-1 4.1-.2-1.1-.1-2.1-.1-3.1m81.5-31.2c-8.6-5.8-18.8-8.7-29.3-7.3-11.2 1.6-21 8.4-28.8 16.3-2.6 2.6-4.8 5.4-6.7 8.4-4.9-4.6-18.8-17.5-47-13-12.6 2-32.7 12.2-36.7 27-2.6 9.4-.2 21.3 6.9 28.3.5.5 1.2.8 1.7 1.3C3.9 63 1.6 52.7 2.9 44c2.2-14.4 21.5-26.5 38.2-29.6 18.2-3.4 37.4 5.2 43.8 11.7l.2.2c-3 4.8-5.4 10-7.3 15.4s-3.4 11.1-4.2 16.8c-.3 0-.7.1-1 .1-1.1-3.8-1.9-8.3-2.9-12.5.4-1 .6-1.5.9-2.5.5-1.4 1.2-3.2.8-4.7-.1-.7-1.7-1.9-2.5-1.9-.6.1-1.3.3-1.4 1.2-.4 2.4-.5 4.5-.8 6.7-.3 1.7-.5 3.5-.8 5.2-1.2 2.9-2.5 5.7-4 8.4-.2.4-.4.7-.6 1.1H55c-8-.1-16.2-1-24.2.3-1.1.3-1.6 1-.9.9 9.3-.5 21.8 2.3 26.4 6.3-2.5 3.2-6.3 7.3-12.6 13.5-5.6 5.5-3.3 8.5.2 4.9 6.2-6.3 8.9-10.3 12.4-15.1l1.5-2.1c.9 1 1.9 2.1 2.9 3.5l1.2 1.8-.3 2.4c-1.3 9.7-2.1 20.1 1 29.5.3.8 1.5 1.7 2.2 2 .5.2 1-.9 1.2-1.3 1.4-2.8 1.8-6.3 2-9.5.6-7.4-.6-15.3-4.4-21.7.2-1.6.5-3.2.7-4.8.5-3.2 1.1-6.3 1.6-9.4 2.1-.1 4.1-.3 6.2-.5.2.8.9 3.6.9 3.9-.1 2-.1 3.5-.1 5.4.1 4.9.7 11.7 4.3 15.5.8.9 2.2 2.2 2.4 1.7 2-3.9-3.1-15.3-4.5-20.1.1-2.3.4-4.7.8-7 4.4-.9 8.7-2.3 12.6-4.5 2.8-1.6 5.6-3.6 6.7-6.6.9-2.4.6-5.1 0-7.5-1.3-4.9-4.2-9.3-7.6-13.1 4.6-7.1 11-13.2 18.1-17.8 6.9-4.6 15-7.3 23.4-7.2 8.3 0 17.3 3.7 24.3 8.1-1-1.1-2.2-2.2-3.1-2.7" mask="url(#mask)"/>
        <text class="n" fill="currentColor" font-family="SourceSansPro-Regular" font-size="11" transform="translate(5.294 107.52)">NICOLA</text>
        <text class="p" fill="currentColor" font-family="SourceSansPro-Regular" font-size="11" transform="translate(74.794 107.52)">PERNICE</text>
        <path class="dot" fill="currentColor" d="M86.5 69.8c0 1.2-1 2.3-2.3 2.3s-2.3-1.1-2.3-2.3c0-1.3 1-2.3 2.3-2.3s2.3 1 2.3 2.3"/>
    </svg>